# https://github.com/mikedh/trimesh
v 0.00962347 0.00486535 -0.01452626
v 0.00885888 0.00466652 -0.01464579
v 0.00651414 0.00415185 -0.01492922
v 0.00586715 0.00403501 -0.01498718
v 0.00136813 0.00353334 -0.01517417
v 0.00170916 0.00355234 -0.01517275
v 0.00191507 0.00356534 -0.01517089
v 0.00424676 0.00379172 -0.01509706
v -0.00243264 0.00353826 -0.01504949
v -0.00036195 0.00348621 -0.01514969
v -0.00736476 0.00414332 -0.01445905
v -0.00691708 0.00405987 -0.01453668
v -0.00485760 0.00374984 -0.01482734
v -0.00303154 0.00357520 -0.01500556
v -0.00263652 0.00354972 -0.01503531
v -0.00887518 0.00446657 -0.01415113
v -0.01036676 0.00485268 -0.01360150
v -0.00899140 0.00449379 -0.01411859
v -0.01224889 0.00542695 -0.01269242
v -0.01166239 0.00523591 -0.01306365
v -0.01144596 0.00516844 -0.01319370
v -0.01061498 0.00492073 -0.01351138
v -0.01715704 0.02588925 0.00850000
v -0.01692533 0.01105899 0.00850000
v -0.01685178 0.00964221 0.00850000
v -0.01684654 0.00954937 0.00850000
v -0.01679101 0.00861885 0.00850000
v -0.01600000 0.00864150 0.00850000
v -0.01719508 0.04302732 0.00850000
v -0.01716233 0.03795417 0.00850000
v -0.01716362 0.02245245 0.00850000
v -0.01715236 0.01987906 0.00850000
v -0.01714659 0.01923187 0.00850000
v -0.01716728 0.04491506 0.00850000
v -0.01713864 0.04526322 0.00850000
v -0.01715989 0.04526443 0.00850000
v -0.01706299 0.01471428 0.00850000
v -0.01697573 0.01219231 0.00850000
v 0.01747902 0.00777940 0.00850000
v 0.01600000 0.00711124 0.00850000
v 0.01599997 0.00711122 0.00810106
v 0.01815926 0.00810433 0.00683045
v 0.01667453 0.00740918 0.00649633
v 0.01870802 0.00837524 0.00506071
v 0.01720302 0.00765056 0.00483521
v 0.01914263 0.00859600 0.00314009
v 0.01762317 0.00784745 0.00302440
v 0.01948403 0.00877116 0.00090438
v 0.01970771 0.00888780 -0.00154918
v 0.01982161 0.00894907 -0.00393423
v 0.01830035 0.00816984 -0.00426559
v 0.01983054 0.00895385 -0.00466886
v 0.01981949 0.00894801 -0.00555009
v 0.01974924 0.00891093 -0.00726087
v 0.01971676 0.00889387 -0.00764298
v 0.01952185 0.00879187 -0.00880804
v 0.01789841 0.00797881 -0.00881932
v 0.01918265 0.00861660 -0.00989807
v 0.01868512 0.00836467 -0.01092690
v 0.01754516 0.00781056 -0.00971478
v 0.01731321 0.00770178 -0.01014888
v 0.01839038 0.00821830 -0.01139721
v 0.01705574 0.00758252 -0.01055505
v 0.01806567 0.00805956 -0.01184553
v 0.01646752 0.00731604 -0.01130471
v 0.01728283 0.00768763 -0.01273281
v 0.01630585 0.00724442 -0.01148192
v 0.01624149 0.00721659 -0.01366485
v 0.01529059 0.00681024 -0.01242696
v 0.01522118 0.00678146 -0.01442425
v 0.01140915 0.00538929 -0.01574954
v 0.01208012 0.00560818 -0.01401732
v 0.01351177 0.00611140 -0.01525331
v 0.01359034 0.00614029 -0.01355824
v 0.01428759 0.00640633 -0.01502617
v 0.01406671 0.00632079 -0.01333856
v 0.01472637 0.00657990 -0.01475671
v 0.01505274 0.00671142 -0.01261798
v 0.01521120 0.00677705 -0.01249162
v 0.01189329 0.00554552 -0.01407351
v 0.01114365 0.00530617 -0.01424100
v 0.01042435 0.00509014 -0.01593715
v 0.01042294 0.00508985 -0.01438252
v 0.00919174 0.00475109 -0.01613721
v 0.00794354 0.00444810 -0.01630436
v 0.00680472 0.00420730 -0.01642875
v 0.00586738 0.00403477 -0.01651227
v 0.00451272 0.00382663 -0.01660399
v 0.00220656 0.00358531 -0.01668487
v 0.00136816 0.00353316 -0.01669179
v 0.00061034 0.00350246 -0.01668800
v -0.00014545 0.00348746 -0.01667459
v -0.00244500 0.00353842 -0.01657274
v -0.00303163 0.00357486 -0.01653158
v -0.00458771 0.00371805 -0.01639133
v -0.00627625 0.00395045 -0.01618475
v -0.00893753 0.00448132 -0.01571715
v -0.00736473 0.00414311 -0.01601691
v -0.00689991 0.00405671 -0.01609221
v -0.01086297 0.00499249 -0.01523520
v -0.01166118 0.00523600 -0.01488973
v -0.01169333 0.00524620 -0.01487277
v -0.01518743 0.00653618 -0.00779282
v -0.01548196 0.00666148 -0.00757872
v -0.01583261 0.00681405 -0.01169623
v -0.01224888 0.00542721 -0.00755448
v -0.01309591 0.00572065 -0.00732701
v -0.01341558 0.00583690 -0.00766132
v -0.01361295 0.00591018 -0.00779304
v -0.01380861 0.00598397 -0.00788669
v -0.01393277 0.00603137 -0.01348636
v -0.01317191 0.00574802 -0.01401203
v -0.01263929 0.00555984 -0.01434258
v -0.01424328 0.00615194 -0.00799231
v -0.01440018 0.00621396 -0.00800000
v -0.01500810 0.00646115 -0.01258894
v -0.01468719 0.00632929 -0.00797402
v -0.01510990 0.00650362 -0.00783389
v -0.01733053 0.00750744 -0.00869912
v -0.01725159 0.00746921 -0.00898719
v -0.01595293 0.00686726 -0.00678524
v -0.01696829 0.00733356 -0.00979141
v -0.01665537 0.00718654 -0.01045445
v -0.01577259 0.00678768 -0.00722219
v -0.01647351 0.00710245 -0.01077677
v -0.01598782 0.00688277 -0.00620294
v -0.01650000 0.00711464 -0.00592379
v -0.01599945 0.00688795 -0.00644190
v -0.01766699 0.00767251 -0.00560541
v -0.01754722 0.00761326 -0.00751841
v -0.01660031 0.00716098 -0.00584870
v -0.01669517 0.00720507 -0.00574332
v -0.01676347 0.00723700 -0.00564217
v -0.01685718 0.00728102 -0.00545455
v -0.01693594 0.00731822 -0.00521741
v -0.01700000 0.00734862 -0.00471741
v -0.01796978 0.00782381 0.00349629
v -0.01803431 0.00785652 0.00171030
v -0.01700000 0.00734862 0.00470455
v -0.01795942 0.00781876 -0.00070710
v -0.01775353 0.00771559 -0.00368485
v -0.01667987 0.00719795 0.00648255
v -0.01746321 0.00757213 0.00650007
v -0.01689005 0.00729652 0.00576237
v -0.01763019 0.00765429 0.00583963
v -0.01696848 0.00733365 0.00525656
v -0.01771708 0.00769738 0.00542484
v -0.01792238 0.00780000 0.00402657
v -0.01666570 0.00719134 0.00651596
v -0.01655932 0.00714201 0.00712353
v -0.01657346 0.00714855 0.00720397
v -0.01657603 0.00714973 0.00721564
v -0.01704643 0.00737073 0.00772393
v -0.01665352 0.00718568 0.00745529
v -0.01695235 0.00732600 0.00794934
v -0.01872463 0.03776412 -0.00044408
v -0.01844884 0.01207412 0.00321963
v -0.01746521 0.04301231 0.00783402
v -0.01717803 0.04564240 0.00842649
v -0.01718985 0.04572868 0.00838700
v -0.01794456 0.04297435 0.00614204
v -0.01723396 0.04594277 0.00823971
v -0.01728200 0.04609163 0.00807424
v -0.01731302 0.04616091 0.00796368
v -0.01785749 0.02759135 0.00734366
v -0.01709717 0.01218686 0.00828115
v -0.01739434 0.01473395 0.00791705
v -0.01762137 0.01728919 0.00763527
v -0.01777975 0.01985255 0.00743643
v -0.01787091 0.02242404 0.00732113
v -0.01789634 0.02500364 0.00729000
v -0.01690036 0.00753565 0.00810928
v -0.01744475 0.00960960 0.00713887
v -0.01687937 0.00762670 0.00817214
v -0.01680039 0.00811014 0.00841479
v -0.01847324 0.01199967 -0.00056672
v -0.01888134 0.01710320 -0.00121118
v -0.01910842 0.02223828 -0.00152505
v -0.01902201 0.03260136 -0.00114093
v -0.01915499 0.02740497 -0.00150325
v -0.01762643 0.04642903 0.00656016
v -0.01779768 0.04664374 0.00503429
v -0.01820831 0.04293677 0.00435926
v -0.01783756 0.04688539 0.00324446
v -0.01830217 0.04289936 0.00249846
v -0.01827184 0.04286192 0.00057244
v -0.01740152 0.04627170 0.00763217
v -0.01754645 0.04636539 0.00699859
v -0.01916716 0.02227543 0.00040063
v -0.01907619 0.01970394 0.00051592
v -0.01893802 0.01714037 0.00071452
v -0.01875244 0.01458470 0.00099579
v -0.01851927 0.01203695 0.00135911
v -0.01841396 0.03787638 0.00512532
v -0.01794466 0.03791424 0.00681718
v -0.01874602 0.03271327 0.00442805
v -0.01898643 0.03267593 0.00264555
v -0.01886417 0.03011179 0.00420372
v -0.01909118 0.03007458 0.00242138
v -0.01893250 0.02751632 0.00406507
v -0.01914855 0.02747923 0.00228287
v -0.01894836 0.02492885 0.00401170
v -0.01915685 0.02489184 0.00222959
v -0.01891110 0.02234937 0.00404297
v -0.01911569 0.02231240 0.00226091
v -0.01882006 0.01977788 0.00415826
v -0.01902469 0.01974091 0.00237620
v -0.01867460 0.01721439 0.00435695
v -0.01888348 0.01717737 0.00257484
v -0.01847406 0.01465888 0.00463841
v -0.01869165 0.01462177 0.00285619
v -0.01821779 0.01211136 0.00500201
v -0.01790515 0.00957183 0.00544713
v -0.01778196 0.01214888 0.00669346
v -0.01805613 0.01469621 0.00632964
v -0.01826827 0.01725160 0.00604804
v -0.01841939 0.01981504 0.00584928
v -0.01851048 0.02238653 0.00573399
v -0.01854256 0.02496606 0.00570278
v -0.01851664 0.02755363 0.00575628
v -0.01843371 0.03014925 0.00589510
v -0.01829775 0.03275091 0.00611964
v -0.01921110 0.02485484 0.00036927
v -0.01920822 0.02744218 0.00042249
v -0.01915872 0.03003745 0.00056091
v -0.01906355 0.03263869 0.00078495
v -0.01875859 0.03780153 0.00148189
v -0.01867015 0.03783888 0.00334263
v 0.01682594 0.04402193 0.00550307
v 0.01651275 0.04405238 0.00721708
v 0.01704170 0.04100142 0.00662710
v 0.01761300 0.01054189 0.00829990
v 0.01786864 0.01358871 0.00780418
v 0.01453965 0.05454032 0.00775097
v 0.01457689 0.05419358 0.00799360
v 0.01480442 0.05317731 0.00790619
v 0.01466136 0.05353511 0.00830615
v 0.01458946 0.05576899 0.00327830
v 0.01450480 0.05571561 0.00550000
v 0.01504672 0.05314656 0.00621323
v 0.01448668 0.05567631 0.00587573
v 0.01447683 0.05557985 0.00626851
v 0.01448057 0.05530214 0.00688266
v 0.01449623 0.05504008 0.00725725
v 0.01529744 0.05308197 0.00278945
v 0.01604420 0.05002872 0.00182918
v 0.01671672 0.04697593 0.00097787
v 0.01731685 0.04392363 0.00023605
v 0.01784639 0.04087185 -0.00039577
v 0.01830720 0.03782062 -0.00091705
v 0.01870111 0.03476997 -0.00132728
v 0.01902994 0.03171993 -0.00162593
v 0.01929554 0.02867053 -0.00181248
v 0.01976222 0.01647983 -0.00142718
v 0.01988554 0.01977399 -0.00535898
v 0.01973124 0.01952641 -0.00169427
v 0.01975909 0.02334715 -0.00550804
v 0.01964436 0.02257373 -0.00184717
v 0.01949974 0.02562178 -0.00188640
v 0.01966381 0.01038904 -0.00054830
v 0.01991434 0.01256793 -0.00457380
v 0.01973914 0.01343403 -0.00104536
v 0.01993658 0.01618220 -0.00504874
v 0.01827141 0.01051537 0.00660974
v 0.01757430 0.01359900 0.00850000
v 0.01804714 0.01663606 0.00742209
v 0.01759669 0.01505110 0.00850000
v 0.01814803 0.01968391 0.00715251
v 0.01764393 0.01970468 0.00850000
v 0.01817078 0.02273223 0.00699433
v 0.01764638 0.02143047 0.00850000
v 0.01811494 0.02578100 0.00694643
v 0.01760840 0.02532010 0.00850000
v 0.01797998 0.02883019 0.00700770
v 0.01744853 0.03030984 0.00850000
v 0.01776543 0.03187977 0.00717702
v 0.01747077 0.03492972 0.00745327
v 0.01714415 0.03525759 0.00850000
v 0.01709553 0.03798000 0.00783536
v 0.01690932 0.03798975 0.00850000
v 0.01668576 0.04018293 0.00850000
v 0.01663919 0.04103060 0.00832214
v 0.01632701 0.04319878 0.00850000
v 0.01541288 0.04931581 0.00850000
v 0.01564840 0.04789329 0.00850000
v 0.01590661 0.04710365 0.00790949
v 0.01622749 0.04707341 0.00620205
v 0.01555403 0.05012521 0.00700344
v 0.01484895 0.05241169 0.00850000
v 0.01472251 0.05312894 0.00842165
v 0.01705495 0.04399024 0.00376914
v 0.01645925 0.04704197 0.00447979
v 0.01579031 0.05009409 0.00529479
v 0.01878768 0.01048653 0.00487408
v 0.01917983 0.01045566 0.00309868
v 0.01893832 0.01353228 0.00437719
v 0.01929607 0.01350106 0.00260157
v 0.01902662 0.01657870 0.00399426
v 0.01935469 0.01654720 0.00221880
v 0.01905143 0.01962578 0.00372424
v 0.01935426 0.01959404 0.00194945
v 0.01901159 0.02267348 0.00356609
v 0.01929338 0.02264155 0.00179262
v 0.01890595 0.02572176 0.00351875
v 0.01917060 0.02568970 0.00174741
v 0.01873337 0.02877059 0.00358119
v 0.01898453 0.02873845 0.00181290
v 0.01849269 0.03181995 0.00375233
v 0.01873373 0.03178779 0.00198819
v 0.01841680 0.03483767 0.00227237
v 0.01846796 0.01356158 0.00611329
v 0.01859576 0.01660841 0.00573055
v 0.01865395 0.01965582 0.00546040
v 0.01864170 0.02270378 0.00530171
v 0.01855816 0.02575227 0.00525335
v 0.01840250 0.02880124 0.00531420
v 0.01817387 0.03185067 0.00548312
v 0.01787142 0.03490053 0.00575900
v 0.01749431 0.03795079 0.00614070
v 0.01803230 0.03788806 0.00266452
v 0.01757883 0.04093893 0.00316375
v 0.01946587 0.01042308 0.00128930
v 0.01955756 0.01346822 0.00079215
v -0.01734569 0.04815612 -0.00649999
v -0.01726895 0.04815140 -0.00692736
v -0.01651576 0.04810956 -0.00910010
v -0.01695605 0.04813300 -0.00807399
v -0.01709444 0.04814097 -0.00763943
v -0.01591916 0.04808242 -0.01006423
v -0.01566634 0.04807252 -0.01038926
v -0.01516608 0.04805580 -0.01093571
v -0.01455817 0.04804064 -0.01147239
v -0.01427797 0.04803557 -0.01168351
v -0.01331727 0.04802752 -0.01227556
v -0.01223369 0.04803603 -0.01275777
v -0.01099408 0.04806918 -0.01313511
v -0.01155926 0.04805093 -0.01298143
v -0.01171786 0.04804676 -0.01293363
v -0.00916326 0.04816520 -0.01352749
v -0.00698676 0.04835519 -0.01383047
v -0.00611601 0.04845512 -0.01390794
v -0.00465897 0.04865397 -0.01398697
v -0.00350346 0.04884059 -0.01400605
v -0.00242509 0.04903852 -0.01398906
v -0.00084457 0.04937137 -0.01390327
v -0.00024962 0.04951018 -0.01385217
v 0.00192505 0.05008283 -0.01357399
v 0.00251616 0.05025672 -0.01347176
v 0.00390124 0.05069581 -0.01318336
v 0.00885321 0.05265237 -0.01145307
v 0.00761101 0.05210203 -0.01201316
v 0.00580195 0.05137315 -0.01266505
v 0.00413264 0.05077358 -0.01312817
v 0.00926141 0.05284238 -0.01124522
v 0.01038458 0.05338923 -0.01059086
v 0.01138639 0.05390753 -0.00983716
v 0.01228705 0.05439886 -0.00895791
v 0.01302874 0.05482200 -0.00801488
v 0.01328409 0.05497163 -0.00762281
v 0.01335214 0.05501185 -0.00751067
v 0.01365699 0.05519384 -0.00695904
v 0.01398315 0.05539182 -0.00624965
v 0.01474375 0.05586689 -0.00277559
v 0.01471546 0.05584877 -0.00331590
v 0.01450414 0.05571519 -0.00459697
v 0.01415117 0.05549514 -0.00581299
v 0.01381158 0.04580000 0.00850000
v 0.01955614 0.02686732 -0.00900488
v 0.01963681 0.02688874 -0.00751173
v 0.01988322 0.02087758 -0.00804516
v 0.01583786 0.05157016 -0.00481394
v 0.01614853 0.05058357 -0.00451429
v 0.01606394 0.05063011 -0.00511255
v 0.01994362 0.01453279 -0.00505466
v 0.01995577 0.01469083 -0.00681720
v 0.01990307 0.02072301 -0.00628240
v 0.01958868 0.02672679 -0.00574945
v 0.01544930 0.05344831 -0.00337031
v 0.01496364 0.05494974 -0.00364958
v 0.01639059 0.04921828 -0.00554041
v 0.01676136 0.04770947 -0.00565888
v 0.01665333 0.04802748 -0.00588201
v 0.01840348 0.03883075 -0.00645008
v 0.01850547 0.03745284 -0.00814117
v 0.01798224 0.04097373 -0.00754364
v 0.01893985 0.03393141 -0.00858403
v 0.01914021 0.03287276 -0.00698006
v 0.01903899 0.03301226 -0.00867413
v 0.01928896 0.03040558 -0.00887213
v 0.01989136 0.01615065 -0.00845072
v 0.01985503 0.01974386 -0.00879686
v 0.01974400 0.02331462 -0.00898055
v 0.01617785 0.05043003 -0.00275146
v 0.01620227 0.05051104 -0.00363260
v 0.01684319 0.04756162 -0.00389568
v 0.01740097 0.04460317 -0.00415934
v 0.01739521 0.04475927 -0.00592200
v 0.01793736 0.04179913 -0.00618577
v 0.01736598 0.04449843 -0.00679075
v 0.01534771 0.05351105 -0.00416261
v 0.01985502 0.01253215 -0.00793840
v -0.01783568 0.04448798 -0.00713701
v -0.01769545 0.04581709 -0.00671027
v -0.01739879 0.04811587 -0.00617373
v -0.01846384 0.03728081 -0.00856163
v -0.01865525 0.03371539 -0.00902519
v -0.01878788 0.03301881 -0.00723865
v -0.01773505 0.00912643 -0.00784259
v -0.01814299 0.01252429 -0.00803006
v -0.01811080 0.01262837 -0.00848054
v -0.01890440 0.02789719 -0.00744278
v -0.01746909 0.04796883 -0.00503985
v -0.01806938 0.04321309 -0.00566779
v -0.01885049 0.02277433 -0.00764305
v -0.01860640 0.01765010 -0.00783903
v -0.01840403 0.01612729 -0.00896164
v -0.01850871 0.01769796 -0.00912688
v -0.01874501 0.02313751 -0.00945675
v -0.01861493 0.01963105 -0.00928716
v -0.01879543 0.02664734 -0.00947039
v -0.01876587 0.03016992 -0.00932736
v -0.01802430 0.04325823 -0.00681844
v -0.01819235 0.04086198 -0.00793519
v -0.01850276 0.03813922 -0.00703073
v -0.01842630 0.03818414 -0.00818066
v -0.01009223 0.02939773 -0.01689574
v -0.00686012 0.02942479 -0.01737988
v -0.00685051 0.02612823 -0.01758742
v -0.00339361 0.02945672 -0.01764950
v 0.00019042 0.02949236 -0.01770356
v 0.00026453 0.02619626 -0.01792701
v 0.01197246 0.02962937 -0.01618056
v 0.01312309 0.02964523 -0.01581953
v 0.01339051 0.02635134 -0.01602207
v 0.01658391 0.02640487 -0.01420529
v 0.01630863 0.02969795 -0.01406513
v 0.01749451 0.02972287 -0.01295839
v 0.01442545 0.00660871 -0.01496846
v -0.01845903 0.02938364 -0.01085202
v -0.01847430 0.02608798 -0.01095989
v -0.01737013 0.04589614 -0.00825572
v -0.01677548 0.04588508 -0.00971780
v -0.01591156 0.04587895 -0.01099173
v -0.01478112 0.04587784 -0.01206693
v -0.01338692 0.04588183 -0.01293287
v 0.00995867 0.05272858 -0.01104618
v 0.01958728 0.01002597 -0.00890613
v 0.01963711 0.01331405 -0.00947611
v 0.01902583 0.02976941 -0.01029990
v 0.01600602 0.04954482 -0.00682584
v 0.01521851 0.05284338 -0.00577298
v 0.01464405 0.05282137 -0.00716016
v 0.01382039 0.05279870 -0.00838784
v 0.01146726 0.05275211 -0.01033764
v 0.01275798 0.05277555 -0.00944927
v 0.00553284 0.04936223 -0.01338645
v 0.00829108 0.04939687 -0.01280991
v 0.01057776 0.04942824 -0.01210532
v 0.00259242 0.04932814 -0.01375725
v -0.00044797 0.04929546 -0.01392137
v -0.00349933 0.04595992 -0.01481492
v -0.00660993 0.04593138 -0.01456325
v -0.00955641 0.04590695 -0.01410166
v -0.01173170 0.04589104 -0.01357900
v -0.01772130 0.04258908 -0.00904939
v -0.01800626 0.03928430 -0.00970581
v -0.01822453 0.03598180 -0.01022502
v -0.01837561 0.03268157 -0.01060708
v -0.01842094 0.02279463 -0.01093075
v -0.01829846 0.01950358 -0.01076464
v -0.01751150 0.00964425 -0.00944498
v -0.01810638 0.01621483 -0.01046161
v -0.01784422 0.01292838 -0.01002171
v -0.01693474 0.00963236 -0.01096322
v -0.01494515 0.00962183 -0.01358928
v -0.01461875 0.00633833 -0.01295241
v -0.01323078 0.00633865 -0.01412845
v -0.01155398 0.00634306 -0.01520362
v -0.00638049 0.00637955 -0.01656273
v -0.00942019 0.00635617 -0.01593024
v -0.00300901 0.00640904 -0.01695847
v 0.00057710 0.00644364 -0.01710358
v 0.00792451 0.00652403 -0.01658635
v 0.00788764 0.00981353 -0.01695963
v 0.01393642 0.00660131 -0.01517851
v 0.01430038 0.00989662 -0.01540152
v 0.01599517 0.00992736 -0.01423725
v 0.01734906 0.00995529 -0.01301919
v 0.01838424 0.00998078 -0.01173372
v 0.01912292 0.01000420 -0.01036724
v 0.01776304 0.02642993 -0.01308077
v 0.01840202 0.02974672 -0.01170238
v 0.01866022 0.02645380 -0.01181375
v 0.01927275 0.02647644 -0.01040542
v 0.01681312 0.02311280 -0.01421842
v 0.01797855 0.02313798 -0.01307193
v 0.01885875 0.02316184 -0.01179132
v 0.01945435 0.02318439 -0.01037576
v 0.01484971 0.02967204 -0.01501978
v 0.01512550 0.02637865 -0.01518612
v 0.01536182 0.02308628 -0.01523162
v 0.01556282 0.01979494 -0.01515789
v 0.01700027 0.01982178 -0.01410545
v 0.01814474 0.01984706 -0.01293233
v 0.01900096 0.01987087 -0.01163526
v 0.01957363 0.01989329 -0.01021097
v 0.01400557 0.01647551 -0.01596627
v 0.01573263 0.01650466 -0.01496651
v 0.01714933 0.01653183 -0.01386730
v 0.01826529 0.01655719 -0.01266245
v 0.01909016 0.01658091 -0.01134577
v 0.01963356 0.01660317 -0.00991107
v 0.01362401 0.02305841 -0.01611235
v 0.01382767 0.01976647 -0.01609291
v 0.00724349 0.02957007 -0.01716095
v 0.01047877 0.02960980 -0.01656222
v 0.01069980 0.02631526 -0.01677933
v 0.01912970 0.01329202 -0.01092303
v 0.01834390 0.01326842 -0.01226275
v 0.01726427 0.01324299 -0.01350490
v 0.01587537 0.01321546 -0.01465910
v 0.01416177 0.01318556 -0.01573496
v 0.00423401 0.00977196 -0.01735397
v 0.00419538 0.01306255 -0.01763224
v 0.00783428 0.01310394 -0.01724098
v 0.00414340 0.01635411 -0.01781584
v 0.00776224 0.01639527 -0.01742733
v 0.00407674 0.01964667 -0.01790165
v 0.00766932 0.01968754 -0.01751559
v 0.00399403 0.02294024 -0.01788654
v 0.00755336 0.02298074 -0.01750267
v 0.00389394 0.02623486 -0.01776738
v 0.00741214 0.02627492 -0.01738548
v 0.00377508 0.02953053 -0.01754105
v 0.01381881 0.00988945 -0.01559840
v 0.01368723 0.01317859 -0.01592039
v 0.01353776 0.01646873 -0.01614183
v 0.01221988 0.02633517 -0.01639154
v 0.01243369 0.02304193 -0.01649222
v 0.01261754 0.01974964 -0.01648535
v 0.01277514 0.01645830 -0.01637368
v 0.01291013 0.01316793 -0.01615994
v 0.01302621 0.00987852 -0.01584688
v 0.01312704 0.00659010 -0.01543725
v 0.01145149 0.00656778 -0.01589625
v 0.01137883 0.00985669 -0.01628914
v 0.01128933 0.01314654 -0.01658761
v 0.01117983 0.01643731 -0.01678876
v 0.01104718 0.01972902 -0.01688970
v 0.01088822 0.02302168 -0.01688752
v -0.00335674 0.02616033 -0.01786636
v -0.01243124 0.02938050 -0.01634428
v -0.01158387 0.02938640 -0.01657354
v -0.01159105 0.02608987 -0.01676405
v 0.00033121 0.02290136 -0.01804233
v -0.00331417 0.02286527 -0.01797324
v 0.00039116 0.01960761 -0.01805256
v -0.00326571 0.01957153 -0.01797302
v 0.00044504 0.01631499 -0.01796075
v -0.00321116 0.01627907 -0.01786856
v 0.00049354 0.01302348 -0.01776996
v -0.00315032 0.01298786 -0.01766273
v 0.00053733 0.00973304 -0.01748321
v -0.00308301 0.00969786 -0.01735841
v -0.01009745 0.02610115 -0.01709216
v -0.00682117 0.02283318 -0.01768248
v -0.01006882 0.02280626 -0.01717325
v -0.00677214 0.01953962 -0.01766771
v -0.01000641 0.01951303 -0.01714132
v -0.00670350 0.01624750 -0.01754572
v -0.00991028 0.01622144 -0.01699872
v -0.00661530 0.01295681 -0.01731914
v -0.00978049 0.01293145 -0.01674778
v -0.00650762 0.00966750 -0.01699060
v -0.00961711 0.00964303 -0.01639084
v -0.01243918 0.02608405 -0.01652739
v -0.01155759 0.02279511 -0.01683770
v -0.01240288 0.02278943 -0.01659183
v -0.01148344 0.01950211 -0.01679668
v -0.01232223 0.01949662 -0.01653958
v -0.01136855 0.01621083 -0.01664318
v -0.01219712 0.01620561 -0.01637265
v -0.01121288 0.01292125 -0.01637937
v -0.01202745 0.01291635 -0.01609302
v -0.01101638 0.00963335 -0.01600743
v -0.01181310 0.00962885 -0.01570268
v -0.01077901 0.00634710 -0.01552956
v -0.01005312 0.03269603 -0.01658163
v -0.01237917 0.03267881 -0.01604051
v -0.01420858 0.02937080 -0.01563466
v -0.01422174 0.02607463 -0.01578966
v -0.01418418 0.02278043 -0.01581916
v -0.01409577 0.01948819 -0.01572443
v -0.01395637 0.01619791 -0.01550672
v -0.01376583 0.01290957 -0.01516732
v -0.01352401 0.00962315 -0.01470747
v -0.01507664 0.04257129 -0.01286497
v -0.01623176 0.04257219 -0.01178747
v -0.01649190 0.03926761 -0.01244748
v -0.01711422 0.04257815 -0.01051218
v -0.01738929 0.03927345 -0.01116982
v -0.01760030 0.03597100 -0.01169091
v -0.01774685 0.03267079 -0.01207560
v -0.01669166 0.03596523 -0.01297213
v -0.01531667 0.03926688 -0.01352885
v -0.01365156 0.04257556 -0.01373435
v 0.01213495 0.04945230 -0.01139462
v 0.01346703 0.04947617 -0.01050460
v 0.01456335 0.04949967 -0.00944199
v 0.01541323 0.04952262 -0.00821350
v -0.00031511 0.04599164 -0.01485763
v 0.00285219 0.04602562 -0.01469231
v 0.00591208 0.04606093 -0.01431993
v 0.00877402 0.04609665 -0.01374143
v 0.01113438 0.04612879 -0.01303449
v 0.01273426 0.04615333 -0.01231956
v 0.01410218 0.04617760 -0.01142642
v 0.01522746 0.04620142 -0.01036162
v 0.01609941 0.04622461 -0.00913172
v 0.01670735 0.04624697 -0.00774326
v 0.01732550 0.04294986 -0.00852526
v 0.01786345 0.03965352 -0.00917188
v 0.01670593 0.04292736 -0.00991498
v 0.01723612 0.03963092 -0.01056349
v 0.01581642 0.04290397 -0.01114720
v 0.01633392 0.03960736 -0.01179919
v 0.01466741 0.04287987 -0.01221564
v 0.01516668 0.03958301 -0.01287320
v 0.01326932 0.04285523 -0.01311407
v 0.01374427 0.03955803 -0.01377975
v 0.01163260 0.04283024 -0.01383624
v 0.01207650 0.03953259 -0.01451309
v 0.01099175 0.03951758 -0.01485841
v 0.00920543 0.04279738 -0.01454662
v 0.00958845 0.03949906 -0.01522840
v 0.00625074 0.04276070 -0.01512753
v 0.00655103 0.03946150 -0.01581235
v 0.00308510 0.04272430 -0.01550143
v 0.00329248 0.03942415 -0.01618773
v -0.00019375 0.04268918 -0.01566746
v -0.00008319 0.03938805 -0.01635393
v -0.00348801 0.04265634 -0.01562478
v -0.00347198 0.03935426 -0.01631029
v -0.00669994 0.04262678 -0.01537253
v -0.00676990 0.03932386 -0.01605620
v -0.00973175 0.04260150 -0.01490986
v -0.00987294 0.03929789 -0.01559103
v -0.01195923 0.04258509 -0.01438533
v -0.01214306 0.03928108 -0.01506303
v -0.01386619 0.03927134 -0.01440401
v -0.01403066 0.03596915 -0.01494310
v -0.01550098 0.03596459 -0.01405932
v -0.01562939 0.03266441 -0.01445713
v -0.01683075 0.03266504 -0.01336182
v -0.01690888 0.02936704 -0.01361693
v -0.01782855 0.02937283 -0.01232406
v -0.01692574 0.02607122 -0.01373784
v -0.01784500 0.02607711 -0.01243645
v -0.01688105 0.02277759 -0.01372494
v -0.01779581 0.02278365 -0.01241295
v -0.01677449 0.01948614 -0.01357861
v -0.01768059 0.01949244 -0.01225371
v -0.01660578 0.01619688 -0.01329925
v -0.01749893 0.01620349 -0.01195890
v -0.01637460 0.01290980 -0.01288722
v -0.01725045 0.01291679 -0.01152868
v -0.01608068 0.00962489 -0.01234293
v 0.01832416 0.03635798 -0.00968317
v 0.01871063 0.03306327 -0.01005917
v 0.01769331 0.03633532 -0.01107744
v 0.01808083 0.03304057 -0.01145700
v 0.01678364 0.03631162 -0.01231807
v 0.01716927 0.03301678 -0.01270432
v 0.01560400 0.03628705 -0.01340001
v 0.01598332 0.03299202 -0.01379701
v 0.01416322 0.03626175 -0.01431820
v 0.01453033 0.03296641 -0.01473101
v 0.01247016 0.03623587 -0.01506757
v 0.01281767 0.03294007 -0.01550220
v 0.01136207 0.03622058 -0.01541674
v 0.01168775 0.03292450 -0.01585654
v 0.00992625 0.03620169 -0.01578966
v 0.01022197 0.03290527 -0.01623330
v 0.00681512 0.03616335 -0.01637747
v 0.00704521 0.03286620 -0.01682597
v 0.00347570 0.03612515 -0.01675436
v 0.00363612 0.03282729 -0.01720442
v 0.00001724 0.03608822 -0.01692007
v 0.00010822 0.03278967 -0.01736893
v -0.00345103 0.03605365 -0.01687434
v -0.00342497 0.03275448 -0.01731978
v -0.00681987 0.03602257 -0.01661690
v -0.00684993 0.03272289 -0.01705725
v -0.00998004 0.03599607 -0.01614751
v -0.01228307 0.03597900 -0.01561409
v -0.01414484 0.03266897 -0.01535290
v -0.01570167 0.02936634 -0.01472300
v -0.01571763 0.02607037 -0.01485769
v -0.01567704 0.02277650 -0.01486194
v -0.01557971 0.01948471 -0.01473648
v -0.01542542 0.01619501 -0.01448205
v -0.01521397 0.01290739 -0.01409941
v -0.01674207 0.00792625 0.00833167
f 327 365 366
f 396 397 395
f 246 395 393
f 460 345 346
f 404 403 412
f 657 659 658
f 280 277 279
f 177 415 176
f 214 213 143
f 299 297 323
f 258 303 256
f 395 246 247
f 246 293 247
f 528 530 529
f 677 675 499
f 529 530 531
f 531 532 533
f 530 532 531
f 517 516 538
f 517 531 533
f 641 643 640
f 511 510 505
f 390 512 391
f 390 370 375
f 391 370 390
f 500 499 436
f 436 499 675
f 505 510 504
f 437 671 492
f 626 628 627
f 672 628 626
f 366 365 451
f 584 594 582
f 701 661 700
f 700 661 659
f 700 594 701
f 652 696 653
f 653 654 652
f 422 403 402
f 227 156 226
f 402 403 325
f 325 364 365
f 178 415 177
f 178 189 223
f 223 180 178
f 601 598 599
f 330 331 443
f 365 327 328
f 328 325 365
f 467 466 601
f 468 406 467
f 393 395 394
f 322 46 48
f 322 323 297
f 28 40 39
f 27 40 28
f 231 279 319
f 283 231 230
f 197 227 226
f 220 198 200
f 168 169 216
f 39 40 43
f 212 213 214
f 260 322 48
f 323 322 260
f 255 256 263
f 263 256 254
f 277 280 278
f 276 317 277
f 277 278 276
f 259 253 307
f 377 253 259
f 259 257 377
f 258 257 259
f 398 397 396
f 251 383 250
f 250 320 251
f 310 320 319
f 251 320 310
f 310 252 251
f 255 263 376
f 376 257 258
f 375 370 376
f 376 263 375
f 376 256 255
f 258 256 376
f 240 293 246
f 240 288 293
f 555 528 557
f 530 528 555
f 529 549 527
f 527 528 529
f 523 563 561
f 550 517 538
f 531 517 550
f 550 549 529
f 529 531 550
f 434 499 500
f 500 513 434
f 557 559 558
f 692 643 690
f 551 428 427
f 427 429 551
f 631 630 632
f 515 685 516
f 515 517 533
f 516 517 515
f 538 516 432
f 673 671 437
f 675 672 673
f 437 436 673
f 673 436 675
f 391 512 506
f 505 498 506
f 506 511 505
f 512 511 506
f 368 498 494
f 500 436 435
f 435 436 437
f 674 672 675
f 674 628 672
f 674 675 677
f 677 676 674
f 676 630 674
f 674 630 628
f 437 492 491
f 491 435 437
f 505 504 497
f 497 504 496
f 497 498 505
f 494 498 497
f 669 671 668
f 669 492 671
f 514 502 507
f 507 537 514
f 496 504 503
f 618 609 619
f 618 608 609
f 578 579 580
f 580 581 582
f 579 581 580
f 597 599 598
f 648 606 464
f 352 339 351
f 351 457 352
f 657 658 656
f 694 692 588
f 588 695 694
f 589 552 696
f 589 553 552
f 589 695 588
f 588 553 589
f 648 646 649
f 650 649 695
f 650 606 648
f 648 649 650
f 590 653 696
f 696 552 590
f 346 345 344
f 340 339 352
f 186 227 185
f 156 227 186
f 185 184 186
f 423 422 402
f 402 465 423
f 423 465 466
f 422 423 424
f 411 178 180
f 201 225 224
f 223 203 224
f 224 203 201
f 224 180 223
f 224 225 180
f 207 191 209
f 324 403 404
f 324 325 403
f 404 239 324
f 363 364 324
f 364 325 324
f 414 419 415
f 415 178 414
f 418 419 414
f 178 411 414
f 654 603 604
f 652 654 604
f 441 328 327
f 327 442 441
f 441 442 465
f 325 328 441
f 402 325 441
f 441 465 402
f 378 364 363
f 46 322 295
f 295 322 297
f 510 511 519
f 320 250 321
f 319 320 321
f 321 231 319
f 281 280 279
f 159 290 237
f 293 288 287
f 38 28 39
f 161 183 194
f 181 183 161
f 182 183 181
f 182 184 185
f 185 183 182
f 198 197 199
f 199 201 200
f 200 198 199
f 199 225 201
f 226 225 199
f 199 197 226
f 194 183 228
f 227 197 228
f 185 227 228
f 228 183 185
f 202 204 218
f 203 204 202
f 200 201 202
f 201 203 202
f 218 204 206
f 204 207 206
f 206 209 208
f 206 207 209
f 198 220 221
f 170 31 171
f 209 191 192
f 192 176 193
f 177 176 192
f 192 191 177
f 175 40 27
f 154 40 155
f 40 172 155
f 6 40 5
f 6 7 40
f 6 5 90
f 90 89 6
f 89 7 6
f 8 7 89
f 40 7 8
f 2 40 3
f 2 1 40
f 67 43 40
f 215 212 214
f 168 216 215
f 214 167 215
f 215 167 168
f 212 215 210
f 210 216 208
f 210 215 216
f 211 192 193
f 209 192 211
f 208 209 211
f 211 210 208
f 213 212 148
f 148 147 213
f 145 143 213
f 213 147 145
f 145 130 143
f 660 440 658
f 660 658 659
f 659 661 660
f 661 662 660
f 254 323 262
f 323 260 262
f 374 263 254
f 254 262 374
f 374 262 261
f 374 261 375
f 375 263 374
f 301 300 299
f 299 323 301
f 301 323 254
f 254 256 301
f 301 256 303
f 313 300 314
f 314 270 313
f 305 304 303
f 305 259 307
f 305 303 258
f 258 259 305
f 306 305 307
f 304 305 306
f 303 304 302
f 302 301 303
f 300 301 302
f 302 304 315
f 315 314 302
f 302 314 300
f 275 280 273
f 275 278 280
f 274 276 275
f 275 276 278
f 385 399 397
f 397 398 385
f 385 398 383
f 318 310 319
f 277 317 318
f 319 279 318
f 279 277 318
f 245 240 246
f 239 240 245
f 245 246 393
f 393 394 245
f 394 378 245
f 243 240 242
f 244 240 243
f 243 163 244
f 288 240 236
f 235 237 236
f 236 237 290
f 236 290 289
f 289 288 236
f 431 532 530
f 530 555 431
f 551 429 431
f 431 555 551
f 564 563 482
f 482 89 90
f 482 523 89
f 563 523 482
f 524 527 525
f 525 523 524
f 561 559 524
f 524 523 561
f 525 527 548
f 548 547 525
f 548 527 549
f 513 514 540
f 540 514 537
f 540 548 549
f 560 559 561
f 560 558 559
f 556 428 551
f 551 555 556
f 556 555 557
f 557 558 556
f 692 690 691
f 691 690 689
f 454 608 607
f 455 356 357
f 455 454 356
f 608 454 455
f 609 608 455
f 455 453 609
f 354 446 458
f 457 458 615
f 533 532 534
f 534 515 533
f 636 634 635
f 635 637 636
f 636 613 634
f 636 637 638
f 638 637 639
f 640 638 639
f 639 641 640
f 633 680 635
f 635 634 633
f 633 631 632
f 634 631 633
f 635 680 682
f 682 637 635
f 682 680 681
f 632 630 678
f 678 630 676
f 678 633 632
f 680 633 678
f 677 499 433
f 499 434 433
f 433 434 538
f 538 432 433
f 498 368 392
f 391 506 392
f 392 506 498
f 392 370 391
f 500 435 501
f 501 513 500
f 501 514 513
f 502 514 501
f 493 491 492
f 494 497 493
f 496 491 493
f 493 497 496
f 492 669 449
f 494 493 449
f 449 493 492
f 449 669 389
f 449 368 494
f 389 368 449
f 496 503 495
f 495 491 496
f 435 491 495
f 495 501 435
f 495 503 502
f 502 501 495
f 10 40 154
f 5 40 10
f 138 137 193
f 193 176 138
f 358 455 357
f 453 455 358
f 358 357 332
f 332 331 358
f 619 609 610
f 609 453 610
f 608 618 617
f 607 608 617
f 625 624 626
f 625 626 627
f 627 617 625
f 625 617 618
f 672 626 670
f 626 624 670
f 670 673 672
f 671 673 670
f 668 671 670
f 670 624 668
f 399 385 621
f 583 584 582
f 582 581 583
f 583 581 573
f 578 580 592
f 577 579 578
f 558 560 568
f 663 661 701
f 701 702 663
f 663 662 661
f 444 331 332
f 444 443 331
f 598 443 444
f 444 597 598
f 599 597 605
f 652 604 605
f 605 604 599
f 605 650 652
f 605 597 606
f 606 650 605
f 457 351 350
f 354 458 350
f 350 458 457
f 645 643 692
f 692 694 645
f 355 335 356
f 355 446 354
f 356 454 355
f 355 454 607
f 607 458 355
f 355 458 446
f 356 335 334
f 357 356 334
f 445 464 606
f 445 335 464
f 445 334 335
f 606 597 445
f 597 444 445
f 658 440 439
f 439 656 658
f 468 603 439
f 603 656 439
f 657 656 655
f 655 698 657
f 655 603 654
f 655 656 603
f 426 427 428
f 588 427 426
f 426 553 588
f 651 650 695
f 651 589 696
f 695 589 651
f 651 696 652
f 652 650 651
f 653 590 697
f 698 655 697
f 654 653 697
f 697 655 654
f 611 344 345
f 345 460 611
f 611 638 640
f 611 460 346
f 339 340 463
f 648 464 463
f 463 646 648
f 459 348 349
f 347 344 343
f 346 344 347
f 347 459 346
f 347 348 459
f 341 349 348
f 634 613 614
f 457 615 614
f 614 631 634
f 614 615 631
f 459 613 612
f 638 611 612
f 612 636 638
f 613 636 612
f 346 459 612
f 612 611 346
f 407 424 406
f 180 225 407
f 407 411 180
f 406 424 405
f 405 467 406
f 466 467 405
f 405 423 466
f 422 424 413
f 413 186 184
f 156 186 413
f 413 424 156
f 184 412 413
f 413 412 403
f 403 422 413
f 418 414 420
f 420 414 411
f 420 440 418
f 420 439 440
f 191 207 190
f 177 191 190
f 190 178 177
f 189 178 190
f 205 204 203
f 205 207 204
f 223 189 205
f 205 203 223
f 189 190 205
f 205 190 207
f 602 604 603
f 602 467 601
f 601 599 602
f 599 604 602
f 602 603 468
f 468 467 602
f 326 442 327
f 326 327 366
f 366 362 326
f 330 443 329
f 443 442 329
f 442 326 329
f 329 326 362
f 361 330 329
f 329 362 361
f 600 443 598
f 600 442 443
f 600 598 601
f 465 442 600
f 601 466 600
f 466 465 600
f 400 451 365
f 400 371 451
f 400 378 371
f 373 450 451
f 451 371 373
f 39 232 265
f 265 232 267
f 273 267 271
f 273 270 272
f 272 275 273
f 274 275 272
f 270 314 272
f 315 274 272
f 272 314 315
f 59 44 51
f 39 43 45
f 60 66 64
f 49 260 48
f 261 262 49
f 49 262 260
f 401 390 375
f 375 53 401
f 64 66 488
f 488 66 68
f 502 503 508
f 507 502 508
f 509 504 510
f 509 503 504
f 509 508 503
f 521 508 509
f 249 321 250
f 249 398 396
f 291 321 249
f 383 398 249
f 249 250 383
f 286 283 230
f 286 285 283
f 230 287 286
f 286 287 288
f 284 288 289
f 289 285 284
f 284 286 288
f 285 286 284
f 279 231 282
f 282 281 279
f 231 283 282
f 283 281 282
f 229 287 230
f 230 231 229
f 229 321 291
f 231 321 229
f 293 287 292
f 292 247 293
f 292 229 291
f 287 229 292
f 168 167 37
f 167 38 37
f 280 281 367
f 273 280 367
f 367 281 283
f 367 267 273
f 283 285 367
f 367 265 267
f 367 285 289
f 367 38 39
f 39 265 367
f 181 161 188
f 188 161 187
f 187 161 164
f 164 163 243
f 164 242 187
f 243 242 164
f 219 202 218
f 171 220 219
f 219 220 200
f 200 202 219
f 219 170 171
f 218 170 219
f 218 206 217
f 217 216 169
f 208 216 217
f 217 206 208
f 217 170 218
f 169 170 217
f 196 221 194
f 198 221 196
f 196 197 198
f 194 228 196
f 196 228 197
f 162 244 163
f 165 220 171
f 165 221 220
f 174 172 40
f 166 174 175
f 166 38 167
f 166 24 38
f 166 167 214
f 139 155 153
f 143 120 153
f 173 155 172
f 172 174 173
f 173 153 155
f 173 166 214
f 174 166 173
f 214 143 173
f 143 153 173
f 40 1 83
f 83 81 40
f 71 73 72
f 43 67 65
f 68 66 65
f 65 67 68
f 487 77 438
f 487 488 68
f 212 210 157
f 210 211 157
f 157 148 212
f 137 148 157
f 193 137 157
f 157 211 193
f 662 470 469
f 469 660 662
f 440 660 469
f 418 440 469
f 469 419 418
f 469 470 419
f 308 306 307
f 310 318 308
f 317 306 308
f 308 318 317
f 315 304 316
f 304 306 316
f 316 306 317
f 316 274 315
f 316 276 274
f 317 276 316
f 369 368 389
f 369 376 370
f 370 392 369
f 369 392 368
f 377 257 369
f 257 376 369
f 387 369 389
f 387 383 251
f 251 252 387
f 387 252 253
f 387 253 377
f 377 369 387
f 384 385 383
f 239 245 238
f 238 245 378
f 238 378 363
f 363 324 238
f 238 324 239
f 241 240 239
f 241 242 240
f 184 182 241
f 241 182 181
f 241 412 184
f 181 188 241
f 404 412 241
f 241 239 404
f 187 242 241
f 241 188 187
f 240 244 234
f 235 236 234
f 234 236 240
f 234 162 235
f 244 162 234
f 91 482 90
f 90 5 91
f 5 10 91
f 528 527 526
f 527 524 526
f 526 524 559
f 557 528 526
f 526 559 557
f 89 523 88
f 88 8 89
f 536 537 507
f 486 487 438
f 521 487 486
f 545 546 543
f 543 536 535
f 513 540 539
f 539 550 538
f 549 550 539
f 539 540 549
f 538 434 539
f 539 434 513
f 541 540 537
f 548 540 541
f 547 548 541
f 562 560 561
f 561 563 562
f 562 563 564
f 692 691 693
f 588 692 693
f 693 427 588
f 429 427 693
f 693 691 429
f 630 631 629
f 631 615 629
f 627 628 629
f 628 630 629
f 532 431 430
f 430 534 532
f 689 534 430
f 430 431 429
f 430 691 689
f 429 691 430
f 641 639 686
f 637 682 684
f 685 686 684
f 684 639 637
f 684 686 639
f 683 682 681
f 683 432 516
f 681 432 683
f 516 685 683
f 685 684 683
f 683 684 682
f 681 680 679
f 680 678 679
f 679 432 681
f 679 433 432
f 677 433 679
f 679 676 677
f 679 678 676
f 481 574 564
f 481 479 574
f 481 95 479
f 94 95 481
f 481 93 94
f 564 482 481
f 409 176 415
f 130 408 119
f 119 120 143
f 143 130 119
f 119 471 120
f 408 471 119
f 147 148 141
f 109 111 112
f 702 596 475
f 664 666 472
f 472 470 664
f 664 470 662
f 662 663 664
f 136 153 120
f 139 153 136
f 154 155 144
f 361 453 360
f 360 330 361
f 452 453 361
f 452 610 453
f 361 362 452
f 452 362 366
f 366 451 452
f 451 450 452
f 450 610 452
f 624 625 623
f 619 621 623
f 623 618 619
f 623 625 618
f 620 621 619
f 619 610 620
f 620 610 450
f 399 621 620
f 622 621 385
f 622 384 668
f 385 384 622
f 668 624 622
f 624 623 622
f 622 623 621
f 584 583 585
f 593 592 580
f 582 594 593
f 593 580 582
f 594 700 593
f 698 592 699
f 699 700 659
f 699 593 700
f 592 593 699
f 699 659 657
f 657 698 699
f 591 592 698
f 698 697 591
f 591 697 590
f 578 592 591
f 553 426 565
f 565 426 428
f 566 568 567
f 566 565 428
f 567 565 566
f 428 556 566
f 566 556 558
f 558 568 566
f 567 568 569
f 579 577 569
f 569 577 567
f 573 581 571
f 571 581 579
f 579 569 571
f 595 596 702
f 701 594 595
f 595 702 701
f 594 584 595
f 113 19 106
f 584 585 586
f 586 595 584
f 596 595 586
f 665 663 702
f 665 475 667
f 702 475 665
f 667 666 665
f 666 664 665
f 665 664 663
f 106 19 20
f 17 18 106
f 100 97 17
f 17 97 18
f 12 152 106
f 13 152 12
f 336 351 339
f 336 350 351
f 339 463 336
f 336 463 464
f 647 645 694
f 647 649 646
f 647 694 695
f 695 649 647
f 644 647 646
f 645 647 644
f 332 357 333
f 357 334 333
f 333 444 332
f 333 445 444
f 334 445 333
f 353 340 352
f 353 341 340
f 349 341 353
f 456 613 459
f 459 349 456
f 349 353 456
f 456 353 352
f 352 457 456
f 457 614 456
f 456 614 613
f 342 341 348
f 342 347 343
f 348 347 342
f 424 407 179
f 226 156 179
f 156 424 179
f 179 225 226
f 179 407 225
f 421 407 406
f 411 407 421
f 421 420 411
f 439 420 421
f 421 406 468
f 468 439 421
f 425 424 423
f 423 405 425
f 425 405 424
f 365 364 379
f 379 400 365
f 364 378 379
f 378 400 379
f 371 378 372
f 372 373 371
f 372 378 394
f 296 295 297
f 42 232 39
f 39 51 42
f 51 44 42
f 56 49 48
f 46 44 58
f 44 59 58
f 48 46 58
f 58 56 48
f 62 51 64
f 62 59 51
f 59 62 489
f 489 62 64
f 64 488 489
f 489 488 519
f 39 45 61
f 61 45 66
f 61 60 39
f 66 60 61
f 63 45 43
f 66 45 63
f 43 65 63
f 63 65 66
f 47 51 39
f 39 60 47
f 47 60 51
f 64 51 57
f 57 60 64
f 51 60 57
f 261 49 50
f 510 519 520
f 520 509 510
f 519 488 520
f 488 487 520
f 521 509 520
f 520 487 521
f 36 290 159
f 289 290 36
f 291 249 248
f 248 292 291
f 247 292 248
f 248 249 396
f 396 395 248
f 395 247 248
f 33 169 168
f 168 37 33
f 33 170 169
f 195 161 194
f 195 164 161
f 221 165 29
f 29 30 34
f 29 165 171
f 171 31 29
f 40 175 703
f 703 174 40
f 175 174 703
f 26 175 27
f 26 166 175
f 40 81 80
f 80 72 40
f 80 81 71
f 71 72 80
f 41 69 68
f 40 69 41
f 68 67 41
f 41 67 40
f 68 69 70
f 70 487 68
f 77 487 70
f 40 76 78
f 78 76 77
f 77 70 78
f 74 76 40
f 73 76 74
f 40 72 74
f 74 72 73
f 75 76 73
f 77 76 75
f 438 77 75
f 73 485 75
f 75 486 438
f 75 485 535
f 535 486 75
f 309 308 307
f 310 308 309
f 252 310 309
f 307 253 309
f 253 252 309
f 388 387 389
f 389 669 388
f 383 387 386
f 386 384 383
f 387 388 386
f 668 384 386
f 386 669 668
f 386 388 669
f 94 93 15
f 87 88 523
f 523 483 87
f 87 483 86
f 87 86 3
f 82 546 545
f 82 483 546
f 82 545 71
f 82 83 1
f 71 81 82
f 81 83 82
f 546 483 484
f 525 547 484
f 547 546 484
f 484 523 525
f 484 483 523
f 522 508 521
f 521 486 522
f 507 508 522
f 522 536 507
f 535 536 522
f 522 486 535
f 545 543 544
f 544 73 71
f 71 545 544
f 544 485 73
f 535 485 544
f 544 543 535
f 536 543 542
f 547 541 542
f 542 546 547
f 542 543 546
f 537 536 542
f 542 541 537
f 564 574 572
f 572 562 564
f 572 574 573
f 573 571 572
f 616 629 615
f 616 458 607
f 616 615 458
f 607 617 616
f 616 617 627
f 627 629 616
f 687 686 685
f 685 515 687
f 515 534 687
f 687 534 689
f 641 686 688
f 689 690 688
f 688 687 689
f 686 687 688
f 643 641 688
f 688 690 643
f 479 95 96
f 96 95 13
f 13 12 96
f 93 481 92
f 92 91 10
f 10 93 92
f 482 91 92
f 92 481 482
f 415 419 417
f 417 470 472
f 419 470 417
f 472 666 473
f 176 409 140
f 140 409 408
f 140 138 176
f 137 138 140
f 140 148 137
f 140 141 148
f 126 150 128
f 126 124 150
f 120 471 122
f 122 136 120
f 474 666 667
f 474 122 471
f 474 473 666
f 471 473 474
f 124 105 104
f 103 150 104
f 150 124 104
f 106 150 107
f 112 113 107
f 107 113 106
f 116 105 667
f 667 475 116
f 111 115 116
f 103 104 116
f 116 104 105
f 151 150 106
f 106 152 151
f 133 144 134
f 453 358 359
f 359 360 453
f 359 358 331
f 359 331 330
f 330 360 359
f 382 620 450
f 399 620 382
f 553 565 554
f 552 553 554
f 567 577 554
f 554 565 567
f 477 113 112
f 596 113 477
f 112 111 477
f 111 475 477
f 477 475 596
f 587 586 585
f 587 97 100
f 596 586 478
f 478 587 100
f 586 587 478
f 106 20 21
f 573 574 575
f 574 479 575
f 575 583 573
f 575 585 583
f 11 12 106
f 98 12 11
f 464 335 338
f 338 355 354
f 335 355 338
f 462 463 340
f 340 341 462
f 646 463 462
f 462 644 646
f 341 342 462
f 643 645 642
f 645 644 642
f 640 643 642
f 642 611 640
f 295 296 294
f 46 295 294
f 294 44 46
f 296 312 294
f 298 296 297
f 298 297 299
f 299 300 298
f 298 300 313
f 313 312 298
f 298 312 296
f 267 232 233
f 232 42 233
f 49 56 55
f 512 390 448
f 390 401 448
f 52 49 53
f 52 50 49
f 261 50 52
f 375 261 52
f 52 53 375
f 35 36 34
f 34 30 35
f 289 36 35
f 35 30 367
f 35 367 289
f 31 170 32
f 170 33 32
f 32 33 37
f 32 37 38
f 194 221 222
f 222 195 194
f 221 195 222
f 235 162 160
f 159 237 160
f 160 237 235
f 34 36 158
f 158 195 221
f 158 36 159
f 221 29 158
f 158 29 34
f 159 160 158
f 158 160 162
f 158 162 163
f 163 164 158
f 164 195 158
f 24 166 25
f 166 26 25
f 25 26 27
f 38 24 25
f 27 28 25
f 28 38 25
f 79 69 40
f 40 78 79
f 79 70 69
f 79 78 70
f 9 93 10
f 9 15 93
f 9 10 154
f 154 152 9
f 152 15 9
f 14 152 13
f 14 15 152
f 94 15 14
f 14 95 94
f 13 95 14
f 4 87 3
f 3 40 4
f 40 8 4
f 8 88 4
f 88 87 4
f 483 82 84
f 1 2 84
f 84 82 1
f 560 562 570
f 562 572 570
f 570 568 560
f 570 572 571
f 570 569 568
f 570 571 569
f 98 479 99
f 479 96 99
f 99 12 98
f 99 96 12
f 416 409 415
f 415 417 416
f 416 417 472
f 472 473 416
f 141 140 129
f 147 141 129
f 129 408 130
f 129 140 408
f 129 145 147
f 130 145 129
f 121 105 124
f 124 126 121
f 128 105 121
f 121 126 128
f 135 144 155
f 155 122 135
f 134 144 135
f 135 122 134
f 139 136 146
f 136 122 146
f 146 155 139
f 146 122 155
f 667 105 125
f 125 474 667
f 125 105 128
f 128 150 125
f 150 127 125
f 111 109 110
f 110 109 150
f 150 109 108
f 108 107 150
f 108 109 112
f 112 107 108
f 476 475 111
f 111 116 476
f 476 116 475
f 117 116 115
f 117 115 150
f 450 373 380
f 380 382 450
f 373 372 380
f 381 372 394
f 397 399 381
f 399 382 381
f 381 380 372
f 382 380 381
f 381 395 397
f 381 394 395
f 552 554 576
f 578 591 576
f 576 577 578
f 576 554 577
f 576 590 552
f 576 591 590
f 102 113 596
f 596 478 102
f 19 113 102
f 102 20 19
f 100 17 22
f 22 21 100
f 22 17 106
f 106 21 22
f 97 587 480
f 98 97 480
f 480 587 585
f 585 575 480
f 480 479 98
f 480 575 479
f 106 18 16
f 16 11 106
f 18 97 16
f 16 97 98
f 98 11 16
f 337 336 464
f 464 338 337
f 337 338 354
f 354 350 337
f 350 336 337
f 611 642 461
f 343 344 461
f 344 611 461
f 461 342 343
f 461 462 342
f 644 462 461
f 461 642 644
f 44 294 311
f 311 294 312
f 53 49 54
f 49 55 54
f 54 401 53
f 54 55 401
f 447 448 401
f 401 55 447
f 447 55 56
f 56 58 447
f 58 448 447
f 518 511 512
f 512 448 518
f 59 489 518
f 518 519 511
f 518 489 519
f 23 32 38
f 30 29 23
f 23 29 31
f 31 32 23
f 86 483 85
f 483 84 85
f 85 84 2
f 85 2 3
f 3 86 85
f 409 416 410
f 410 416 473
f 408 409 410
f 410 471 408
f 410 473 471
f 122 474 123
f 474 125 123
f 134 122 123
f 123 133 134
f 154 149 123
f 114 115 111
f 111 110 114
f 150 115 114
f 114 110 150
f 118 150 103
f 118 117 150
f 103 116 118
f 116 117 118
f 144 133 142
f 154 144 142
f 142 149 154
f 142 123 149
f 101 478 100
f 101 102 478
f 100 21 101
f 101 21 20
f 20 102 101
f 264 233 42
f 264 42 44
f 44 311 264
f 233 264 266
f 266 264 311
f 490 448 58
f 490 518 448
f 490 58 59
f 59 518 490
f 131 125 127
f 131 123 125
f 131 127 150
f 150 151 131
f 131 151 152
f 131 152 154
f 154 123 131
f 133 123 132
f 132 142 133
f 123 142 132
f 269 266 271
f 233 266 269
f 269 271 267
f 267 233 269
f 271 266 268
f 268 270 273
f 273 271 268
f 313 270 268
f 268 312 313
f 268 311 312
f 268 266 311
f 367 30 23
f 38 367 23

