# https://github.com/mikedh/trimesh
v 0.00370000 -0.05530000 0.01050000
v 0.01380000 -0.05530000 0.01050000
v 0.01400000 -0.05418320 -0.01080000
v 0.01400000 -0.04530000 -0.01080000
v 0.01400000 -0.06540457 0.00199691
v 0.01400000 -0.06556703 -0.00082339
v 0.01400000 -0.05921805 -0.00952570
v 0.01400000 -0.06286872 0.00698602
v 0.01400000 -0.06448200 0.00466700
v 0.01400000 -0.06495717 -0.00358176
v 0.01400000 -0.06362086 -0.00607069
v 0.01400000 -0.06165861 -0.00810296
v 0.01400000 -0.05809829 0.00991260
v 0.01400000 -0.06068609 0.00877953
v 0.01400000 -0.05791105 -0.01006328
v 0.01400000 -0.05608317 -0.01061406
v -0.00350000 0.01029862 -0.00016859
v -0.00350000 0.00989632 -0.00285534
v -0.00350000 0.00880555 -0.00534344
v -0.01400000 0.00131957 -0.01080000
v -0.01400000 -0.01000000 -0.01080000
v -0.01400000 0.00269297 0.00994173
v -0.01400000 0.00519859 0.00889183
v -0.01400000 0.00734256 0.00722335
v -0.01400000 0.00480000 -0.00953323
v -0.01400000 0.00710220 -0.00745981
v -0.01400000 0.00989632 -0.00285534
v -0.01400000 0.00880555 -0.00534344
v -0.01400000 0.00897573 0.00505235
v -0.01400000 0.00998447 0.00252988
v -0.01400000 0.01029862 -0.00016859
v 0.00423513 -0.04710630 -0.01160044
v 0.00556584 -0.04779856 -0.01160044
v 0.00480774 -0.04763070 -0.01160044
v 0.01199855 -0.04623416 -0.01160044
v 0.00980774 -0.04763070 -0.01160044
v 0.01183071 -0.04699225 -0.01160044
v 0.01130630 -0.04756486 -0.01160044
v 0.01056584 -0.04779856 -0.01160044
v 0.01176486 -0.04549370 -0.01160044
v 0.01600000 -0.01414120 -0.00700000
v 0.01595469 -0.01405480 -0.00729760
v 0.01585670 -0.01401506 -0.00751582
v 0.01570721 -0.01400147 -0.00770701
v 0.01080000 -0.06710000 -0.00516006
v 0.01080000 -0.06694712 -0.00592695
v 0.01080000 -0.06651188 -0.00657660
v 0.01080000 -0.06586079 -0.00700971
v 0.01080000 -0.06710000 -0.00020000
v 0.00370000 -0.06710000 -0.00020000
v 0.00370000 -0.06710000 -0.00516006
v 0.00370000 -0.06586079 -0.00700971
v 0.00370000 -0.06651188 -0.00657660
v 0.00370000 -0.06694713 -0.00592695
v 0.01373910 -0.04499385 -0.01100000
v 0.01380000 -0.04530000 -0.01100000
v 0.01380000 -0.05418320 -0.01100000
v 0.00370000 -0.05418320 -0.01100000
v 0.01380000 -0.05612195 -0.01081026
v 0.00370000 -0.05612195 -0.01081026
v 0.01380000 -0.05798712 -0.01024825
v 0.00370000 -0.05798712 -0.01024825
v 0.01380000 -0.05929413 -0.00971066
v 0.01380000 -0.06178208 -0.00826030
v 0.01380000 -0.06378243 -0.00618857
v 0.01380000 -0.06514469 -0.00365131
v 0.01380000 -0.06576639 -0.00083938
v 0.01380000 -0.06560078 0.00203569
v 0.01380000 -0.06466029 0.00475762
v 0.00370000 -0.06466029 0.00475763
v 0.01380000 -0.06301568 0.00712168
v 0.00370000 -0.06301568 0.00712168
v 0.01380000 -0.06079067 0.00895000
v 0.00370000 -0.06079067 0.00895000
v 0.01380000 -0.05815263 0.01010507
v 0.00370000 -0.05815263 0.01010507
v 0.01615442 -0.01000000 0.00919895
v 0.01615443 -0.01000000 0.00850000
v 0.01337045 -0.00999988 0.01069642
v 0.01549037 -0.00999999 0.01034036
v 0.01593538 -0.00999961 0.01009607
v 0.01611751 -0.00999976 0.00988354
v 0.01467916 -0.00999990 0.01056568
v 0.01615442 -0.01000029 0.00973225
v -0.01176486 -0.04710630 -0.00910000
v -0.00927774 -0.04427643 -0.01043539
v -0.00936901 -0.04418492 -0.01042886
v -0.00940242 -0.04405992 -0.01042646
v 0.01600000 -0.01550000 -0.00850000
v 0.01600000 -0.04480000 -0.00850000
v -0.01600000 -0.04480000 -0.00850000
v -0.01600000 -0.01000000 -0.00850000
v -0.01550000 -0.04566603 -0.00850000
v -0.01586602 -0.04530000 -0.00850000
v 0.01586603 -0.01500000 -0.00850000
v -0.01084639 -0.00966585 -0.01160044
v -0.01015362 -0.00833415 -0.01160044
v -0.01199855 -0.00906584 -0.01160044
v -0.01176486 -0.00980630 -0.01160044
v -0.01056584 -0.00750145 -0.01160044
v -0.01130630 -0.00773514 -0.01160044
v -0.01183071 -0.00830774 -0.01160044
v -0.00400145 -0.00893416 -0.01160044
v -0.00423513 -0.00819370 -0.01160044
v -0.00480774 -0.00766929 -0.01160044
v -0.00556584 -0.00750145 -0.01160044
v -0.00515362 -0.00833415 -0.01160044
v -0.01380000 -0.00000000 0.01050000
v -0.00370000 -0.00000000 0.01050000
v -0.01380000 0.00724010 -0.00760466
v -0.01380000 0.00897653 -0.00544720
v -0.01380000 0.01008848 -0.00291078
v -0.01380000 0.01049859 -0.00017187
v -0.01380000 0.01017835 0.00257900
v -0.01380000 0.00915002 0.00515046
v -0.01380000 0.00748514 0.00736361
v -0.01380000 0.00529954 0.00906449
v -0.01380000 0.00274526 0.01013477
v -0.01380000 0.00468555 -0.00978772
v -0.01380000 0.00135484 -0.01100000
v -0.01380000 -0.01000000 -0.01100000
v -0.00370000 0.00135484 -0.01100000
v -0.00370000 0.00468555 -0.00978772
v -0.00370000 0.00724010 -0.00760466
v -0.00370000 0.00897653 -0.00544720
v -0.00370000 0.01008848 -0.00291078
v -0.00370000 0.01049859 -0.00017187
v -0.00370000 0.01017835 0.00257901
v -0.00370000 0.00915002 0.00515046
v -0.00370000 0.00748514 0.00736361
v -0.00370000 0.00529954 0.00906449
v -0.00370000 0.00274526 0.01013477
v -0.01510430 -0.04860000 -0.00772437
v -0.01567212 -0.04860000 -0.00719479
v -0.01589909 -0.04860000 -0.00645225
v 0.00927774 -0.01602358 -0.01043539
v 0.00936901 -0.01611508 -0.01042885
v -0.01738445 -0.01700159 0.00850000
v -0.01744273 -0.01000000 0.00850000
v -0.01685836 -0.04800000 0.00850000
v -0.01698501 -0.04388814 0.00850000
v 0.01750199 -0.04800000 0.00850000
v 0.01738456 -0.02849062 0.00850000
v 0.01665191 -0.01490963 0.00850000
v 0.01704080 -0.01982311 0.00850000
v 0.01430443 -0.04530248 0.01144439
v -0.01675685 -0.00999998 0.01033334
v -0.01744273 -0.01000027 0.00969282
v -0.01744274 -0.01000000 0.00919895
v -0.01740585 -0.00999970 0.00985009
v -0.01718431 -0.00999938 0.01010143
v -0.01386054 -0.04800000 0.01115764
v -0.01410899 -0.04800006 0.01115424
v -0.01536204 -0.04800004 0.01102473
v -0.01618168 -0.04800001 0.01079435
v -0.01662995 -0.04800024 0.01054648
v -0.01685836 -0.04800055 0.01016623
v -0.01681945 -0.04800016 0.01032594
v 0.01750199 -0.04800000 0.00915764
v 0.01715371 -0.04799938 0.01061747
v 0.01704380 -0.04799965 0.01068178
v 0.01657981 -0.04800003 0.01087452
v 0.01572794 -0.04800000 0.01106873
v 0.01530442 -0.04800107 0.01112031
v 0.01744553 -0.04799911 0.01033933
v 0.01750049 -0.04799992 0.01017556
v 0.01750197 -0.04800000 0.01014380
v 0.01738455 -0.02849057 0.00917885
v 0.01708051 -0.02046625 0.00918757
v 0.01704078 -0.01982309 0.00918827
v 0.01741747 -0.03089968 0.00917623
v 0.01742606 -0.03202830 0.00917500
v -0.01698438 -0.04388807 0.00916211
v 0.01400331 -0.01927975 0.01170479
v 0.01360972 -0.01451417 0.01126124
v -0.01431879 -0.01852008 0.01164436
v 0.01425712 -0.02406479 0.01199642
v -0.01412088 -0.02390596 0.01198919
v -0.01411936 -0.02397900 0.01199253
v -0.01411789 -0.02405195 0.01199583
v 0.01439083 -0.02886250 0.01213505
v -0.01404286 -0.02898533 0.01213658
v -0.01403343 -0.03008290 0.01214582
v 0.01443259 -0.03366496 0.01212007
v -0.01402346 -0.03611565 0.01205315
v 0.01443104 -0.03846438 0.01195136
v -0.01402487 -0.03945948 0.01189711
v 0.00357237 -0.04430258 0.01153817
v 0.00389027 -0.04388835 0.01157504
v 0.00337238 -0.04478562 0.01149371
v -0.01400976 -0.04213979 0.01171795
v 0.00430442 -0.04357060 0.01160254
v 0.00478475 -0.04337137 0.01161944
v 0.00530442 -0.04330268 0.01162520
v 0.01230442 -0.04330268 0.01162520
v 0.01306979 -0.04345490 0.01161239
v 0.01443998 -0.04325607 0.01162910
v 0.01371864 -0.04388841 0.01157504
v 0.01415218 -0.04453719 0.01151677
v 0.01482146 -0.04787784 0.01116573
v 0.01524609 -0.04800050 0.01112565
v -0.01746364 -0.01344820 0.01013247
v -0.01738307 -0.01704160 0.01050114
v -0.01700960 -0.04209467 0.01072078
v 0.01743259 -0.03363884 0.01112026
v 0.01739039 -0.02882414 0.01113519
v 0.01725470 -0.02398962 0.01099755
v 0.01708002 -0.02046712 0.01080165
v 0.01699640 -0.01915329 0.01070796
v 0.01659532 -0.01432912 0.01026747
v 0.01736333 -0.04789551 0.01045784
v 0.01738997 -0.04317061 0.01081412
v 0.01658238 -0.01432090 0.01035437
v 0.01698388 -0.01914733 0.01079631
v 0.01742785 -0.04316270 0.01072223
v 0.01724244 -0.02398611 0.01108683
v 0.01737826 -0.02882320 0.01122489
v 0.01742048 -0.03364059 0.01121002
v 0.01741892 -0.03842126 0.01104230
v 0.01554432 -0.04324377 0.01155957
v 0.01645859 -0.04796715 0.01091538
v 0.01470869 -0.01441474 0.01118213
v 0.01510506 -0.01921069 0.01163021
v 0.01536057 -0.02402386 0.01192469
v 0.01549502 -0.02884455 0.01206464
v 0.01553695 -0.03366105 0.01204990
v 0.01553540 -0.03846205 0.01188118
v 0.01656149 -0.04321925 0.01133781
v 0.01655247 -0.03845183 0.01165875
v 0.01655404 -0.03365441 0.01182725
v 0.01651190 -0.02883005 0.01184190
v 0.01637644 -0.02399321 0.01170170
v 0.01611867 -0.01915909 0.01140666
v 0.01571861 -0.01433994 0.01095766
v 0.01722951 -0.04318707 0.01099978
v 0.01722048 -0.03843526 0.01132016
v 0.01722205 -0.03364637 0.01148825
v 0.01717981 -0.02882300 0.01150298
v 0.01704384 -0.02398165 0.01136373
v 0.01678496 -0.01913972 0.01107067
v 0.01638302 -0.01431097 0.01062476
v 0.01662119 -0.04795801 0.01086539
v 0.01704235 -0.04792900 0.01068996
v 0.01728913 -0.04790514 0.01052774
v 0.01738100 -0.03842593 0.01113428
v 0.01738256 -0.03364243 0.01130212
v 0.01734032 -0.02882266 0.01131695
v 0.01720441 -0.02398352 0.01117846
v 0.01694565 -0.01914295 0.01088704
v 0.01654385 -0.01431493 0.01044369
v 0.01736481 -0.04796695 0.01044957
v 0.01746888 -0.04794712 0.01029740
v -0.01737124 -0.01703275 0.01059134
v -0.01658510 -0.01336147 0.01083543
v -0.01725316 -0.01340424 0.01049851
v -0.01741365 -0.01342673 0.01031344
v -0.01745155 -0.01343766 0.01022184
v -0.01505441 -0.02392800 0.01194032
v -0.01548864 -0.01688653 0.01142995
v -0.01650576 -0.01694382 0.01120921
v -0.01717348 -0.01699955 0.01087035
v -0.01733357 -0.01702275 0.01068376
v -0.01595678 -0.02395444 0.01178135
v -0.01624196 -0.02396433 0.01169773
v -0.01679547 -0.02398776 0.01144340
v -0.01702864 -0.02400224 0.01123596
v -0.01505291 -0.02400050 0.01194364
v -0.01706736 -0.02414816 0.01117895
v -0.01690694 -0.02413655 0.01136524
v -0.01679252 -0.02413043 0.01144995
v -0.01623899 -0.02410782 0.01170428
v -0.01522196 -0.02407732 0.01192649
v -0.01702715 -0.02407330 0.01123927
v -0.01699740 -0.04210133 0.01081021
v -0.01695940 -0.04210789 0.01090190
v -0.01679878 -0.04212031 0.01108722
v -0.01613080 -0.04213913 0.01142498
v -0.01511397 -0.04214565 0.01164726
v -0.01702122 -0.03010903 0.01123567
v -0.01698328 -0.03010832 0.01132778
v -0.01682273 -0.03010626 0.01151393
v -0.01701133 -0.03607851 0.01114359
v -0.01697338 -0.03608184 0.01123566
v -0.01681283 -0.03608871 0.01142169
v -0.01614479 -0.03610181 0.01176051
v -0.01512774 -0.03611136 0.01198303
v -0.01615471 -0.03009978 0.01185296
v -0.01513769 -0.03009129 0.01207563
f 137 122 95
f 89 90 3
f 89 137 95
f 142 90 89
f 89 143 142
f 95 122 123
f 117 23 118
f 142 143 172
f 202 141 173
f 138 141 202
f 91 141 138
f 137 89 35
f 125 44 124
f 95 123 124
f 124 44 95
f 113 127 126
f 120 123 122
f 22 118 23
f 83 234 80
f 150 256 255
f 150 22 23
f 151 150 255
f 118 22 151
f 22 150 151
f 95 44 43
f 43 44 125
f 142 172 159
f 139 138 202
f 139 92 91
f 91 138 139
f 91 98 88
f 88 87 91
f 98 87 88
f 57 56 3
f 35 56 57
f 137 35 40
f 143 89 145
f 78 144 41
f 41 145 89
f 144 145 41
f 209 145 144
f 210 144 78
f 210 209 144
f 17 126 127
f 128 127 113
f 116 130 115
f 115 29 116
f 116 23 117
f 121 98 91
f 121 120 98
f 91 92 20
f 120 121 20
f 92 25 20
f 25 120 20
f 123 120 119
f 119 120 25
f 119 124 123
f 132 79 83
f 132 118 108
f 234 83 222
f 83 79 222
f 256 150 257
f 257 148 202
f 257 150 148
f 147 151 255
f 108 118 147
f 118 151 147
f 171 172 143
f 125 126 19
f 19 43 125
f 69 9 71
f 92 139 28
f 202 148 149
f 149 139 202
f 99 87 98
f 91 87 94
f 59 57 3
f 47 46 54
f 4 89 3
f 3 56 4
f 4 56 89
f 55 35 89
f 89 56 55
f 55 56 35
f 122 137 136
f 137 40 136
f 143 145 169
f 78 41 42
f 42 41 89
f 42 89 95
f 95 43 42
f 170 209 208
f 145 209 170
f 208 169 170
f 170 169 145
f 84 17 127
f 127 128 84
f 84 128 82
f 114 29 115
f 114 128 113
f 115 128 114
f 18 17 78
f 126 17 18
f 78 42 18
f 18 42 43
f 18 19 126
f 43 19 18
f 82 128 129
f 115 130 129
f 129 128 115
f 23 116 24
f 24 116 29
f 24 150 23
f 148 150 24
f 24 29 148
f 21 121 91
f 91 20 21
f 21 20 121
f 98 120 102
f 120 101 102
f 122 136 104
f 104 136 40
f 80 234 241
f 239 249 240
f 233 241 234
f 240 241 233
f 117 118 131
f 118 132 131
f 131 116 117
f 130 116 131
f 131 83 80
f 131 132 83
f 109 132 108
f 175 222 109
f 79 132 109
f 109 222 79
f 75 221 2
f 229 220 228
f 228 220 221
f 76 1 153
f 75 2 76
f 76 2 1
f 26 25 92
f 92 28 26
f 139 149 31
f 31 149 148
f 113 126 112
f 112 126 125
f 110 26 28
f 124 119 110
f 110 119 25
f 25 26 110
f 98 102 96
f 96 99 98
f 133 94 93
f 93 62 133
f 93 94 60
f 60 62 93
f 57 59 60
f 61 59 16
f 16 15 61
f 16 59 3
f 3 90 16
f 90 15 16
f 68 9 69
f 66 67 46
f 67 66 10
f 50 51 49
f 49 68 69
f 67 68 49
f 63 62 61
f 57 39 38
f 78 17 77
f 17 84 77
f 77 210 78
f 77 84 210
f 70 72 156
f 158 50 70
f 70 156 158
f 70 49 69
f 50 49 70
f 69 71 70
f 71 72 70
f 154 76 153
f 190 191 1
f 1 2 190
f 153 1 152
f 152 191 153
f 1 191 152
f 277 154 278
f 153 191 278
f 278 154 153
f 253 257 202
f 80 241 81
f 81 131 80
f 130 131 81
f 82 129 81
f 81 129 130
f 209 210 214
f 208 209 214
f 213 214 210
f 249 214 213
f 213 84 82
f 210 84 213
f 250 241 240
f 240 249 250
f 249 213 250
f 250 213 82
f 82 81 250
f 250 81 241
f 186 191 197
f 236 228 235
f 229 228 236
f 230 226 229
f 229 236 230
f 230 236 237
f 254 260 108
f 255 260 254
f 108 147 254
f 254 147 255
f 108 260 259
f 263 259 260
f 215 212 252
f 167 159 172
f 8 71 9
f 9 166 8
f 229 226 227
f 227 220 229
f 197 220 227
f 227 186 197
f 146 220 197
f 163 2 221
f 221 220 163
f 75 76 74
f 74 73 75
f 76 154 74
f 74 72 71
f 71 73 74
f 27 28 139
f 139 31 27
f 27 112 28
f 27 31 113
f 113 112 27
f 29 114 30
f 148 29 30
f 30 31 148
f 30 114 113
f 113 31 30
f 111 112 125
f 28 112 111
f 111 110 28
f 125 124 111
f 124 110 111
f 103 104 40
f 52 133 62
f 86 94 87
f 87 99 86
f 33 39 57
f 46 47 65
f 65 66 46
f 65 10 66
f 45 49 51
f 54 46 45
f 45 51 54
f 46 67 45
f 67 49 45
f 35 57 37
f 57 38 37
f 39 36 37
f 37 38 39
f 155 154 277
f 155 74 154
f 156 72 155
f 72 74 155
f 276 277 285
f 285 284 276
f 156 155 276
f 276 155 277
f 285 277 286
f 277 278 286
f 184 227 226
f 186 227 184
f 175 109 174
f 174 109 108
f 237 236 245
f 235 212 245
f 245 236 235
f 206 217 218
f 143 168 206
f 206 171 143
f 178 174 108
f 165 252 212
f 166 252 165
f 165 8 166
f 205 218 166
f 166 167 205
f 205 167 172
f 205 206 218
f 172 171 205
f 171 206 205
f 67 10 6
f 159 167 6
f 142 159 6
f 6 10 142
f 14 73 71
f 71 8 14
f 8 165 14
f 75 73 14
f 199 190 2
f 2 146 199
f 199 146 197
f 162 228 221
f 162 242 228
f 162 221 75
f 75 242 162
f 54 51 135
f 53 47 54
f 133 52 53
f 47 53 48
f 48 53 52
f 62 63 48
f 48 52 62
f 85 60 94
f 94 86 85
f 85 86 60
f 60 86 58
f 57 60 58
f 58 33 57
f 7 15 90
f 191 190 188
f 188 189 191
f 190 199 188
f 281 284 285
f 280 284 281
f 253 274 282
f 204 274 253
f 202 173 204
f 187 278 191
f 187 286 278
f 191 186 187
f 225 230 231
f 226 230 225
f 223 222 175
f 175 174 223
f 234 222 223
f 223 233 234
f 237 245 246
f 218 217 246
f 166 218 219
f 218 246 219
f 219 246 245
f 219 212 215
f 219 245 212
f 215 252 219
f 219 252 166
f 237 246 247
f 247 246 217
f 217 206 207
f 207 206 168
f 207 169 208
f 207 168 143
f 143 169 207
f 176 178 108
f 5 6 167
f 5 166 9
f 5 167 166
f 9 68 5
f 5 68 67
f 67 6 5
f 75 14 13
f 198 199 197
f 189 188 198
f 198 188 199
f 164 163 220
f 220 201 164
f 2 163 164
f 164 201 2
f 220 146 200
f 200 201 220
f 200 146 2
f 2 201 200
f 104 103 105
f 122 104 105
f 105 106 122
f 97 102 101
f 97 96 102
f 94 133 134
f 91 94 134
f 134 135 91
f 54 135 134
f 134 53 54
f 133 53 134
f 140 141 91
f 91 135 140
f 140 135 51
f 32 58 86
f 32 86 99
f 99 96 32
f 64 65 47
f 47 48 64
f 64 48 63
f 10 65 11
f 65 64 11
f 11 90 142
f 142 10 11
f 197 191 194
f 191 193 194
f 191 189 192
f 192 193 191
f 189 198 192
f 255 256 261
f 261 269 265
f 261 260 255
f 261 265 260
f 280 281 273
f 273 281 269
f 265 269 270
f 269 281 270
f 253 282 279
f 283 284 280
f 280 279 283
f 283 279 282
f 283 282 274
f 203 253 202
f 202 204 203
f 203 204 253
f 182 288 183
f 288 182 267
f 186 184 185
f 185 187 186
f 185 184 183
f 286 187 185
f 183 288 185
f 185 288 286
f 181 184 226
f 226 225 181
f 183 184 181
f 181 182 183
f 232 225 231
f 231 239 232
f 232 239 240
f 240 233 232
f 238 239 231
f 237 247 238
f 231 230 238
f 238 230 237
f 216 247 217
f 217 207 216
f 216 207 208
f 208 214 216
f 161 242 75
f 75 160 161
f 251 160 75
f 75 13 251
f 251 14 165
f 251 13 14
f 107 105 103
f 106 105 107
f 100 97 101
f 100 101 120
f 157 173 141
f 141 140 157
f 157 204 173
f 157 50 158
f 158 274 157
f 274 204 157
f 157 51 50
f 157 140 51
f 33 58 34
f 58 32 34
f 12 7 90
f 90 11 12
f 12 11 64
f 63 7 12
f 12 64 63
f 196 198 197
f 196 192 198
f 193 192 196
f 262 279 280
f 253 279 262
f 262 261 256
f 256 257 262
f 257 253 262
f 260 265 264
f 264 263 260
f 264 271 263
f 265 270 264
f 264 270 271
f 287 288 263
f 263 271 287
f 285 286 287
f 286 288 287
f 287 281 285
f 287 270 281
f 271 270 287
f 275 283 274
f 275 274 158
f 275 276 284
f 284 283 275
f 158 156 275
f 156 276 275
f 263 288 272
f 288 267 272
f 259 263 272
f 180 267 182
f 182 181 180
f 224 223 174
f 225 232 224
f 233 223 224
f 224 232 233
f 247 216 248
f 239 238 248
f 248 238 247
f 249 239 248
f 248 214 249
f 248 216 214
f 228 242 243
f 242 161 243
f 235 228 243
f 243 160 235
f 243 161 160
f 235 160 244
f 160 251 244
f 195 196 197
f 193 196 195
f 197 194 195
f 195 194 193
f 280 273 268
f 268 262 280
f 273 262 268
f 261 262 266
f 266 262 273
f 269 261 266
f 266 273 269
f 259 272 258
f 258 272 267
f 108 259 258
f 258 176 108
f 178 176 258
f 267 180 179
f 178 258 179
f 179 258 267
f 177 180 181
f 177 181 225
f 225 224 177
f 177 179 180
f 178 179 177
f 174 178 177
f 177 224 174
f 235 244 211
f 211 244 251
f 211 212 235
f 211 165 212
f 211 251 165
f 60 59 61
f 61 62 60
f 7 63 61
f 61 15 7
f 100 107 97
f 106 107 100
f 100 120 122
f 122 106 100
f 34 40 35
f 34 107 103
f 96 97 34
f 34 32 96
f 34 103 40
f 35 37 34
f 34 37 36
f 97 107 34
f 34 36 39
f 39 33 34

