# https://github.com/mikedh/trimesh
v 0.00096820 0.00250000 0.00114568
v 0.00084732 0.00250000 0.00123776
v 0.00084732 -0.00250000 0.00123776
v 0.00071775 -0.00250000 0.00131713
v 0.00071775 0.00250000 0.00131713
v 0.00043793 0.00250000 0.00143465
v 0.00043793 -0.00250000 0.00143465
v 0.00014017 0.00250000 0.00149344
v 0.00014017 -0.00250000 0.00149344
v -0.00016333 0.00250000 0.00149108
v -0.00016333 -0.00250000 0.00149108
v -0.00046014 0.00250000 0.00142768
v -0.00046014 -0.00250000 0.00142768
v -0.00073811 0.00250000 0.00130583
v -0.00073811 -0.00250000 0.00130583
v -0.00098586 0.00250000 0.00113052
v -0.00098586 -0.00250000 0.00113052
v -0.00119325 0.00250000 0.00090893
v -0.00119325 -0.00250000 0.00090893
v -0.00135179 0.00250000 0.00065012
v -0.00135179 -0.00250000 0.00065012
v -0.00145499 0.00250000 0.00036470
v -0.00145499 -0.00250000 0.00036470
v -0.00149862 0.00250000 0.00006435
v -0.00149862 -0.00250000 0.00006435
v -0.00148090 0.00250000 -0.00023864
v -0.00148090 -0.00250000 -0.00023864
v -0.00140254 0.00250000 -0.00053186
v -0.00140254 -0.00250000 -0.00053186
v -0.00126677 0.00250000 -0.00080330
v -0.00126677 -0.00250000 -0.00080330
v -0.00107914 0.00250000 -0.00104186
v -0.00107914 -0.00250000 -0.00104186
v -0.00084732 0.00250000 -0.00123776
v -0.00084732 -0.00250000 -0.00123776
v -0.00058082 0.00250000 -0.00138299
v -0.00058082 -0.00250000 -0.00138299
v -0.00029054 0.00250000 -0.00147159
v -0.00029054 -0.00250000 -0.00147159
v 0.00001164 0.00250000 -0.00149995
v 0.00001164 -0.00250000 -0.00149995
v 0.00031334 0.00250000 -0.00146691
v 0.00031334 -0.00250000 -0.00146691
v 0.00060221 0.00250000 -0.00137380
v 0.00060221 -0.00250000 -0.00137380
v 0.00086643 0.00250000 -0.00122446
v 0.00086643 -0.00250000 -0.00122446
v 0.00109518 0.00250000 -0.00102498
v 0.00109518 -0.00250000 -0.00102498
v 0.00127909 0.00250000 -0.00078354
v 0.00127909 -0.00250000 -0.00078354
v 0.00141063 0.00250000 -0.00051003
v 0.00141063 -0.00250000 -0.00051003
v 0.00148442 0.00250000 -0.00021563
v 0.00148442 -0.00250000 -0.00021563
v 0.00149744 0.00250000 0.00008760
v 0.00149744 -0.00250000 0.00008760
v 0.00144915 0.00250000 0.00038724
v 0.00144915 -0.00250000 0.00038724
v 0.00134154 0.00250000 0.00067102
v 0.00134154 -0.00250000 0.00067102
v 0.00117900 0.00250000 0.00092734
v 0.00117900 -0.00250000 0.00092734
v 0.00096820 -0.00250000 0.00114568
f 25 23 22
f 24 25 22
f 59 57 58
f 58 57 56
f 53 50 52
f 51 50 53
f 54 57 55
f 56 57 54
f 55 53 54
f 54 53 52
f 41 39 38
f 40 41 38
f 32 34 35
f 33 32 35
f 4 2 5
f 3 2 4
f 4 5 6
f 6 7 4
f 17 16 18
f 17 18 19
f 14 16 17
f 17 15 14
f 61 58 60
f 59 58 61
f 63 61 62
f 62 61 60
f 1 2 64
f 64 2 3
f 64 62 1
f 63 62 64
f 36 38 37
f 37 38 39
f 37 34 36
f 37 35 34
f 48 50 49
f 49 50 51
f 46 49 47
f 48 49 46
f 46 47 45
f 45 44 46
f 9 8 10
f 10 11 9
f 9 7 6
f 6 8 9
f 31 32 33
f 31 30 32
f 28 30 31
f 31 29 28
f 27 25 24
f 24 26 27
f 27 26 28
f 28 29 27
f 20 21 19
f 19 18 20
f 20 22 23
f 23 21 20
f 33 35 13
f 41 43 13
f 13 57 59
f 59 61 13
f 13 9 11
f 3 4 13
f 51 53 13
f 13 23 25
f 19 21 13
f 13 39 41
f 13 37 39
f 13 49 51
f 13 31 33
f 25 27 13
f 55 57 13
f 13 17 19
f 13 53 55
f 13 64 3
f 45 47 13
f 13 4 7
f 13 21 23
f 15 17 13
f 13 61 63
f 63 64 13
f 35 37 13
f 13 43 45
f 47 49 13
f 7 9 13
f 29 31 13
f 13 27 29
f 10 12 13
f 13 11 10
f 14 15 13
f 13 12 14
f 56 54 42
f 42 34 32
f 42 2 1
f 42 20 18
f 18 16 42
f 32 30 42
f 42 26 24
f 40 38 42
f 42 50 48
f 10 8 42
f 24 22 42
f 36 34 42
f 42 12 10
f 42 58 56
f 6 5 42
f 48 46 42
f 42 16 14
f 60 58 42
f 52 50 42
f 42 54 52
f 42 38 36
f 1 62 42
f 5 2 42
f 42 8 6
f 42 30 28
f 28 26 42
f 14 12 42
f 42 62 60
f 42 46 44
f 22 20 42
f 42 41 40
f 42 43 41
f 45 43 42
f 42 44 45

