# https://github.com/mikedh/trimesh
v -0.00104330 -0.03518577 -0.04260064
v -0.00104337 -0.03410743 -0.04364463
v -0.00050301 -0.03449259 -0.04324287
v 0.00150000 -0.03265208 -0.04465714
v -0.00104337 -0.03399030 -0.04374584
v -0.00104337 -0.03243938 -0.04490483
v -0.00104337 -0.02145932 -0.04889000
v 0.00150000 -0.02453670 -0.04810942
v -0.00104337 -0.02696806 -0.04733104
v 0.00150000 -0.02692515 -0.04748759
v -0.00104337 -0.02744470 -0.04718400
v 0.00150000 -0.02694145 -0.04748258
v -0.00104337 -0.02923035 -0.04654766
v 0.00150000 -0.02996979 -0.04629466
v -0.00104337 -0.03007781 -0.04618747
v 0.00150000 -0.03039781 -0.04607578
v -0.00104337 -0.03154032 -0.04544976
v 0.00350000 -0.04361423 0.00691810
v 0.00150000 -0.04361423 0.00691810
v 0.00150000 -0.04366551 0.00255394
v 0.00350000 -0.04348895 -0.00319293
v 0.00150000 -0.04348895 -0.00319293
v 0.00150000 -0.04296490 -0.01051805
v 0.00350000 -0.04236803 -0.01717618
v 0.00150000 -0.04236803 -0.01717618
v 0.00350000 -0.04134352 -0.02600950
v 0.00150000 -0.04168623 -0.02354873
v 0.00350000 -0.03881777 0.03661160
v 0.00350000 -0.04037218 0.03641037
v 0.00350000 -0.04345763 0.01051441
v 0.00350000 -0.04246898 0.02171489
v -0.00105469 0.04735120 0.03156099
v 0.00150000 0.04732678 0.03156703
v -0.00676579 0.04624508 0.03183173
v -0.00689997 0.04618090 0.03184726
v -0.00746539 0.04588389 0.03191891
v -0.00816482 0.04545231 0.03202229
v -0.00819939 0.04542900 0.03202785
v -0.00840641 0.04528524 0.03206208
v -0.00973290 0.04417540 0.03232315
v -0.01050711 0.04334427 0.03251496
v -0.01092630 0.04282190 0.03263389
v -0.01150000 0.04200436 0.03281753
v -0.00520232 0.04683432 0.03168821
v -0.00464056 0.04698265 0.03165182
v -0.00415487 0.04708748 0.03162605
v -0.00289782 0.04727037 0.03158097
v -0.01666416 -0.03251603 0.02688368
v -0.01573471 -0.03421746 0.02650587
v -0.01433110 -0.03357834 0.03721243
v -0.01510112 -0.03223441 0.03734749
v -0.01453857 0.04138928 0.02811392
v -0.01562244 0.03953629 0.02696048
v -0.01470017 0.04166751 0.02650587
v -0.01474092 0.03877702 0.03351279
v -0.01371771 0.04121303 0.03299239
v -0.01598295 0.03121714 0.03495797
v -0.01599517 0.03317795 0.03460764
v -0.01574512 0.03520493 0.03422750
v -0.01523811 0.03727648 0.03382001
v -0.01474892 0.03930326 0.03221286
v -0.01589682 0.02396203 0.03610657
v -0.01566992 0.02601636 0.03580480
v -0.01751699 0.01573368 0.03713116
v -0.01726731 0.01783410 0.03689750
v -0.01701006 0.01911173 0.03674604
v -0.01622355 0.02236530 0.03632839
v -0.01730632 0.01185238 0.03751295
v -0.01751809 0.01365374 0.03734381
v -0.01670034 0.00924805 0.03773289
v -0.01650000 0.00849120 0.03779136
v -0.01764025 -0.00328517 0.03838672
v -0.01724612 -0.00114468 0.03832235
v -0.01773861 -0.00659972 0.03844807
v -0.01776767 -0.00550402 0.03843294
v -0.01687591 -0.01204419 0.03844777
v -0.01745542 -0.00921356 0.03846360
v -0.01587960 -0.03046713 0.03751327
v -0.01635288 -0.02874541 0.03766190
v -0.01648734 -0.02777144 0.03774036
v -0.01650000 -0.02614363 0.03786243
v -0.01511994 0.03957562 0.02956689
v -0.01585185 0.03748431 0.02975695
v -0.01646852 0.03524363 0.02975426
v -0.01695485 0.03288174 0.02960954
v -0.01573377 0.02823394 0.03545829
v -0.01650000 0.00145212 0.03821814
v -0.01850995 -0.02483384 0.02593350
v -0.01815400 -0.02751576 0.02638184
v -0.01797676 -0.02844986 0.02654885
v -0.01784318 -0.02905181 0.02665075
v -0.01754835 -0.03016551 0.02681112
v -0.01709127 -0.03151291 0.02691405
v -0.01688937 -0.03201098 0.02691311
v -0.01859915 -0.02385661 0.02580608
v -0.01878683 -0.02091067 0.02556886
v -0.01650000 -0.01360841 0.03842445
v -0.01891038 -0.01727746 0.02547669
v -0.01891829 -0.01691510 0.02547538
v -0.01668360 0.03621779 0.02706555
v -0.01741502 0.03308688 0.02682278
v -0.01769983 0.03157599 0.02664760
v -0.01822979 0.02804694 0.02619401
v -0.01863754 0.02413011 0.02576171
v -0.01901591 0.01671693 0.02546970
v -0.01905371 0.01462665 0.02548137
v -0.01650000 -0.02589479 0.03788009
v -0.01650000 0.00446763 0.03806116
v -0.01150000 -0.03469984 0.03709378
v -0.01101424 -0.03518016 0.03704131
v -0.01006693 -0.03599745 0.03694972
v -0.00179461 -0.03886991 0.03660495
v -0.00985833 -0.03615890 0.03693129
v -0.00830933 -0.03717961 0.03681216
v -0.00665951 -0.03796606 0.03671729
v -0.00558149 -0.03833431 0.03667194
v -0.00373267 -0.03873105 0.03662243
v -0.00104337 0.05008850 0.01347075
v -0.00104337 0.05018023 0.00744754
v -0.00320913 0.04993329 0.01095760
v -0.01330478 0.04199641 0.03281930
v -0.01133354 0.04488494 0.03135968
v -0.01251393 0.04336309 0.03209690
v -0.00104337 0.04953694 0.02372132
v -0.00104337 0.04981712 0.01948855
v -0.00296403 0.04964064 0.02020638
v -0.00477441 0.04876690 0.02852134
v -0.00484329 0.04851502 0.03127001
v -0.00298982 0.04881084 0.03119505
v -0.00104321 0.04889625 0.03117333
v -0.00564554 0.04830639 0.03132264
v -0.00672395 0.04844517 0.02560633
v -0.00732638 0.04767786 0.03147995
v -0.00839770 0.04751555 0.02785924
v -0.00887830 0.04682232 0.03169115
v -0.00932670 0.04651663 0.03176579
v -0.01074640 0.04533722 0.03204972
v -0.01221531 0.04367363 0.03243932
v -0.01200524 0.04394695 0.03237619
v -0.00444782 0.04970134 0.01293882
v -0.00491277 0.04914637 0.02304795
v -0.00612274 0.04925387 0.01557094
v -0.01438200 0.04203252 0.02705254
v -0.01414776 0.04250376 0.02675622
v -0.01359770 0.04359706 0.02561399
v -0.01384010 0.04300260 0.02660742
v -0.01328137 0.04405925 0.02530614
v -0.01273988 0.04477553 0.02473749
v -0.01225622 0.04534580 0.02419142
v -0.01162318 0.04600769 0.02343119
v -0.01081226 0.04673737 0.02239507
v -0.00961826 0.04761568 0.02076963
v -0.00860525 0.04821365 0.01931875
v -0.00750971 0.04873800 0.01769313
v 0.00023595 0.03152928 -0.04528358
v 0.00150000 0.02960288 -0.04634712
v 0.00023595 0.02966627 -0.04631527
v 0.00150000 0.02703870 -0.04741353
v 0.00023595 0.02770126 -0.04713707
v 0.00150000 0.02564821 -0.04783914
v 0.00023595 0.05018712 0.00705187
v 0.00150000 0.05019391 0.00666093
v 0.00150000 0.05002335 0.00033820
v -0.00104337 0.04552843 -0.02511960
v 0.00023595 0.04840021 -0.01415868
v -0.00104337 0.04761206 -0.01811980
v -0.00104337 0.04625571 -0.02301778
v -0.00104337 0.04692091 -0.02081568
v -0.00104337 0.04721750 -0.01971901
v 0.00023595 0.04906913 -0.00994942
v -0.00104337 0.04911099 -0.00967255
v -0.00104337 0.04973225 -0.00379931
v -0.00104337 0.04807857 -0.01596975
v -0.00104337 0.04866676 -0.01271420
v -0.00104337 0.04903185 -0.01026294
v -0.00104337 0.02160947 -0.04889000
v -0.00104337 0.02597415 -0.04763132
v -0.00104337 0.02774020 -0.04708254
v -0.00104337 0.02974039 -0.04627843
v -0.00104337 0.04335536 -0.03024153
v -0.00104337 0.04209097 -0.03272195
v -0.00104337 0.03118233 -0.04553394
v -0.00104337 0.03292317 -0.04439706
v -0.00104337 0.03338181 -0.04404749
v -0.00104337 0.03582794 -0.04178608
v -0.00104337 0.03646980 -0.04107653
v -0.00104337 0.05006294 0.00168581
v -0.00104337 0.04992165 -0.00112996
v -0.00104337 0.04390898 -0.02905811
v -0.00104337 0.04474421 -0.02713010
v -0.00104337 0.04507678 -0.02630474
v 0.00150000 0.04741950 -0.01853261
v 0.00150000 0.04929285 -0.00821607
v 0.00150000 0.04989693 -0.00180109
v -0.02006666 0.01053685 0.01598368
v -0.00802675 -0.04106160 0.01775545
v -0.01000165 -0.03990691 0.02040301
v -0.00985874 -0.04058417 0.01467713
v -0.02020342 0.00125755 0.01621842
v -0.02299254 -0.00367560 -0.03057843
v -0.02256822 -0.00864586 -0.03060483
v -0.02234208 -0.00891584 -0.02161357
v -0.01820751 0.03207918 0.02183349
v -0.01852034 0.03242087 0.01721943
v -0.01900799 0.02825604 0.01661015
v -0.01483445 0.04404613 0.01627750
v -0.01561772 0.04277914 0.01696699
v -0.01630396 0.04136270 0.01742775
v -0.01076704 0.04773291 0.01138832
v -0.00952641 0.04833926 0.00967560
v -0.00976547 0.04826698 0.00545055
v -0.00649820 0.04929610 0.01029450
v -0.00290636 0.04523671 -0.02548966
v -0.00273693 0.04444406 -0.02764156
v -0.00499378 0.04483098 -0.02583826
v -0.00104337 -0.04352747 -0.00121473
v -0.00104337 -0.04360713 0.00320484
v -0.00385285 -0.04299626 0.00616390
v -0.00382067 0.04941811 -0.00287063
v -0.00372762 0.04968283 0.00111731
v -0.00371684 0.04829114 -0.01275690
v -0.00343139 0.04725897 -0.01829099
v -0.00187263 0.03431468 -0.04312368
v -0.01216746 0.01713970 -0.04889000
v -0.01273120 0.01666538 -0.04889000
v -0.01346023 0.01595146 -0.04889000
v -0.01473481 0.01436222 -0.04889000
v -0.01585111 0.01262976 -0.04889000
v -0.01692667 0.01067858 -0.04889000
v -0.01744470 0.00961442 -0.04889000
v -0.01977453 0.00164246 -0.04889000
v -0.01983512 0.00084226 -0.04889000
v -0.00933359 -0.01891500 -0.04889000
v -0.00823914 -0.01949783 -0.04889000
v -0.00507661 -0.02073914 -0.04889000
v -0.00163972 -0.03197190 -0.04490164
v -0.00138098 -0.03575883 -0.04184612
v -0.00150000 -0.03639283 -0.04100950
v -0.00162803 -0.03637538 -0.04099032
v -0.00150000 -0.03681934 -0.04040902
v -0.00150000 -0.03790885 -0.03857588
v -0.00174809 -0.03800135 -0.03832667
v -0.01302759 0.03830499 -0.02636550
v -0.01307132 0.03831656 -0.02617729
v -0.01271802 0.03886385 -0.02621206
v -0.01356629 -0.03780037 -0.01189000
v -0.01406313 -0.03725899 -0.01152037
v -0.01346357 -0.03720912 -0.01531309
v -0.01049229 -0.04055803 -0.01061429
v -0.01067273 -0.04041344 -0.01099156
v -0.00877136 -0.04124266 -0.01248371
v -0.01070397 -0.03962058 0.01978093
v -0.01071440 -0.03961840 0.01975377
v -0.01087905 -0.03956785 0.01945231
v -0.01128750 -0.03939963 0.01901438
v -0.01467347 -0.03752276 0.01557376
v -0.01461345 -0.03722396 0.01801962
v -0.01630864 -0.03551650 0.01700254
v -0.01517884 -0.03664625 0.01824455
v -0.01555305 -0.03618218 0.01861897
v -0.01573299 -0.03590507 0.01901018
v -0.01580863 -0.03572783 0.01947710
v -0.01577189 -0.03567682 0.01997743
v -0.01543664 -0.03467334 0.02631403
v -0.01557456 -0.03579320 0.02058239
v -0.01523061 -0.03607718 0.02109962
v -0.01465056 -0.03657865 0.02156082
v -0.01446823 -0.03673388 0.02165083
v -0.01175852 -0.03917426 0.01867947
v -0.01237581 -0.03884239 0.01836577
v -0.01229876 -0.03896547 0.01779972
v -0.01334230 -0.03823707 0.01806001
v -0.01260155 -0.03931017 0.01327692
v -0.01369166 -0.03798772 0.01800118
v -0.01451034 -0.03731869 0.01800125
v -0.01069023 -0.04054086 -0.00955724
v -0.01049918 -0.04061605 -0.00994394
v -0.00962461 -0.04130501 -0.00558117
v -0.01048168 -0.04062053 -0.01000467
v -0.01044441 -0.04061658 -0.01028114
v -0.01319326 -0.03880326 -0.00817565
v -0.01293185 -0.03904364 -0.00820923
v -0.01203472 -0.04015072 -0.00317978
v -0.01213584 -0.03968010 -0.00845630
v -0.01188310 -0.03985651 -0.00857601
v -0.01115180 -0.04030624 -0.00905701
v -0.01433146 -0.03747839 -0.00854211
v -0.01389038 -0.03806041 -0.00825594
v -0.01565887 -0.03684555 -0.00033447
v -0.01381102 -0.03815405 -0.00823002
v -0.01405487 -0.03865587 -0.00141909
v -0.01438090 -0.03691945 -0.01108646
v -0.01486074 -0.03525326 -0.01504026
v -0.01441974 -0.03688003 -0.01101455
v -0.01464156 -0.03668489 -0.01042450
v -0.01587428 -0.03512544 -0.00792924
v -0.01458737 -0.03706151 -0.00894471
v -0.01461313 -0.03715508 -0.00825663
v -0.01471757 -0.03676735 -0.00949020
v -0.01471159 -0.03666271 -0.01003827
v -0.01348739 -0.03788507 -0.01192678
v -0.01190660 -0.03942628 -0.01191272
v -0.01265351 -0.03873829 -0.01207153
v -0.01181056 -0.03882035 -0.01601274
v -0.01284007 -0.03855481 -0.01207228
v -0.01100597 -0.04016021 -0.01137210
v -0.01111579 -0.04007554 -0.01146560
v -0.00991403 -0.04008438 -0.01713436
v -0.01176449 -0.03954871 -0.01185540
v -0.01323248 0.03784113 -0.02665501
v -0.01335592 0.03723665 -0.02757023
v -0.01326230 0.03715228 -0.02811536
v -0.01413832 0.03475635 -0.03027831
v -0.01261876 0.03757790 -0.02935853
v -0.01249403 0.03729407 -0.03032655
v -0.01300668 0.03726102 -0.02878119
v -0.01324021 0.03715300 -0.02819502
v -0.01009076 0.04064861 -0.02939461
v -0.01003265 0.04089041 -0.02901544
v -0.00915811 0.04065451 -0.03105864
v -0.01024714 0.04034276 -0.02969486
v -0.01082957 0.03927127 -0.03057144
v -0.01113881 0.03915220 -0.03011231
v -0.01061478 0.03980524 -0.02999374
v -0.01008950 0.04103804 -0.02859105
v -0.01029587 0.04108098 -0.02806272
v -0.00988754 0.04196314 -0.02698410
v -0.01049215 0.04103328 -0.02772984
v -0.01104020 0.04073747 -0.02706023
v -0.01113157 0.04067195 -0.02697049
v -0.01152202 0.04043718 -0.02644161
v -0.01244369 0.03774274 -0.02954228
v -0.01190712 0.03829034 -0.02992392
v -0.01123695 0.03903700 -0.03011009
v -0.00127340 -0.03552398 -0.04215329
v -0.00158852 -0.03438796 -0.04317081
v -0.00150599 -0.02142270 -0.04889000
v -0.00369928 -0.02108887 -0.04889000
v -0.00724568 -0.01995644 -0.04889000
v -0.01264260 -0.01657521 -0.04889000
v -0.01102495 -0.01784194 -0.04889000
v -0.01329435 -0.01594882 -0.04889000
v -0.01395633 -0.01521068 -0.04889000
v -0.01505511 -0.01373250 -0.04889000
v -0.01655558 -0.01126172 -0.04889000
v -0.01764443 -0.00909285 -0.04889000
v -0.01920471 -0.00476304 -0.04889000
v -0.01853135 -0.00692196 -0.04889000
v -0.01984608 -0.00058665 -0.04889000
v -0.01965099 -0.00261801 -0.04889000
v -0.01940108 0.00396179 -0.04889000
v -0.01872995 0.00638903 -0.04889000
v -0.01852259 0.00699228 -0.04889000
v -0.01011956 0.01857793 -0.04889000
v -0.00224624 0.02151634 -0.04889000
v -0.00191365 0.03663181 -0.04091951
v -0.00202031 0.03878614 -0.03825941
v -0.00243405 0.04271011 -0.03161202
v -0.00384537 0.04909408 -0.00644217
v -0.00357052 0.04986315 0.00571332
v -0.00104337 -0.04324941 -0.00640742
v -0.00104337 -0.04347133 -0.00259664
v -0.00398652 -0.04291288 -0.00230175
v -0.00395139 -0.04299695 0.00163615
v -0.00722190 -0.04208349 0.00626231
v -0.00104337 -0.04299633 -0.00972635
v -0.00395781 -0.04278807 -0.00584377
v -0.00104337 -0.04297079 -0.01003756
v -0.00373933 -0.04249158 -0.01216439
v -0.00104337 -0.04220708 -0.01884560
v -0.00338176 -0.04214724 -0.01778314
v -0.00297176 -0.04171165 -0.02284957
v -0.00149402 -0.04097492 -0.02882017
v -0.00130707 -0.04113366 -0.02795102
v -0.00257268 -0.04112764 -0.02742618
v -0.00104338 -0.04122699 -0.02741851
v -0.00104337 -0.04177272 -0.02324472
v -0.00150000 -0.03883649 -0.03656484
v -0.00150000 -0.03904077 -0.03604840
v -0.00194699 -0.03931214 -0.03517205
v -0.00150000 -0.03992511 -0.03339156
v -0.00222423 -0.04034236 -0.03153455
v -0.00150000 -0.04063431 -0.03054524
v -0.00150000 -0.04094003 -0.02900950
v -0.00308263 0.04597268 -0.02321978
v -0.00326008 0.04664768 -0.02082381
v -0.00562514 0.04619796 -0.02093574
v -0.00219334 0.04081369 -0.03515228
v -0.00444035 0.04326003 -0.03012713
v -0.00400013 0.04151593 -0.03384216
v -0.00634950 0.04334113 -0.02884725
v -0.00575527 0.04174483 -0.03271151
v -0.00816430 0.04291997 -0.02779279
v -0.00747064 0.04146836 -0.03177783
v -0.01241363 0.04140700 -0.02139175
v -0.01081436 0.04307860 -0.02203736
v -0.00903978 0.04418318 -0.02301066
v -0.00709716 0.04475566 -0.02428613
v -0.01346335 0.04217450 -0.01533708
v -0.01381936 0.04377056 -0.00871802
v -0.01188743 0.04399295 -0.01613984
v -0.01298759 0.04467932 -0.00929228
v -0.01004446 0.04524504 -0.01736263
v -0.01106395 0.04607633 -0.01084010
v -0.00795139 0.04596773 -0.01897231
v -0.00881381 0.04694559 -0.01288449
v -0.00626151 0.04732662 -0.01538245
v -0.00912425 0.04833135 0.01423215
v -0.00679034 0.04921542 0.00572099
v -0.00696421 0.04905195 0.00160637
v -0.00983209 0.04812853 0.00144753
v -0.00701225 0.04882500 -0.00219683
v -0.00974072 0.04792825 -0.00238273
v -0.01475429 0.04412922 -0.00089945
v -0.01390489 0.04510961 -0.00160745
v -0.01190271 0.04665009 -0.00352096
v -0.00951895 0.04766555 -0.00605294
v -0.00678114 0.04819842 -0.00914954
v -0.01456038 0.04271504 -0.00828402
v -0.01520814 0.04150829 -0.00799482
v -0.01613305 0.04172216 -0.00001357
v -0.01549795 0.04300166 -0.00036627
v -0.01661159 0.04167110 0.00855668
v -0.01596173 0.04302131 0.00814122
v -0.01476393 0.03976180 -0.01497388
v -0.01520088 0.04421993 0.00751340
v -0.01216860 0.04683737 0.00038607
v -0.01420125 0.04522420 0.00247811
v -0.01228013 0.04695933 0.00442756
v -0.01433160 0.04527203 0.00667991
v -0.01220351 0.04701651 0.00859542
v -0.01425742 0.04525384 0.01097450
v -0.01192012 0.04700641 0.01291335
v -0.01343276 0.04501323 0.01991017
v -0.01784082 0.03630973 0.01766696
v -0.01744486 0.03599592 0.02225600
v -0.01642318 0.03953174 0.02224140
v -0.01689728 0.03980245 0.01767515
v -0.01713847 0.04001818 0.01319664
v -0.01801473 0.03657883 0.01317313
v -0.01798854 0.03679450 0.00874318
v -0.01143900 0.04692002 0.01745959
v -0.01395579 0.04516901 0.01536641
v -0.01383514 0.03914179 -0.02108881
v -0.01228672 0.03949684 -0.02623842
v -0.01172066 0.04015490 -0.02650223
v -0.02209614 0.01109904 -0.03062651
v -0.02256866 0.00645001 -0.02159446
v -0.01875786 0.02790632 0.02124693
v -0.01990192 0.01507194 0.01587682
v -0.01967187 0.01953787 0.01589200
v -0.01937570 0.02393502 0.01611549
v -0.01715680 0.04017428 0.00877416
v -0.01666680 0.04029505 0.00017085
v -0.01576939 0.04015400 -0.00784066
v -0.02273848 0.00626984 -0.03059423
v -0.02305239 0.00132644 -0.03057269
v -0.02291650 0.00136355 -0.02156071
v -0.02283190 -0.00378973 -0.02157060
v -0.02225668 -0.00375025 -0.00879711
v -0.02181704 -0.01347583 -0.03063318
v -0.01630589 -0.02926443 -0.03042058
v -0.01078624 -0.03607204 -0.03054501
v -0.00894540 -0.03750031 -0.03099034
v -0.00970711 -0.03812464 -0.02690371
v -0.01148502 -0.03664720 -0.02641784
v -0.01067781 -0.03856674 -0.02193727
v -0.01238898 -0.03703058 -0.02136904
v -0.01394855 -0.03513309 -0.02113481
v -0.01320886 -0.03479012 -0.02620615
v -0.01265482 -0.03424358 -0.03034228
v -0.00882567 -0.03974541 -0.02283832
v -0.00788367 -0.03922954 -0.02766499
v -0.00713873 -0.03853482 -0.03168036
v -0.00779483 -0.04099305 -0.01865981
v -0.00684748 -0.04056570 -0.02406097
v -0.00602310 -0.03996523 -0.02869499
v -0.00536856 -0.03917919 -0.03261043
v -0.01767019 -0.03229603 -0.00007185
v -0.01486933 -0.03251709 -0.02620601
v -0.01451257 -0.03198704 -0.03032732
v -0.02234095 0.00135060 -0.00877743
v -0.02106298 -0.00357980 0.00732135
v -0.02181840 -0.00882406 -0.00887638
v -0.02084664 -0.00843119 0.00720114
v -0.02009103 -0.00820946 0.01605916
v -0.02110983 0.00129302 0.00735239
v -0.02097049 0.00611312 0.00726490
v -0.02203752 0.00639202 -0.00883674
v -0.01950658 -0.02129865 0.01597314
v -0.01975221 -0.01722378 0.01586690
v -0.01921457 -0.02494560 0.01632819
v -0.01884752 -0.02811610 0.01689956
v -0.01683380 -0.03473782 0.00006098
v -0.01748119 -0.03411066 0.00864853
v -0.01014286 -0.04117519 0.00195275
v -0.01020582 -0.04103613 0.00595235
v -0.00724056 -0.04216759 -0.00160912
v -0.00685075 -0.04209366 -0.00858784
v -0.00620943 -0.04188823 -0.01490307
v -0.00547379 -0.04153819 -0.02057093
v -0.00475817 -0.04102674 -0.02559400
v -0.00413381 -0.04033506 -0.02998707
v -0.00363720 -0.03943709 -0.03377588
v -0.01632759 -0.03628263 0.00817650
v -0.01471033 -0.03820110 0.00688807
v -0.01264077 -0.03984249 0.00479932
v -0.01825798 -0.03164630 0.00849443
v -0.01758729 -0.03372756 0.01306722
v -0.01642088 -0.03591922 0.01255726
v -0.01479316 -0.03788626 0.01118552
v -0.01271427 -0.03960327 0.00896895
v -0.01719074 -0.03290430 0.02211737
v -0.01749826 -0.03331801 0.01754594
v -0.01804146 -0.03050130 0.02200696
v -0.01831002 -0.03087902 0.01740865
v -0.01879091 -0.02882132 0.00800127
v -0.00728937 -0.04215071 0.00218052
v -0.01011149 -0.04084249 0.01015783
v -0.00104337 -0.04353267 0.00762465
v -0.00347932 -0.04290517 0.01125304
v -0.00703831 -0.04194044 0.01078347
v -0.00585083 -0.04206681 0.01469925
v -0.00675839 -0.04167772 0.01598850
v -0.00328040 -0.03829269 -0.03699634
v -0.00489795 -0.03816682 -0.03588333
v -0.00660333 -0.03762359 -0.03499239
v -0.00839915 -0.03666285 -0.03432830
v -0.01028799 -0.03528446 -0.03389583
v -0.01226521 -0.03348630 -0.03369338
v -0.01426958 -0.03125103 -0.03366964
v -0.01621331 -0.02855415 -0.03374993
v -0.01800847 -0.02537113 -0.03385947
v -0.01957267 -0.02168718 -0.03393064
v -0.02086765 -0.01756533 -0.03395288
v -0.00824913 0.01966611 -0.04889000
v -0.00630611 0.02053525 -0.04889000
v -0.00430023 0.02115476 -0.04889000
v -0.01312720 0.02553281 -0.04285930
v -0.01473157 0.02375234 -0.04289968
v -0.01626848 0.02157506 -0.04297818
v -0.01769532 0.01896433 -0.04304720
v -0.01897096 0.01592377 -0.04307885
v -0.02005699 0.01253075 -0.04308126
v -0.02091531 0.00887053 -0.04306642
v -0.02150781 0.00502836 -0.04304630
v -0.02179639 0.00108948 -0.04303289
v -0.02174737 -0.00286143 -0.04303653
v -0.02136618 -0.00674492 -0.04305304
v -0.02067850 -0.01048423 -0.04307076
v -0.01971017 -0.01400260 -0.04307793
v -0.01848704 -0.01722329 -0.04306281
v -0.01703504 -0.02006976 -0.04301378
v -0.01539288 -0.02249825 -0.04293881
v -0.01362603 -0.02453354 -0.04288683
v -0.01180331 -0.02620904 -0.04291191
v -0.00306945 -0.03259133 -0.04377478
v -0.00298745 -0.03498154 -0.04193027
v -0.00459395 -0.03273813 -0.04282056
v -0.00450130 -0.03509663 -0.04088365
v -0.00622045 -0.03243415 -0.04204734
v -0.00613756 -0.03474708 -0.04003859
v -0.00795619 -0.03170126 -0.04146347
v -0.00790371 -0.03394678 -0.03940275
v -0.00980839 -0.03056129 -0.04107732
v -0.00980725 -0.03270958 -0.03898376
v -0.01177553 -0.02903313 -0.04089139
v -0.01184588 -0.03104750 -0.03878300
v -0.01378774 -0.02711240 -0.04086240
v -0.01394097 -0.02895816 -0.03875292
v -0.01574310 -0.02478384 -0.04092567
v -0.01597807 -0.02643241 -0.03882303
v -0.01753950 -0.02203211 -0.04101633
v -0.01784251 -0.02346106 -0.03892268
v -0.01908232 -0.01884932 -0.04107572
v -0.01942869 -0.02004228 -0.03898798
v -0.02033670 -0.01528693 -0.04109430
v -0.02070293 -0.01623284 -0.03900857
v -0.02129634 -0.01142474 -0.04108601
v -0.02166603 -0.01211754 -0.03899971
v -0.02195514 -0.00734277 -0.04106496
v -0.02231895 -0.00778136 -0.03897683
v -0.02230696 -0.00312102 -0.04104525
v -0.02266268 -0.00330927 -0.03895536
v -0.02234578 0.00116053 -0.04104090
v -0.02269824 0.00121380 -0.03895063
v -0.02207400 0.00542252 -0.04105694
v -0.02243095 0.00570784 -0.03896815
v -0.02151034 0.00958683 -0.04108100
v -0.02187438 0.01010235 -0.03899443
v -0.02067539 0.01357548 -0.04109876
v -0.02104305 0.01432791 -0.03901382
v -0.01958974 0.01731050 -0.04109588
v -0.01995148 0.01831508 -0.03901066
v -0.01827396 0.02071391 -0.04105802
v -0.01861420 0.02199446 -0.03896932
v -0.01675162 0.02371289 -0.04097546
v -0.01704966 0.02529943 -0.03887914
v -0.01507427 0.02628296 -0.04088152
v -0.01531306 0.02818963 -0.03877641
v -0.01330873 0.02842602 -0.04083306
v -0.01347969 0.03063905 -0.03872298
v -0.01152199 0.03014424 -0.04088718
v -0.01162505 0.03262183 -0.03878102
v -0.00978085 0.03143983 -0.04110084
v -0.00982447 0.03411217 -0.03901252
v -0.00812491 0.03231619 -0.04151029
v -0.00812353 0.03509719 -0.03945692
v -0.00653545 0.03277945 -0.04210736
v -0.00650415 0.03559163 -0.04010535
v -0.00498621 0.03283608 -0.04287817
v -0.00494007 0.03561383 -0.04094270
v -0.00345096 0.03249253 -0.04380884
v -0.00340499 0.03518207 -0.04195385
v -0.00190345 0.03175528 -0.04488549
v -0.00368286 0.03960975 -0.03702332
v -0.00348539 0.03751981 -0.03971168
v -0.00532631 0.03996111 -0.03595564
v -0.00505659 0.03794675 -0.03866792
v -0.00696971 0.03981039 -0.03507257
v -0.00665115 0.03788692 -0.03780389
v -0.00863212 0.03912774 -0.03439032
v -0.00829296 0.03731459 -0.03713528
v -0.01033260 0.03788331 -0.03392510
v -0.01000593 0.03620403 -0.03667776
v -0.01208449 0.03605414 -0.03368645
v -0.01180637 0.03453523 -0.03644054
v -0.01385664 0.03367054 -0.03363208
v -0.01365196 0.03233221 -0.03638272
v -0.01559713 0.03078771 -0.03369551
v -0.01547293 0.02963957 -0.03643999
v -0.01725394 0.02746097 -0.03381012
v -0.01719937 0.02650206 -0.03654789
v -0.01876155 0.02296446 -0.03664225
v -0.02011525 0.01969741 -0.03395513
v -0.02010654 0.01907717 -0.03668551
v -0.02121218 0.01490095 -0.03668882
v -0.00306325 -0.03683919 -0.03969495
v -0.00460892 -0.03684855 -0.03860683
v -0.00627098 -0.03640960 -0.03773209
v -0.00805534 -0.03552851 -0.03707684
v -0.00996794 -0.03421145 -0.03664723
v -0.01200547 -0.03246297 -0.03644303
v -0.01409281 -0.03027543 -0.03641460
v -0.01612110 -0.02763537 -0.03648907
v -0.01798130 -0.02452932 -0.03659343
v -0.01957262 -0.02095207 -0.03666165
v -0.02086011 -0.01696404 -0.03668316
v -0.02184030 -0.01265709 -0.03667391
v -0.02250993 -0.00812326 -0.03665002
v -0.02286573 -0.00345459 -0.03662761
v -0.02290450 0.00125697 -0.03662271
v -0.02263002 0.00592902 -0.03664105
v -0.02205963 0.01049762 -0.03666854
v 0.00150000 0.04984225 0.01893616
v 0.00150000 0.04887266 0.03117933
v 0.00150000 0.05011170 0.01283809
v -0.00323930 -0.04211581 0.02203023
v -0.00315004 -0.04131247 0.02922817
v -0.00527551 -0.04060324 0.03145084
v -0.01087181 -0.03729469 0.03679844
v -0.01057454 -0.03753804 0.03659306
v -0.00923822 -0.03839899 0.03666392
v -0.00899240 -0.03869796 0.03514475
v -0.00722451 -0.03972571 0.03342686
v -0.01313653 -0.03515933 0.03704360
v -0.01171218 -0.03659838 0.03688055
v -0.00436674 -0.04018885 0.03643465
v -0.00630248 -0.03971365 0.03649688
v -0.00750042 -0.03927069 0.03655399
v -0.00104337 -0.04146802 0.02940536
v -0.00104335 -0.04040979 0.03640538
v -0.00235420 -0.04040431 0.03640611
v -0.00104337 -0.04239713 0.02216882
v -0.00104337 -0.04272184 0.01917105
v -0.00104337 -0.04311055 0.01490797
v -0.00543469 -0.04129221 0.02481929
v -0.00745183 -0.04030848 0.02729657
v -0.00096493 -0.04124188 -0.02729949
v 0.00150000 -0.04149042 0.02920759
v 0.00150000 -0.04037218 0.03641038
v 0.00150000 -0.04246898 0.02171489
v 0.00150000 -0.04319510 0.01437296
v 0.00150000 -0.04345763 0.01051441
v 0.00350000 -0.02141287 -0.04889000
v 0.00350000 0.02155289 -0.04889000
v -0.01150000 -0.00180399 0.03834425
v -0.01150000 -0.01071649 0.03845942
v -0.01150000 0.01005313 0.03766800
v -0.01150000 0.02186122 0.03639611
v -0.01150000 0.00446763 0.03806116
v -0.01150000 0.03359037 0.03453178
v 0.00350000 0.04887283 0.03117918
v 0.00350000 0.04732678 0.03156703
v -0.01150000 -0.01368012 0.03842314
v -0.01150000 -0.02554518 0.03790446
v -0.01073463 -0.00180884 0.03819209
v -0.01073463 0.01004064 0.03751627
v 0.00350000 -0.03345690 -0.04400950
v 0.00350000 -0.03039781 -0.04607578
v 0.00350000 -0.02694145 -0.04748258
v 0.00350000 0.05019391 0.00666093
v 0.00350000 0.04984225 0.01893616
v 0.00350000 0.04812503 -0.01546396
v 0.00350000 0.02703870 -0.04741353
v 0.00350000 0.03057095 -0.04582587
v 0.00350000 0.03388973 -0.04339856
v 0.00350000 0.03670952 -0.04042064
v 0.00350000 0.04015398 -0.03557124
v 0.00350000 0.04360954 -0.02918918
v 0.00350000 0.04628052 -0.02245613
v 0.00350000 0.05002335 0.00033820
v 0.00350000 0.04929285 -0.00821607
f 28 694 691
f 28 696 78
f 534 508 535
f 699 26 378
f 28 78 51
f 4 700 699
f 535 508 461
f 451 450 104
f 204 205 449
f 449 203 204
f 449 103 203
f 104 103 449
f 449 205 452
f 449 451 104
f 452 451 449
f 104 450 105
f 486 96 98
f 483 96 486
f 162 702 187
f 687 688 28
f 97 107 696
f 436 203 101
f 683 31 675
f 28 116 663
f 28 114 115
f 115 116 28
f 115 663 116
f 534 647 533
f 109 51 50
f 50 666 109
f 109 666 110
f 109 110 28
f 28 51 109
f 696 107 81
f 81 80 696
f 81 107 77
f 79 78 696
f 696 80 79
f 88 80 95
f 492 88 95
f 270 663 662
f 654 447 637
f 637 590 654
f 578 579 577
f 577 579 550
f 586 584 652
f 457 653 652
f 652 653 586
f 492 460 484
f 460 459 484
f 517 461 508
f 201 459 200
f 448 205 204
f 204 203 435
f 435 203 436
f 453 454 637
f 487 105 195
f 195 105 450
f 106 105 487
f 50 51 49
f 491 96 483
f 491 95 96
f 99 486 98
f 487 483 199
f 483 486 199
f 199 106 487
f 710 709 181
f 405 407 387
f 406 407 405
f 637 454 635
f 712 187 702
f 142 140 212
f 142 141 140
f 120 118 119
f 119 118 657
f 657 702 162
f 703 702 657
f 657 118 703
f 28 691 697
f 697 687 28
f 691 687 697
f 76 688 77
f 77 107 76
f 107 97 76
f 695 97 696
f 695 696 28
f 28 688 695
f 688 76 695
f 695 76 97
f 87 687 691
f 691 108 87
f 437 208 438
f 438 208 439
f 439 435 438
f 438 436 437
f 438 435 436
f 203 103 102
f 102 101 203
f 692 690 694
f 54 208 437
f 31 683 30
f 680 31 29
f 680 671 31
f 672 29 681
f 672 680 29
f 671 680 672
f 675 674 658
f 524 677 196
f 369 371 361
f 524 196 519
f 519 196 198
f 699 378 241
f 241 240 699
f 26 383 381
f 560 561 559
f 559 340 557
f 555 340 556
f 340 559 556
f 556 559 561
f 89 80 88
f 89 79 80
f 267 667 666
f 661 667 274
f 662 663 661
f 114 667 661
f 661 115 114
f 663 115 661
f 110 666 111
f 666 667 111
f 28 110 111
f 506 511 505
f 506 512 511
f 272 270 662
f 662 661 272
f 272 661 274
f 269 663 271
f 663 270 271
f 270 272 271
f 590 587 588
f 588 654 590
f 653 654 588
f 586 653 588
f 583 584 585
f 585 584 586
f 586 588 585
f 585 588 587
f 648 578 647
f 648 534 535
f 648 647 534
f 647 578 576
f 576 575 574
f 576 578 577
f 577 575 576
f 650 201 200
f 459 201 202
f 492 484 202
f 202 484 459
f 482 483 487
f 460 483 482
f 482 459 460
f 447 654 456
f 456 654 653
f 204 447 456
f 456 448 204
f 456 653 457
f 423 453 439
f 423 208 424
f 439 208 423
f 454 453 423
f 440 435 439
f 439 453 440
f 204 435 440
f 440 447 204
f 430 432 431
f 208 54 207
f 424 208 207
f 416 402 415
f 505 511 510
f 511 256 510
f 510 256 259
f 485 483 460
f 460 491 485
f 485 491 483
f 490 460 492
f 490 491 460
f 492 95 490
f 95 491 490
f 191 711 710
f 387 407 222
f 160 705 686
f 387 215 398
f 398 405 387
f 387 222 386
f 621 619 610
f 392 620 394
f 707 185 708
f 597 599 541
f 630 425 399
f 125 124 703
f 408 142 212
f 161 657 162
f 119 657 161
f 162 187 161
f 161 187 119
f 71 108 691
f 698 691 694
f 694 690 689
f 689 698 694
f 691 698 689
f 689 71 691
f 77 688 74
f 688 687 74
f 74 95 80
f 96 95 74
f 74 81 77
f 80 81 74
f 98 96 74
f 73 72 687
f 687 87 73
f 73 87 108
f 108 68 73
f 68 72 73
f 55 692 694
f 690 692 86
f 137 150 149
f 436 101 100
f 437 436 100
f 100 83 437
f 20 21 18
f 684 30 683
f 676 683 675
f 675 658 676
f 676 684 683
f 520 684 676
f 524 519 522
f 681 29 668
f 31 671 682
f 671 674 682
f 675 31 682
f 682 674 675
f 507 506 291
f 512 506 507
f 198 197 254
f 663 197 664
f 198 196 678
f 678 197 198
f 678 677 665
f 678 196 677
f 384 383 26
f 375 383 384
f 371 370 368
f 377 24 370
f 377 679 26
f 496 365 497
f 497 507 496
f 365 522 497
f 497 522 519
f 497 519 512
f 512 507 497
f 553 571 573
f 573 575 552
f 552 553 573
f 574 575 573
f 574 645 646
f 646 533 647
f 646 576 574
f 647 576 646
f 644 645 572
f 572 645 574
f 574 573 572
f 572 573 571
f 5 699 2
f 699 240 238
f 238 1 699
f 379 378 26
f 26 381 379
f 382 381 383
f 382 504 381
f 382 383 375
f 342 340 555
f 344 343 554
f 554 553 344
f 554 571 553
f 343 342 554
f 554 342 555
f 78 79 92
f 493 88 492
f 493 89 88
f 492 202 493
f 493 202 201
f 461 517 493
f 493 201 461
f 493 517 508
f 508 516 493
f 503 382 375
f 478 504 503
f 504 382 503
f 371 501 372
f 372 370 371
f 372 377 370
f 274 667 275
f 275 256 274
f 113 667 114
f 113 111 667
f 113 114 28
f 28 111 113
f 273 271 272
f 511 512 273
f 269 271 273
f 273 256 511
f 274 256 273
f 273 272 274
f 198 254 273
f 273 519 198
f 512 519 273
f 685 701 8
f 14 701 700
f 12 701 14
f 700 4 6
f 6 699 5
f 6 4 699
f 5 557 6
f 233 15 341
f 592 590 637
f 547 585 587
f 583 585 547
f 549 550 579
f 549 350 550
f 651 650 200
f 584 650 651
f 651 652 584
f 651 200 457
f 457 652 651
f 578 648 580
f 579 578 580
f 450 451 488
f 451 482 488
f 488 482 487
f 487 195 488
f 488 195 450
f 489 451 452
f 489 482 451
f 452 205 489
f 205 448 489
f 459 482 458
f 457 200 458
f 200 459 458
f 458 456 457
f 448 456 458
f 458 489 448
f 482 489 458
f 441 453 637
f 441 440 453
f 637 447 441
f 447 440 441
f 415 414 428
f 443 432 206
f 424 207 206
f 402 416 404
f 404 417 406
f 404 416 417
f 421 634 454
f 455 634 421
f 454 423 421
f 421 423 424
f 424 422 421
f 399 425 419
f 419 422 414
f 260 510 259
f 258 510 260
f 259 267 266
f 266 260 259
f 265 260 266
f 266 267 666
f 666 265 266
f 263 49 258
f 264 666 50
f 264 265 666
f 264 263 265
f 50 49 264
f 49 263 264
f 212 140 360
f 140 120 360
f 119 187 360
f 360 120 119
f 212 360 409
f 192 704 711
f 168 711 167
f 221 222 407
f 713 704 174
f 354 179 536
f 156 706 705
f 176 160 686
f 538 537 178
f 537 536 178
f 178 536 179
f 182 179 354
f 182 156 179
f 706 156 182
f 224 182 354
f 615 182 224
f 227 541 540
f 540 541 599
f 358 390 389
f 389 390 392
f 389 189 358
f 619 621 618
f 618 621 620
f 618 620 392
f 392 390 618
f 709 708 357
f 228 541 227
f 634 632 633
f 632 425 633
f 425 630 633
f 703 124 693
f 693 131 694
f 703 118 655
f 655 125 703
f 118 125 655
f 124 125 126
f 141 127 126
f 140 141 126
f 126 125 118
f 126 120 140
f 118 120 126
f 209 211 431
f 141 142 154
f 142 408 154
f 70 68 108
f 108 71 70
f 70 689 68
f 71 689 70
f 64 689 690
f 64 103 104
f 104 105 64
f 687 72 75
f 75 74 687
f 106 199 75
f 105 106 75
f 75 64 105
f 75 199 486
f 486 99 75
f 75 99 98
f 98 74 75
f 43 55 694
f 53 54 437
f 103 64 58
f 58 102 103
f 84 100 101
f 19 20 18
f 19 684 520
f 21 20 22
f 216 22 20
f 499 363 498
f 498 278 499
f 496 278 498
f 521 676 658
f 520 676 521
f 521 522 365
f 665 677 669
f 669 29 28
f 669 668 29
f 677 658 660
f 660 669 677
f 668 669 660
f 659 674 671
f 659 658 674
f 659 660 658
f 668 660 659
f 673 672 681
f 681 668 673
f 671 672 673
f 673 659 671
f 668 659 673
f 283 278 496
f 496 507 283
f 283 507 291
f 255 663 269
f 255 254 663
f 269 273 255
f 255 273 254
f 252 197 663
f 373 374 375
f 375 384 373
f 373 384 374
f 361 371 366
f 371 368 366
f 370 24 25
f 375 374 376
f 376 372 375
f 26 679 376
f 679 377 376
f 377 372 376
f 376 384 26
f 374 384 376
f 26 24 27
f 27 377 26
f 24 377 27
f 282 291 281
f 289 288 291
f 289 506 505
f 291 506 289
f 563 556 561
f 563 565 556
f 565 563 564
f 531 645 644
f 533 646 532
f 532 646 645
f 481 480 532
f 645 531 532
f 532 531 481
f 699 1 3
f 3 2 699
f 1 2 3
f 336 2 1
f 5 2 336
f 336 557 5
f 336 559 557
f 560 559 558
f 559 336 558
f 381 504 380
f 380 379 381
f 504 525 380
f 378 379 380
f 380 525 378
f 560 558 638
f 526 504 478
f 526 525 504
f 641 564 640
f 91 92 79
f 508 534 495
f 534 479 495
f 500 475 501
f 371 369 500
f 500 501 371
f 502 503 375
f 375 372 502
f 502 372 501
f 667 267 268
f 339 235 11
f 685 8 7
f 12 14 13
f 13 14 15
f 13 11 12
f 339 11 13
f 15 233 13
f 700 6 17
f 15 14 17
f 341 15 17
f 340 341 17
f 557 340 236
f 236 6 557
f 340 17 236
f 236 17 6
f 589 587 590
f 590 592 589
f 542 228 229
f 541 228 542
f 597 541 542
f 542 595 597
f 583 547 548
f 350 549 548
f 344 553 345
f 345 553 552
f 552 346 345
f 348 346 552
f 351 231 545
f 351 544 352
f 545 544 351
f 545 231 546
f 587 589 546
f 546 589 545
f 546 547 587
f 649 580 648
f 535 461 649
f 649 648 535
f 461 201 649
f 201 650 649
f 582 584 583
f 582 650 584
f 582 649 650
f 580 649 582
f 427 416 415
f 415 428 427
f 430 428 426
f 432 430 426
f 426 428 414
f 424 206 426
f 426 206 432
f 426 422 424
f 414 422 426
f 395 244 399
f 620 621 623
f 420 421 422
f 422 419 420
f 455 421 420
f 420 634 455
f 420 632 634
f 420 425 632
f 420 419 425
f 400 419 414
f 415 402 400
f 400 414 415
f 399 419 400
f 262 263 258
f 413 412 417
f 413 411 412
f 417 416 413
f 416 427 413
f 413 427 411
f 410 409 360
f 412 411 410
f 410 411 211
f 211 409 410
f 180 181 358
f 358 189 180
f 710 181 180
f 180 189 710
f 711 191 164
f 164 167 711
f 194 712 713
f 713 172 194
f 713 171 193
f 193 172 713
f 171 172 193
f 412 410 220
f 220 360 187
f 220 410 360
f 359 172 171
f 171 221 359
f 713 174 170
f 222 221 173
f 221 174 173
f 179 156 157
f 160 176 355
f 705 160 158
f 158 156 705
f 707 706 183
f 183 182 615
f 612 614 611
f 610 619 612
f 613 224 611
f 615 224 613
f 611 614 613
f 613 183 615
f 227 540 226
f 609 224 225
f 611 224 609
f 610 612 609
f 609 612 611
f 189 389 214
f 214 164 191
f 214 389 215
f 391 389 392
f 393 398 391
f 391 398 215
f 215 389 391
f 392 394 391
f 391 394 393
f 186 708 185
f 186 357 708
f 388 181 709
f 709 357 388
f 358 181 388
f 388 390 358
f 597 595 598
f 124 126 129
f 129 126 127
f 211 209 210
f 210 209 408
f 210 408 212
f 212 409 210
f 210 409 211
f 408 209 152
f 151 135 152
f 68 689 69
f 689 64 69
f 69 72 68
f 69 75 72
f 64 75 69
f 65 690 66
f 65 64 690
f 65 58 64
f 56 43 121
f 55 43 56
f 121 54 56
f 138 123 121
f 66 690 67
f 690 62 67
f 67 62 86
f 690 86 63
f 63 62 690
f 86 62 63
f 59 58 692
f 59 84 101
f 101 102 59
f 100 84 59
f 57 86 692
f 692 58 57
f 66 67 57
f 57 67 86
f 57 65 66
f 58 65 57
f 694 131 133
f 217 216 20
f 217 19 520
f 20 19 217
f 499 500 367
f 367 500 369
f 367 363 499
f 367 216 363
f 523 521 658
f 523 677 524
f 523 658 677
f 524 522 523
f 522 521 523
f 665 669 670
f 663 664 670
f 670 669 28
f 670 664 197
f 670 678 665
f 197 678 670
f 277 278 276
f 278 283 276
f 286 276 283
f 307 306 286
f 306 250 286
f 250 276 286
f 284 291 282
f 284 283 291
f 282 302 284
f 253 254 197
f 197 252 253
f 663 254 253
f 253 252 663
f 23 24 21
f 361 366 23
f 23 366 368
f 23 22 361
f 21 22 23
f 23 25 24
f 23 368 370
f 370 25 23
f 640 564 562
f 562 564 563
f 562 561 560
f 562 563 561
f 564 641 566
f 470 466 468
f 533 532 462
f 462 480 293
f 462 532 480
f 1 238 237
f 525 638 242
f 242 241 378
f 378 525 242
f 240 241 242
f 242 638 240
f 640 526 527
f 527 641 640
f 528 641 527
f 527 526 478
f 639 638 525
f 525 526 639
f 639 526 640
f 560 638 639
f 639 562 560
f 640 562 639
f 643 529 530
f 644 643 530
f 530 531 644
f 530 529 463
f 79 89 90
f 90 91 79
f 92 91 515
f 91 90 515
f 515 493 516
f 89 493 515
f 515 90 89
f 78 92 93
f 93 94 78
f 92 515 93
f 48 51 78
f 78 94 48
f 48 49 51
f 514 515 516
f 514 510 258
f 475 500 251
f 499 278 251
f 251 500 499
f 309 302 304
f 309 284 302
f 308 472 475
f 308 250 306
f 308 306 307
f 475 251 308
f 307 309 308
f 308 309 304
f 467 304 468
f 468 466 467
f 467 308 304
f 472 308 467
f 475 472 476
f 501 475 476
f 476 502 501
f 474 527 478
f 528 527 474
f 257 268 267
f 257 267 259
f 257 275 667
f 667 268 257
f 259 256 257
f 256 275 257
f 10 338 337
f 337 7 10
f 10 7 8
f 10 701 12
f 10 8 701
f 235 338 9
f 9 11 235
f 338 10 9
f 12 11 9
f 9 10 12
f 339 13 234
f 234 13 233
f 16 14 700
f 700 17 16
f 16 17 14
f 591 589 592
f 591 594 593
f 592 594 591
f 593 544 591
f 545 589 591
f 591 544 545
f 636 592 637
f 636 594 592
f 637 635 636
f 634 594 636
f 454 634 636
f 636 635 454
f 230 542 229
f 350 548 349
f 349 548 547
f 577 550 551
f 551 348 552
f 551 575 577
f 552 575 551
f 579 580 581
f 580 582 581
f 581 549 579
f 581 582 583
f 583 548 581
f 581 548 549
f 429 430 431
f 431 211 429
f 429 428 430
f 429 427 428
f 211 411 429
f 411 427 429
f 396 328 329
f 396 331 395
f 393 394 320
f 627 624 625
f 623 606 625
f 245 395 445
f 244 395 245
f 399 244 444
f 444 630 399
f 444 313 630
f 265 263 261
f 263 262 261
f 261 260 265
f 261 262 258
f 258 260 261
f 167 164 213
f 213 214 215
f 164 214 213
f 187 712 163
f 712 194 163
f 412 220 219
f 219 359 412
f 172 359 219
f 412 359 418
f 417 412 418
f 418 221 407
f 418 359 221
f 406 417 418
f 418 407 406
f 175 170 174
f 175 221 171
f 175 174 221
f 175 171 713
f 713 170 175
f 165 174 704
f 704 173 165
f 165 173 174
f 222 173 166
f 166 173 704
f 177 355 538
f 538 178 177
f 160 355 177
f 177 158 160
f 178 158 177
f 159 178 179
f 159 158 178
f 179 157 159
f 159 157 156
f 156 158 159
f 706 182 155
f 155 183 706
f 182 183 155
f 184 185 707
f 707 183 184
f 225 226 603
f 603 605 225
f 225 605 607
f 607 609 225
f 610 609 607
f 190 214 191
f 189 214 190
f 190 191 710
f 710 189 190
f 356 186 185
f 357 186 356
f 390 388 616
f 616 388 357
f 616 618 390
f 619 618 616
f 596 598 595
f 596 595 593
f 593 594 596
f 596 594 634
f 634 633 596
f 633 598 596
f 600 599 597
f 597 598 600
f 130 693 124
f 124 129 130
f 128 127 131
f 128 129 127
f 131 693 128
f 442 152 209
f 151 152 442
f 150 151 442
f 153 154 408
f 408 152 153
f 152 133 153
f 61 53 55
f 55 56 61
f 54 53 52
f 52 56 54
f 53 56 52
f 121 43 42
f 42 138 121
f 42 43 694
f 55 53 60
f 692 55 60
f 60 59 692
f 100 59 60
f 83 100 60
f 437 83 60
f 60 53 437
f 102 58 85
f 85 59 102
f 58 59 85
f 134 152 135
f 135 133 134
f 134 133 152
f 143 54 121
f 364 498 363
f 363 216 364
f 216 217 364
f 362 367 369
f 216 367 362
f 362 369 361
f 361 22 362
f 22 216 362
f 28 663 117
f 663 670 117
f 285 286 283
f 283 284 285
f 307 286 285
f 285 309 307
f 284 309 285
f 290 305 281
f 291 288 290
f 290 281 291
f 304 302 303
f 303 305 304
f 303 302 282
f 282 281 303
f 281 305 303
f 288 289 287
f 289 298 287
f 300 462 293
f 565 564 567
f 564 566 567
f 555 556 567
f 556 565 567
f 644 572 570
f 570 643 644
f 570 572 571
f 642 566 641
f 642 529 643
f 528 529 642
f 642 641 528
f 1 237 335
f 335 237 558
f 335 336 1
f 335 558 336
f 239 237 238
f 239 238 240
f 240 638 239
f 239 638 558
f 558 237 239
f 466 470 471
f 463 466 471
f 471 530 463
f 531 530 471
f 481 531 471
f 471 470 481
f 509 514 516
f 509 516 508
f 508 495 509
f 510 514 509
f 505 510 509
f 509 495 505
f 513 93 515
f 515 514 513
f 94 93 513
f 513 48 94
f 513 514 258
f 258 49 513
f 49 48 513
f 279 278 277
f 279 251 278
f 250 308 249
f 249 308 251
f 249 276 250
f 277 276 249
f 465 466 463
f 465 467 466
f 472 467 465
f 477 474 478
f 478 503 477
f 503 502 477
f 502 476 477
f 542 230 543
f 352 544 543
f 543 544 593
f 593 595 543
f 595 542 543
f 232 349 547
f 547 546 232
f 232 546 231
f 347 551 550
f 348 551 347
f 550 350 347
f 402 404 401
f 399 400 401
f 401 400 402
f 401 395 399
f 401 396 395
f 393 320 327
f 326 328 327
f 328 396 327
f 330 396 329
f 331 396 330
f 610 607 608
f 608 607 605
f 608 606 623
f 605 603 608
f 608 603 606
f 608 621 610
f 608 623 621
f 622 394 620
f 622 320 394
f 624 320 622
f 620 623 622
f 623 625 622
f 622 625 624
f 321 328 326
f 321 320 624
f 624 322 321
f 329 328 324
f 328 321 324
f 324 321 322
f 630 313 628
f 627 625 604
f 604 625 606
f 606 603 604
f 310 444 244
f 313 444 310
f 445 395 446
f 395 331 446
f 385 213 215
f 385 215 387
f 387 386 385
f 167 213 385
f 385 386 168
f 168 167 385
f 187 163 188
f 188 163 194
f 188 194 172
f 188 220 187
f 172 219 188
f 188 219 220
f 168 386 169
f 169 386 222
f 222 166 169
f 169 166 704
f 169 711 168
f 169 192 711
f 704 192 169
f 223 184 183
f 223 613 614
f 183 613 223
f 614 356 223
f 185 184 223
f 223 356 185
f 539 226 540
f 539 603 226
f 617 356 614
f 617 612 619
f 614 612 617
f 619 616 617
f 357 356 617
f 617 616 357
f 693 130 656
f 656 130 129
f 656 128 693
f 129 128 656
f 433 209 431
f 433 442 209
f 443 442 433
f 431 432 433
f 433 432 443
f 154 153 132
f 141 154 132
f 132 133 131
f 132 153 133
f 132 127 141
f 131 127 132
f 82 56 53
f 53 61 82
f 82 61 56
f 694 35 36
f 136 44 135
f 136 36 35
f 137 36 136
f 150 137 136
f 136 135 151
f 136 151 150
f 139 40 137
f 138 40 139
f 694 38 39
f 39 40 694
f 39 38 137
f 137 40 39
f 41 42 694
f 694 40 41
f 138 42 41
f 41 40 138
f 123 138 145
f 145 206 207
f 694 133 32
f 133 47 32
f 46 133 135
f 46 47 133
f 694 47 46
f 498 364 518
f 518 365 496
f 496 498 518
f 112 670 28
f 28 117 112
f 112 117 670
f 301 290 288
f 305 290 301
f 293 480 469
f 469 480 481
f 481 470 469
f 297 287 298
f 292 247 297
f 247 287 297
f 533 462 296
f 462 300 296
f 643 570 568
f 568 642 643
f 566 642 568
f 568 567 566
f 569 570 571
f 555 567 569
f 567 568 569
f 569 568 570
f 569 554 555
f 571 554 569
f 251 279 280
f 280 249 251
f 280 279 277
f 277 249 280
f 464 465 463
f 528 474 464
f 463 529 464
f 464 529 528
f 472 465 473
f 474 477 473
f 473 464 474
f 465 464 473
f 473 476 472
f 473 477 476
f 352 543 353
f 353 543 230
f 403 401 404
f 396 401 403
f 406 405 403
f 403 404 406
f 393 327 397
f 397 327 396
f 396 403 397
f 397 398 393
f 405 398 397
f 397 403 405
f 319 327 320
f 329 324 323
f 323 324 322
f 627 604 602
f 602 629 627
f 600 629 602
f 599 600 602
f 316 245 445
f 316 317 245
f 316 628 313
f 313 317 316
f 312 317 313
f 244 245 243
f 245 317 243
f 243 312 244
f 317 312 243
f 601 539 540
f 603 539 601
f 601 540 599
f 601 604 603
f 599 602 601
f 601 602 604
f 137 38 37
f 37 36 137
f 37 38 694
f 694 36 37
f 44 136 34
f 34 136 35
f 694 44 34
f 34 35 694
f 137 148 122
f 122 139 137
f 148 139 122
f 123 145 146
f 121 123 146
f 146 145 207
f 443 206 434
f 149 150 434
f 434 137 149
f 434 148 137
f 434 442 443
f 150 442 434
f 33 47 694
f 694 32 33
f 33 32 47
f 135 44 45
f 45 46 135
f 45 44 694
f 694 46 45
f 365 518 218
f 218 518 364
f 218 521 365
f 520 521 218
f 218 217 520
f 218 364 217
f 288 287 246
f 246 301 288
f 246 287 247
f 295 300 293
f 299 297 298
f 299 296 300
f 300 295 299
f 299 298 289
f 289 296 299
f 494 296 289
f 494 495 479
f 494 479 534
f 494 289 505
f 505 495 494
f 534 533 494
f 533 296 494
f 325 321 326
f 326 327 325
f 327 319 325
f 334 330 329
f 329 323 334
f 334 323 322
f 631 629 600
f 631 598 633
f 631 600 598
f 628 629 631
f 631 633 630
f 630 628 631
f 313 310 311
f 311 312 313
f 311 310 244
f 244 312 311
f 144 143 121
f 121 146 144
f 144 146 207
f 144 207 54
f 54 143 144
f 206 145 147
f 147 434 206
f 148 434 147
f 138 139 147
f 147 145 138
f 147 139 148
f 248 246 247
f 248 247 292
f 292 469 248
f 248 470 468
f 248 469 470
f 301 246 248
f 468 304 248
f 304 305 248
f 305 301 248
f 294 295 293
f 293 469 294
f 294 469 292
f 294 299 295
f 292 297 294
f 297 299 294
f 321 325 318
f 318 325 319
f 320 321 318
f 318 319 320
f 626 629 628
f 628 315 626
f 626 334 322
f 626 322 624
f 626 624 627
f 627 629 626
f 445 446 332
f 628 316 314
f 314 315 628
f 314 332 315
f 314 316 445
f 445 332 314
f 315 332 333
f 334 626 333
f 333 626 315
f 333 332 446
f 333 446 331
f 331 330 333
f 330 334 333
f 713 712 693
f 693 685 686
f 710 711 693
f 693 694 28
f 707 708 693
f 693 709 710
f 699 700 693
f 28 29 693
f 693 26 699
f 693 30 18
f 18 21 693
f 693 702 703
f 29 31 693
f 686 705 693
f 693 706 707
f 693 24 26
f 693 701 685
f 693 704 713
f 693 712 702
f 31 30 693
f 700 701 693
f 711 704 693
f 705 706 693
f 693 708 709
f 21 24 693
f 18 30 19
f 30 684 19
f 686 685 353
f 337 338 353
f 339 234 353
f 353 235 339
f 354 536 353
f 353 232 231
f 353 343 344
f 685 7 353
f 353 224 354
f 353 176 686
f 353 341 340
f 340 342 353
f 227 226 353
f 353 537 538
f 538 355 353
f 353 342 343
f 353 228 227
f 353 233 341
f 344 345 353
f 353 347 350
f 353 536 537
f 353 351 352
f 225 224 353
f 229 228 353
f 353 338 235
f 353 7 337
f 353 345 346
f 346 348 353
f 231 351 353
f 353 355 176
f 353 226 225
f 353 234 233
f 353 230 229
f 350 349 353
f 349 232 353
f 348 347 353

