# https://github.com/mikedh/trimesh
v -0.01678908 0.04920862 -0.00300000
v 0.00765228 0.00010878 -0.00300000
v 0.00782151 0.00021926 -0.00300000
v -0.01000590 0.00314478 -0.00300000
v -0.01036549 0.00262491 -0.00300000
v 0.00959913 0.00172086 -0.00300000
v 0.01036549 0.00262491 -0.00300000
v -0.01121675 0.00387328 -0.00300000
v -0.01045818 0.00274751 -0.00300000
v 0.00875152 0.00091763 -0.00300000
v -0.00959913 0.00172085 -0.00300000
v -0.00875152 0.00091763 -0.00300000
v -0.00782151 0.00021926 -0.00300000
v 0.01308894 0.00785017 -0.00300000
v -0.01477459 0.01394231 -0.00300000
v -0.01401741 0.01075075 -0.00300000
v -0.01252610 0.00805806 -0.00300000
v -0.01308894 0.00785017 -0.00300000
v -0.01252275 0.00643098 -0.00300000
v -0.01190121 0.00510325 -0.00300000
v -0.00765228 0.00010878 -0.00300000
v -0.00656178 -0.00050362 -0.00300000
v -0.01667077 0.02694168 -0.00300000
v -0.01584905 0.02042152 -0.00300000
v -0.01534643 0.01717435 -0.00300000
v 0.01045818 0.00274751 -0.00300000
v 0.01121675 0.00387328 -0.00300000
v 0.01190121 0.00510325 -0.00300000
v 0.01252275 0.00643098 -0.00300000
v 0.01745654 0.04115048 -0.00300000
v 0.01749854 0.04881374 -0.00300000
v 0.01749316 0.04885982 -0.00300000
v 0.01401741 0.01075075 -0.00300000
v 0.01477459 0.01394231 -0.00300000
v 0.00426507 -0.00136413 -0.00300000
v 0.00537479 -0.00100920 -0.00300000
v 0.00656178 -0.00050362 -0.00300000
v 0.01534643 0.01717435 -0.00300000
v 0.01584905 0.02042151 -0.00300000
v 0.01667078 0.02694168 -0.00300000
v 0.01719651 0.03349219 -0.00300000
v 0.01736640 0.03732041 -0.00300000
v -0.00000000 -0.00191431 -0.00300000
v 0.00139897 -0.00186016 -0.00300000
v 0.00285820 -0.00167784 -0.00300000
v -0.00537479 -0.00100920 -0.00300000
v -0.00426507 -0.00136413 -0.00300000
v -0.00285820 -0.00167784 -0.00300000
v -0.00139896 -0.00186015 -0.00300000
v -0.01749315 0.04885983 -0.00300000
v -0.01749854 0.04881374 -0.00300000
v -0.01745654 0.04115048 -0.00300000
v -0.01736640 0.03732041 -0.00300000
v -0.01719651 0.03349219 -0.00300000
v 0.00000000 0.02225436 -0.01423504
v 0.01382331 0.00905873 -0.00412767
v 0.01405906 0.00993411 -0.00483482
v 0.01427119 0.01118013 -0.00582299
v 0.01434267 0.01243915 -0.00680545
v 0.01433078 0.01293463 -0.00718795
v 0.01394799 0.01526099 -0.00894777
v 0.01413316 0.01451340 -0.00838927
v 0.01420623 0.01411918 -0.00809197
v 0.01355646 0.01635448 -0.00975166
v 0.01323426 0.01702646 -0.01023914
v 0.01268174 0.01793242 -0.01089045
v 0.01202887 0.01875935 -0.01148156
v 0.01143907 0.01935757 -0.01190905
v 0.01065746 0.01999574 -0.01236805
v 0.00990251 0.02048630 -0.01272611
v 0.00897642 0.02095981 -0.01308032
v 0.00797450 0.02134927 -0.01338312
v 0.00561115 0.02191438 -0.01386411
v 0.00624693 0.02180118 -0.01376090
v 0.00683403 0.02167361 -0.01364983
v 0.00432179 0.02207881 -0.01402665
v 0.00296541 0.02218047 -0.01414122
v 0.00154199 0.02223490 -0.01421041
v 0.01375912 0.00886005 -0.00405269
v 0.01375723 0.00885429 -0.00405136
v 0.01373796 0.00879594 -0.00404224
v 0.01382055 0.00905001 -0.00412360
v 0.01380096 0.00898874 -0.00409650
v 0.01378053 0.00892554 -0.00407215
v -0.01382331 0.00905873 -0.00412767
v -0.01405906 0.00993411 -0.00483482
v -0.00154199 0.02223490 -0.01421041
v -0.01427119 0.01118013 -0.00582299
v -0.01434267 0.01243915 -0.00680545
v -0.01433078 0.01293462 -0.00718795
v -0.01420623 0.01411917 -0.00809197
v -0.01413316 0.01451340 -0.00838927
v -0.01394799 0.01526099 -0.00894778
v -0.01355645 0.01635448 -0.00975166
v -0.01323426 0.01702646 -0.01023914
v -0.01268174 0.01793242 -0.01089045
v -0.01202888 0.01875935 -0.01148156
v -0.01143906 0.01935757 -0.01190905
v -0.01065745 0.01999575 -0.01236805
v -0.00990251 0.02048629 -0.01272611
v -0.00897642 0.02095981 -0.01308032
v -0.00797451 0.02134927 -0.01338312
v -0.00683403 0.02167361 -0.01364983
v -0.00624693 0.02180118 -0.01376090
v -0.00561115 0.02191439 -0.01386411
v -0.00432179 0.02207881 -0.01402665
v -0.00296540 0.02218047 -0.01414122
v -0.01382054 0.00905001 -0.00412360
v -0.01380096 0.00898874 -0.00409650
v -0.01373795 0.00879594 -0.00404224
v -0.01375723 0.00885429 -0.00405136
v -0.01378052 0.00892553 -0.00407215
v -0.01375912 0.00886005 -0.00405269
v 0.01472401 0.01253009 -0.00506552
v 0.01456649 0.01267246 -0.00621111
v 0.01512843 0.01543686 -0.00628075
v 0.00000000 0.02732688 -0.01466611
v 0.01459129 0.01175687 -0.00400000
v 0.01337035 0.00774622 -0.00400000
v 0.01657701 0.02386475 -0.00518402
v 0.01647221 0.02271838 -0.00400000
v 0.01550828 0.01631171 -0.00400000
v 0.01747943 0.04365985 -0.00838354
v 0.01773609 0.04879762 -0.00683030
v 0.01768427 0.04362402 -0.00694983
v 0.01779021 0.04881130 -0.00546666
v 0.01776963 0.04360158 -0.00542428
v 0.01711937 0.04370686 -0.00969474
v 0.01745052 0.04873087 -0.00892098
v 0.01760243 0.04876576 -0.00810184
v 0.01584807 0.04382552 -0.01187632
v 0.01666134 0.04856176 -0.01102502
v 0.01658010 0.04376282 -0.01086286
v 0.01682114 0.04859472 -0.01072748
v 0.01718645 0.04867234 -0.00985731
v 0.01379675 0.04396231 -0.01343112
v 0.01515493 0.04827109 -0.01276108
v 0.01491903 0.04389275 -0.01273140
v 0.01554861 0.04834424 -0.01242637
v 0.01615471 0.04846045 -0.01177354
v 0.00766367 0.04421946 -0.01491050
v 0.01015383 0.04747869 -0.01464163
v 0.00940314 0.04416277 -0.01470614
v 0.01164669 0.04768651 -0.01433974
v 0.01102043 0.04409953 -0.01440363
v 0.01288800 0.04787910 -0.01396775
v 0.01249182 0.04403197 -0.01398414
v 0.01335271 0.04795555 -0.01378869
v 0.01431565 0.04812036 -0.01332073
v 0.00378081 0.04690621 -0.01508834
v 0.00658667 0.04709423 -0.01499726
v 0.00824485 0.04725290 -0.01487878
v 0.00331160 0.02610726 -0.01447787
v 0.00959976 0.02545356 -0.01342978
v 0.00657334 0.02583623 -0.01411690
v 0.01035355 0.02029305 -0.01253301
v 0.01153988 0.01997284 -0.01195291
v 0.01427298 0.01905580 -0.00958225
v 0.01351079 0.01934404 -0.01047765
v 0.01487832 0.01879858 -0.00858731
v 0.00348241 0.03065712 -0.01477252
v 0.00520988 0.03056635 -0.01463792
v 0.00689603 0.03044869 -0.01443223
v 0.00851605 0.03030958 -0.01414391
v 0.01004562 0.03015442 -0.01376144
v 0.01146184 0.02998867 -0.01327413
v 0.01274411 0.02981775 -0.01267296
v 0.01221266 0.02501575 -0.01234449
v 0.01387496 0.02964708 -0.01195137
v 0.01331647 0.02479381 -0.01163576
v 0.01259666 0.01965311 -0.01126835
v 0.01426603 0.02457928 -0.01081225
v 0.01484104 0.02948211 -0.01110606
v 0.01505221 0.02437920 -0.00987526
v 0.01563389 0.02932826 -0.01013783
v 0.01567104 0.02420066 -0.00883039
v 0.01625094 0.02919095 -0.00905236
v 0.01612445 0.02405068 -0.00768824
v 0.01722531 0.02962813 -0.00400000
v 0.01712744 0.02893264 -0.00524001
v 0.01698172 0.02898771 -0.00658187
v 0.01578551 0.01831467 -0.00512588
v 0.01642106 0.02393637 -0.00646518
v 0.01669630 0.02907563 -0.00786107
v 0.01532709 0.01858253 -0.00750236
v 0.01562531 0.01841784 -0.00634186
v 0.01528786 0.01531076 -0.00509777
v 0.01765680 0.03703065 -0.00400000
v 0.01748017 0.03375418 -0.00529055
v 0.01734889 0.03380039 -0.00668633
v 0.01708145 0.03387416 -0.00801423
v 0.01665313 0.03397094 -0.00924666
v 0.01604879 0.03408616 -0.01036429
v 0.01526178 0.03421527 -0.01135509
v 0.00377428 0.03974752 -0.01507382
v 0.00000000 0.04681369 -0.01510951
v 0.00392144 0.04430440 -0.01510477
v 0.00071177 0.04681697 -0.01510925
v 0.00562506 0.03968529 -0.01497630
v -0.00000000 0.03073625 -0.01486987
v -0.00000000 0.03595325 -0.01506815
v 0.00000000 0.03980177 -0.01513629
v 0.01767986 0.03856520 -0.00535458
v 0.01756955 0.03860296 -0.00681367
v 0.01733030 0.03866323 -0.00819441
v 0.01693216 0.03874230 -0.00946750
v 0.01635574 0.03883644 -0.01061282
v 0.01559119 0.03894192 -0.01161837
v 0.01463701 0.03905503 -0.01247926
v 0.01349902 0.03917203 -0.01319674
v 0.01218918 0.03928922 -0.01377714
v 0.01072455 0.03940287 -0.01423088
v 0.00912612 0.03950924 -0.01457144
v 0.00741775 0.03960462 -0.01481438
v 0.01779854 0.04881375 -0.00400000
v 0.00175179 0.00616986 -0.01146003
v 0.00159128 0.00815557 -0.01201803
v 0.00321981 0.00887749 -0.01205623
v 0.00452037 -0.00156216 -0.00469558
v 0.00332522 -0.00189568 -0.00400000
v 0.00221324 -0.00207783 -0.00400000
v 0.01057795 0.00247038 -0.00470686
v 0.01020676 0.00195017 -0.00400000
v 0.00924158 0.00094856 -0.00400000
v 0.01197803 0.00460198 -0.00400000
v 0.01091853 0.00287118 -0.00400000
v 0.01221317 0.00505529 -0.00400000
v 0.01251084 0.00567059 -0.00400000
v 0.01279079 0.00629496 -0.00400000
v 0.01305443 0.00692702 -0.00400000
v 0.01330282 0.00756512 -0.00400000
v 0.00465619 -0.00069698 -0.00694939
v 0.00459570 0.00034500 -0.00819410
v 0.00589484 -0.00021832 -0.00702979
v 0.00583476 0.00087358 -0.00828608
v 0.00713257 0.00095288 -0.00774775
v 0.00708020 0.00156723 -0.00835174
v 0.00830025 0.00244621 -0.00837396
v 0.00459914 -0.00137685 -0.00550168
v 0.00586315 -0.00063678 -0.00631964
v 0.00713293 0.00041224 -0.00708785
v 0.00835410 0.00179859 -0.00777005
v 0.00943817 0.00351067 -0.00834688
v 0.00221034 -0.00029775 -0.00800780
v 0.00225151 -0.00127395 -0.00678739
v 0.00110713 -0.00140103 -0.00673387
v 0.00225218 -0.00188501 -0.00540306
v 0.00111384 -0.00199771 -0.00537050
v 0.00223559 -0.00203660 -0.00464613
v -0.00000000 -0.00217721 -0.00462385
v 0.00443739 0.00168880 -0.00925535
v 0.00563503 0.00225367 -0.00934379
v 0.00684039 0.00298625 -0.00940579
v 0.00802244 0.00390443 -0.00942443
v 0.00912594 0.00500649 -0.00939399
v 0.01010252 0.00626295 -0.00932133
v 0.00952227 0.00786933 -0.01018808
v 0.01053703 0.00693083 -0.00927599
v 0.00638419 0.01173753 -0.01202905
v 0.00792442 0.00832452 -0.01096571
v 0.00563660 0.01084730 -0.01206047
v 0.00697650 0.00726960 -0.01099777
v 0.00202873 0.00253236 -0.00999880
v 0.00189940 0.00427741 -0.01079039
v 0.00390626 0.00504075 -0.01090569
v 0.00357288 0.00692835 -0.01153389
v 0.00493657 0.00563007 -0.01095999
v 0.00449783 0.00750220 -0.01156675
v 0.00596727 0.00636983 -0.01099459
v 0.00541786 0.00821111 -0.01158448
v 0.00484737 0.01007119 -0.01207381
v 0.00000000 -0.00199593 -0.00548516
v 0.00000000 -0.00137363 -0.00682104
v 0.00000000 -0.00034152 -0.00806770
v 0.00213423 0.00098917 -0.00907477
v 0.00248182 0.01277439 -0.01282101
v 0.00124161 0.01220631 -0.01282837
v 0.01123548 0.00350989 -0.00470256
v 0.01115126 0.00384212 -0.00627743
v 0.01127227 0.00456722 -0.00697520
v 0.01179730 0.00590908 -0.00695866
v 0.01122858 0.00607639 -0.00821032
v 0.00750571 -0.00033397 -0.00400000
v 0.00784410 -0.00007916 -0.00474514
v 0.00885559 0.00065800 -0.00473941
v 0.00916041 0.00110156 -0.00558821
v 0.01012082 0.00206652 -0.00555458
v 0.01035001 0.00267045 -0.00632270
v 0.01170970 0.00510562 -0.00626437
v 0.01092286 0.00314187 -0.00552229
v 0.00977760 0.00151303 -0.00472280
v 0.00852804 0.00035428 -0.00400000
v 0.01089088 0.00538417 -0.00823356
v 0.01092215 0.00392443 -0.00699398
v 0.01050253 0.00400862 -0.00768088
v 0.01047423 0.00331956 -0.00703039
v 0.00947134 0.00219195 -0.00708775
v 0.00936295 0.00161501 -0.00636981
v 0.00825776 0.00070266 -0.00638672
v 0.00809400 0.00026885 -0.00560003
v 0.00695662 -0.00041707 -0.00558654
v 0.00676948 -0.00069033 -0.00473823
v 0.00565755 -0.00117995 -0.00472024
v 0.00553690 -0.00126912 -0.00400000
v 0.00578530 -0.00095992 -0.00555079
v 0.00707603 -0.00004698 -0.00636859
v 0.00834221 0.00121499 -0.00710885
v 0.00949370 0.00282597 -0.00774560
v 0.01044398 0.00473236 -0.00827738
v 0.01086471 0.00763815 -0.00925100
v 0.01065137 0.00250522 -0.00400000
v 0.01025356 0.00922124 -0.01012059
v 0.00877568 0.00950953 -0.01090342
v 0.00859968 0.00662819 -0.01025747
v 0.00756308 0.00553159 -0.01028934
v 0.00645543 0.00460767 -0.01027755
v 0.00532564 0.00385987 -0.01022705
v 0.00420101 0.00327415 -0.01015269
v 0.00326521 0.00127120 -0.00916009
v 0.00338191 -0.00004094 -0.00809568
v 0.00343590 -0.00104457 -0.00686373
v 0.00341568 -0.00168226 -0.00544949
v -0.00000000 0.00077777 -0.00899329
v 0.00000000 0.00134042 -0.00937166
v 0.00000000 0.00230107 -0.00992925
v -0.00000000 0.00342560 -0.01047787
v 0.00000000 0.00614590 -0.01149813
v 0.00000000 0.00994794 -0.01246312
v 0.00000000 0.01201218 -0.01283017
v 0.00084433 -0.00219522 -0.00400000
v -0.00000000 -0.00221431 -0.00400000
v -0.00124161 0.01220631 -0.01282837
v -0.00532564 0.00385986 -0.01022705
v -0.00420101 0.00327414 -0.01015269
v -0.00443739 0.00168880 -0.00925535
v -0.00084432 -0.00219523 -0.00400000
v -0.00221324 -0.00207783 -0.00400000
v -0.00223559 -0.00203660 -0.00464613
v -0.01337035 0.00774622 -0.00400000
v -0.01330283 0.00756512 -0.00400000
v -0.01251084 0.00567059 -0.00400000
v -0.01279079 0.00629496 -0.00400000
v -0.01305443 0.00692702 -0.00400000
v -0.01123548 0.00350989 -0.00470257
v -0.01091853 0.00287119 -0.00400000
v -0.01197802 0.00460198 -0.00400000
v -0.01065137 0.00250522 -0.00400000
v -0.01057795 0.00247038 -0.00470686
v -0.01020675 0.00195018 -0.00400000
v -0.00977760 0.00151304 -0.00472280
v -0.00924158 0.00094856 -0.00400000
v -0.00885559 0.00065800 -0.00473941
v -0.00852804 0.00035429 -0.00400000
v -0.00784410 -0.00007916 -0.00474514
v -0.00750571 -0.00033397 -0.00400000
v -0.00676948 -0.00069034 -0.00473823
v -0.00565755 -0.00117995 -0.00472024
v -0.00553690 -0.00126913 -0.00400000
v -0.00452038 -0.00156216 -0.00469558
v -0.00332522 -0.00189568 -0.00400000
v -0.00583476 0.00087357 -0.00828608
v -0.00459570 0.00034500 -0.00819410
v -0.00465619 -0.00069697 -0.00694939
v -0.00343590 -0.00104457 -0.00686373
v -0.00341568 -0.00168226 -0.00544950
v -0.00225218 -0.00188501 -0.00540305
v -0.00111384 -0.00199771 -0.00537050
v -0.00110712 -0.00140103 -0.00673387
v -0.00225151 -0.00127395 -0.00678739
v -0.00221034 -0.00029775 -0.00800780
v -0.01044398 0.00473236 -0.00827738
v -0.01010252 0.00626295 -0.00932134
v -0.00912594 0.00500650 -0.00939399
v -0.00859968 0.00662819 -0.01025747
v -0.00802244 0.00390443 -0.00942443
v -0.00756308 0.00553159 -0.01028934
v -0.00684039 0.00298626 -0.00940579
v -0.00645543 0.00460767 -0.01027755
v -0.00563503 0.00225367 -0.00934379
v -0.00596727 0.00636984 -0.01099459
v -0.00493657 0.00563007 -0.01095999
v -0.00792441 0.00832452 -0.01096571
v -0.00638419 0.01173753 -0.01202905
v -0.00697650 0.00726960 -0.01099777
v -0.00563660 0.01084730 -0.01206047
v -0.00484737 0.01007119 -0.01207381
v -0.00338191 -0.00004094 -0.00809568
v -0.00326522 0.00127120 -0.00916009
v -0.00213423 0.00098916 -0.00907477
v -0.00202873 0.00253236 -0.00999880
v -0.00189940 0.00427741 -0.01079039
v -0.00541787 0.00821111 -0.01158448
v -0.00449782 0.00750220 -0.01156675
v -0.00390626 0.00504076 -0.01090569
v -0.00357288 0.00692835 -0.01153389
v -0.00175179 0.00616986 -0.01146004
v -0.00248182 0.01277439 -0.01282101
v -0.00321981 0.00887749 -0.01205623
v -0.00159127 0.00815558 -0.01201804
v -0.01179730 0.00590908 -0.00695866
v -0.01127227 0.00456722 -0.00697520
v -0.01170970 0.00510563 -0.00626437
v -0.01092285 0.00314187 -0.00552229
v -0.01035001 0.00267045 -0.00632270
v -0.01012082 0.00206652 -0.00555458
v -0.00936295 0.00161501 -0.00636981
v -0.00916041 0.00110156 -0.00558821
v -0.00825777 0.00070266 -0.00638672
v -0.00809400 0.00026885 -0.00560003
v -0.00707603 -0.00004698 -0.00636859
v -0.00695662 -0.00041708 -0.00558654
v -0.00586315 -0.00063678 -0.00631964
v -0.00578530 -0.00095992 -0.00555079
v -0.00459914 -0.00137685 -0.00550168
v -0.01092215 0.00392443 -0.00699398
v -0.01115126 0.00384212 -0.00627743
v -0.01221316 0.00505530 -0.00400000
v -0.00589484 -0.00021832 -0.00702979
v -0.00713293 0.00041224 -0.00708785
v -0.00713257 0.00095288 -0.00774775
v -0.00834221 0.00121499 -0.00710885
v -0.00835411 0.00179860 -0.00777005
v -0.00947133 0.00219195 -0.00708775
v -0.00949370 0.00282597 -0.00774560
v -0.01047423 0.00331956 -0.00703039
v -0.01050254 0.00400861 -0.00768087
v -0.00708021 0.00156723 -0.00835174
v -0.00830025 0.00244621 -0.00837396
v -0.00943817 0.00351067 -0.00834688
v -0.01025357 0.00922125 -0.01012059
v -0.01086471 0.00763814 -0.00925100
v -0.01122859 0.00607639 -0.00821032
v -0.00877569 0.00950953 -0.01090342
v -0.01089088 0.00538417 -0.00823356
v -0.01053704 0.00693084 -0.00927599
v -0.00952227 0.00786933 -0.01018808
v -0.01526178 0.03421527 -0.01135509
v -0.01559119 0.03894192 -0.01161837
v -0.01463701 0.03905503 -0.01247926
v -0.01722531 0.02962813 -0.00400000
v -0.01712744 0.02893264 -0.00524001
v -0.01657701 0.02386476 -0.00518402
v -0.00824485 0.04725290 -0.01487878
v -0.00766367 0.04421946 -0.01491050
v -0.00940314 0.04416277 -0.01470614
v -0.00658667 0.04709423 -0.01499726
v -0.00378081 0.04690621 -0.01508834
v -0.00392144 0.04430440 -0.01510477
v -0.01459129 0.01175687 -0.00400000
v -0.01472401 0.01253008 -0.00506552
v -0.01562531 0.01841784 -0.00634186
v -0.01532709 0.01858253 -0.00750236
v -0.01512843 0.01543686 -0.00628075
v -0.01456650 0.01267246 -0.00621111
v -0.01487832 0.01879858 -0.00858731
v -0.01259666 0.01965311 -0.01126835
v -0.01351079 0.01934404 -0.01047765
v -0.01427297 0.01905581 -0.00958225
v -0.01153989 0.01997284 -0.01195291
v -0.01035356 0.02029305 -0.01253301
v -0.00959976 0.02545356 -0.01342978
v -0.00657333 0.02583623 -0.01411690
v -0.00331160 0.02610726 -0.01447786
v -0.00071177 0.04681697 -0.01510925
v -0.01015384 0.04747869 -0.01464163
v -0.01102043 0.04409953 -0.01440363
v -0.01164669 0.04768651 -0.01433974
v -0.01249182 0.04403198 -0.01398414
v -0.01288800 0.04787910 -0.01396775
v -0.01335271 0.04795556 -0.01378869
v -0.01379675 0.04396231 -0.01343112
v -0.01431565 0.04812036 -0.01332073
v -0.01491903 0.04389276 -0.01273140
v -0.01515494 0.04827109 -0.01276108
v -0.01554861 0.04834424 -0.01242637
v -0.01584807 0.04382552 -0.01187632
v -0.01615471 0.04846045 -0.01177354
v -0.01658010 0.04376281 -0.01086286
v -0.01666134 0.04856176 -0.01102502
v -0.01682114 0.04859472 -0.01072748
v -0.01711937 0.04370685 -0.00969474
v -0.01718645 0.04867234 -0.00985731
v -0.01745052 0.04873087 -0.00892098
v -0.01747943 0.04365985 -0.00838354
v -0.01760244 0.04876576 -0.00810184
v -0.01768427 0.04362402 -0.00694983
v -0.01773609 0.04879763 -0.00683030
v -0.01776963 0.04360158 -0.00542429
v -0.01779021 0.04881130 -0.00546666
v -0.01778414 0.04359465 -0.00400000
v -0.01779854 0.04881374 -0.00400000
v -0.01647221 0.02271838 -0.00400000
v -0.01578551 0.01831467 -0.00512588
v -0.01550827 0.01631170 -0.00400000
v -0.01528786 0.01531076 -0.00509777
v -0.00348241 0.03065712 -0.01477251
v -0.00520988 0.03056635 -0.01463792
v -0.01146184 0.02998867 -0.01327413
v -0.01004561 0.03015443 -0.01376144
v -0.00851605 0.03030958 -0.01414391
v -0.00689603 0.03044870 -0.01443223
v -0.01642106 0.02393637 -0.00646518
v -0.01698172 0.02898772 -0.00658187
v -0.01612444 0.02405069 -0.00768824
v -0.01669630 0.02907563 -0.00786107
v -0.01567104 0.02420065 -0.00883039
v -0.01625093 0.02919095 -0.00905236
v -0.01505221 0.02437921 -0.00987526
v -0.01563389 0.02932825 -0.01013783
v -0.01426603 0.02457928 -0.01081225
v -0.01484103 0.02948211 -0.01110606
v -0.01331647 0.02479381 -0.01163576
v -0.01387496 0.02964708 -0.01195137
v -0.01221266 0.02501575 -0.01234449
v -0.01274410 0.02981775 -0.01267296
v -0.01635574 0.03883643 -0.01061282
v -0.01604879 0.03408616 -0.01036429
v -0.01693216 0.03874230 -0.00946750
v -0.01665314 0.03397093 -0.00924666
v -0.01733031 0.03866323 -0.00819441
v -0.01708144 0.03387417 -0.00801423
v -0.01756955 0.03860296 -0.00681367
v -0.01734889 0.03380039 -0.00668633
v -0.01767987 0.03856520 -0.00535458
v -0.01748017 0.03375418 -0.00529055
v -0.01765679 0.03703064 -0.00400000
v -0.00377428 0.03974751 -0.01507382
v -0.01349902 0.03917204 -0.01319674
v -0.01218918 0.03928922 -0.01377714
v -0.01072455 0.03940287 -0.01423088
v -0.00912612 0.03950924 -0.01457144
v -0.00741775 0.03960462 -0.01481438
v -0.00562506 0.03968529 -0.01497630
v -0.01150168 0.04815178 -0.01404543
v -0.01155797 0.04804496 -0.01420553
v -0.01278095 0.04824135 -0.01384177
v -0.01160904 0.04788109 -0.01430919
v -0.01284492 0.04807609 -0.01394148
v -0.00070996 0.04700574 -0.01506884
v -0.00377070 0.04709538 -0.01504854
v -0.00656804 0.04728435 -0.01495895
v -0.00822059 0.04744393 -0.01484200
v -0.01012239 0.04767132 -0.01460763
v -0.00654823 0.04744509 -0.01485065
v -0.00819303 0.04760544 -0.01473433
v -0.01008329 0.04783398 -0.01450148
v -0.01330762 0.04815372 -0.01376450
v -0.01426681 0.04832183 -0.01330203
v -0.01510384 0.04847644 -0.01274838
v -0.01549700 0.04855172 -0.01241670
v -0.01610320 0.04867149 -0.01176840
v -0.01661071 0.04877584 -0.01102300
v -0.01677088 0.04880971 -0.01072622
v -0.01713701 0.04888916 -0.00985723
v -0.01740146 0.04894865 -0.00892124
v -0.01755336 0.04898385 -0.00810209
v -0.01768673 0.04901570 -0.00683042
v -0.01774049 0.04902915 -0.00546668
v -0.01774865 0.04903145 -0.00400000
v -0.01323792 0.04831963 -0.01366702
v -0.01418342 0.04848961 -0.01321137
v -0.01500643 0.04864636 -0.01266728
v -0.01539246 0.04872277 -0.01234174
v -0.01598740 0.04884431 -0.01170562
v -0.01648579 0.04895002 -0.01097344
v -0.01664329 0.04898426 -0.01068150
v -0.01700385 0.04906431 -0.00982496
v -0.01726494 0.04912394 -0.00889956
v -0.01741525 0.04915902 -0.00808757
v -0.01754746 0.04919052 -0.00682378
v -0.01760086 0.04920359 -0.00546496
v -0.01760895 0.04920571 -0.00400000
v -0.01270665 0.04834756 -0.01368509
v -0.01315529 0.04842548 -0.01351258
v -0.01407993 0.04859462 -0.01306446
v -0.01488022 0.04875031 -0.01253235
v -0.01525414 0.04882604 -0.01221522
v -0.01582916 0.04894627 -0.01159705
v -0.01631078 0.04905059 -0.01088593
v -0.01646324 0.04908432 -0.01060202
v -0.01681330 0.04916316 -0.00976687
v -0.01706818 0.04922180 -0.00886028
v -0.01721570 0.04925626 -0.00806119
v -0.01734616 0.04928710 -0.00681171
v -0.01739920 0.04929978 -0.00546182
v -0.01740732 0.04930177 -0.00400000
v 0.00070995 0.04700574 -0.01506884
v 0.01150167 0.04815178 -0.01404543
v 0.01270665 0.04834756 -0.01368509
v 0.01315529 0.04842548 -0.01351258
v 0.01407993 0.04859462 -0.01306446
v 0.01488022 0.04875031 -0.01253235
v 0.01525415 0.04882604 -0.01221522
v 0.01582916 0.04894627 -0.01159705
v 0.01631079 0.04905059 -0.01088593
v 0.01646324 0.04908432 -0.01060202
v 0.01681330 0.04916316 -0.00976688
v 0.01706818 0.04922180 -0.00886028
v 0.01721570 0.04925626 -0.00806119
v 0.01734616 0.04928710 -0.00681171
v 0.01739919 0.04929978 -0.00546182
v 0.01740732 0.04930177 -0.00400000
v 0.00654823 0.04744509 -0.01485065
v 0.00819303 0.04760544 -0.01473433
v 0.01008330 0.04783398 -0.01450148
v 0.01155796 0.04804496 -0.01420553
v 0.01278095 0.04824135 -0.01384177
v 0.01323792 0.04831963 -0.01366702
v 0.01418342 0.04848961 -0.01321137
v 0.01500643 0.04864636 -0.01266728
v 0.01539246 0.04872277 -0.01234174
v 0.01598739 0.04884431 -0.01170562
v 0.01648579 0.04895002 -0.01097344
v 0.01664329 0.04898426 -0.01068150
v 0.01700385 0.04906431 -0.00982496
v 0.01726493 0.04912394 -0.00889957
v 0.01741525 0.04915902 -0.00808757
v 0.01754747 0.04919051 -0.00682378
v 0.01760086 0.04920359 -0.00546496
v 0.01760896 0.04920571 -0.00400000
v 0.00377070 0.04709538 -0.01504853
v 0.00656804 0.04728435 -0.01495895
v 0.00822059 0.04744393 -0.01484200
v 0.01012239 0.04767133 -0.01460763
v 0.01160904 0.04788108 -0.01430919
v 0.01284492 0.04807609 -0.01394148
v 0.01330763 0.04815372 -0.01376450
v 0.01426681 0.04832183 -0.01330203
v 0.01510384 0.04847644 -0.01274838
v 0.01549700 0.04855172 -0.01241670
v 0.01610320 0.04867149 -0.01176840
v 0.01661070 0.04877584 -0.01102300
v 0.01677088 0.04880971 -0.01072622
v 0.01713702 0.04888916 -0.00985723
v 0.01740146 0.04894865 -0.00892123
v 0.01755336 0.04898385 -0.00810209
v 0.01768672 0.04901570 -0.00683042
v 0.01774049 0.04902915 -0.00546669
v 0.01774865 0.04903145 -0.00400000
v 0.01337035 0.00774622 -0.00330000
v 0.01430658 0.01067088 -0.00330000
v 0.01459128 0.01175687 -0.00330000
v 0.01506866 0.01388296 -0.00330000
v 0.01550827 0.01631170 -0.00330000
v 0.01614590 0.02037811 -0.00330000
v 0.01564252 0.01712612 -0.00330000
v 0.01696916 0.02691061 -0.00330000
v 0.01647220 0.02271838 -0.00330000
v 0.01766624 0.03731052 -0.00330000
v 0.01765679 0.03703064 -0.00330000
v 0.01749603 0.03347521 -0.00330000
v 0.01722531 0.02962813 -0.00330000
v 0.01775650 0.04114586 -0.00330000
v 0.01779854 0.04881374 -0.00330000
v 0.00142260 -0.00215922 -0.00330000
v 0.00000000 -0.00221431 -0.00330000
v 0.00332522 -0.00189568 -0.00330000
v 0.00290930 -0.00197346 -0.00330000
v 0.00547812 -0.00129084 -0.00330000
v 0.00434465 -0.00165338 -0.00330000
v 0.00781389 -0.00014398 -0.00330000
v 0.00750571 -0.00033397 -0.00330000
v 0.00669392 -0.00077295 -0.00330000
v 0.00553690 -0.00126913 -0.00330000
v 0.00894503 0.00068838 -0.00330000
v 0.00798790 -0.00003037 -0.00330000
v 0.01069856 0.00256801 -0.00330000
v 0.01065137 0.00250521 -0.00330000
v 0.01060370 0.00244255 -0.00330000
v 0.00981737 0.00151501 -0.00330000
v 0.00924158 0.00094855 -0.00330000
v 0.01279822 0.00631216 -0.00330000
v 0.01147285 0.00371703 -0.00330000
v 0.01197803 0.00460198 -0.00330000
v 0.01216856 0.00496716 -0.00330000
v 0.00000000 -0.00217412 -0.00315000
v -0.00000000 -0.00206431 -0.00304019
v 0.00141943 -0.00211915 -0.00315000
v 0.00141078 -0.00200969 -0.00304019
v 0.00290245 -0.00193384 -0.00315000
v 0.00433399 -0.00161463 -0.00315000
v 0.00546428 -0.00125311 -0.00315000
v 0.00667622 -0.00073686 -0.00315000
v 0.00779224 -0.00011012 -0.00315000
v 0.00796561 0.00000308 -0.00315000
v 0.00891910 0.00071909 -0.00315000
v 0.00978813 0.00154259 -0.00315000
v 0.01057178 0.00246698 -0.00315000
v 0.01066635 0.00259205 -0.00315000
v 0.01213275 0.00498539 -0.00315000
v 0.01143854 0.00373797 -0.00315000
v 0.01276132 0.00632808 -0.00315000
v 0.01333265 0.00776014 -0.00315000
v 0.00288375 -0.00182564 -0.00304019
v 0.00430486 -0.00150876 -0.00304019
v 0.00542646 -0.00115002 -0.00304019
v 0.00662785 -0.00063828 -0.00304019
v 0.00773309 -0.00001760 -0.00304019
v 0.00790471 0.00009445 -0.00304019
v 0.00884827 0.00080300 -0.00304019
v 0.00970824 0.00161793 -0.00304019
v 0.01048460 0.00253373 -0.00304019
v 0.01057837 0.00265776 -0.00304019
v 0.01134480 0.00379516 -0.00304019
v 0.01203489 0.00503520 -0.00304019
v 0.01266049 0.00637157 -0.00304019
v 0.01322964 0.00779820 -0.00304019
v -0.00142261 -0.00215922 -0.00330000
v -0.00547812 -0.00129085 -0.00330000
v -0.00553690 -0.00126912 -0.00330000
v -0.01279822 0.00631216 -0.00330000
v -0.01337035 0.00774622 -0.00330000
v -0.01216856 0.00496716 -0.00330000
v -0.01197802 0.00460198 -0.00330000
v -0.01147285 0.00371703 -0.00330000
v -0.01069856 0.00256801 -0.00330000
v -0.01065137 0.00250521 -0.00330000
v -0.00750571 -0.00033397 -0.00330000
v -0.00781389 -0.00014398 -0.00330000
v -0.00798790 -0.00003037 -0.00330000
v -0.00894503 0.00068838 -0.00330000
v -0.00924158 0.00094856 -0.00330000
v -0.00981736 0.00151500 -0.00330000
v -0.01060370 0.00244255 -0.00330000
v -0.00669392 -0.00077295 -0.00330000
v -0.00434465 -0.00165338 -0.00330000
v -0.00332522 -0.00189568 -0.00330000
v -0.00290930 -0.00197345 -0.00330000
v -0.01057178 0.00246698 -0.00315000
v -0.00141079 -0.00200969 -0.00304019
v -0.00290246 -0.00193385 -0.00315000
v -0.00141944 -0.00211916 -0.00315000
v -0.00433399 -0.00161463 -0.00315000
v -0.00546428 -0.00125311 -0.00315000
v -0.00667621 -0.00073687 -0.00315000
v -0.00891910 0.00071910 -0.00315000
v -0.00796561 0.00000308 -0.00315000
v -0.00779224 -0.00011011 -0.00315000
v -0.00978813 0.00154259 -0.00315000
v -0.01066635 0.00259205 -0.00315000
v -0.01143854 0.00373797 -0.00315000
v -0.00288375 -0.00182564 -0.00304019
v -0.00430486 -0.00150876 -0.00304019
v -0.00542646 -0.00115002 -0.00304019
v -0.00662785 -0.00063828 -0.00304019
v -0.00773308 -0.00001760 -0.00304019
v -0.00790471 0.00009445 -0.00304019
v -0.00884827 0.00080300 -0.00304019
v -0.00970825 0.00161793 -0.00304019
v -0.01048459 0.00253373 -0.00304019
v -0.01057837 0.00265776 -0.00304019
v -0.01134480 0.00379515 -0.00304019
v -0.01203488 0.00503521 -0.00304019
v -0.01266049 0.00637157 -0.00304019
v -0.01322964 0.00779820 -0.00304019
v -0.01213275 0.00498539 -0.00315000
v -0.01276132 0.00632808 -0.00315000
v -0.01333265 0.00776015 -0.00315000
v -0.01766624 0.03731051 -0.00330000
v -0.01775650 0.04114585 -0.00330000
v -0.01779854 0.04881374 -0.00330000
v -0.01749602 0.03347521 -0.00330000
v -0.01765679 0.03703065 -0.00330000
v -0.01696916 0.02691061 -0.00330000
v -0.01722531 0.02962814 -0.00330000
v -0.01550827 0.01631171 -0.00330000
v -0.01564252 0.01712612 -0.00330000
v -0.01614590 0.02037812 -0.00330000
v -0.01647221 0.02271838 -0.00330000
v -0.01506866 0.01388297 -0.00330000
v -0.01459129 0.01175687 -0.00330000
v -0.01430658 0.01067088 -0.00330000
v -0.01777570 0.04881375 -0.00318520
v -0.01416200 0.01071082 -0.00304019
v -0.01426784 0.01068158 -0.00315000
v -0.01771632 0.04114648 -0.00315000
v -0.01775834 0.04881374 -0.00315000
v -0.01760652 0.04114816 -0.00304019
v -0.01764854 0.04881374 -0.00304019
v -0.01771067 0.04881375 -0.00308787
v -0.01762607 0.03731184 -0.00315000
v -0.01745589 0.03347749 -0.00315000
v -0.01610613 0.02038393 -0.00315000
v -0.01692919 0.02691478 -0.00315000
v -0.01502926 0.01389092 -0.00315000
v -0.01560285 0.01713258 -0.00315000
v -0.01492163 0.01391264 -0.00304019
v -0.01549448 0.01715023 -0.00304019
v -0.01599748 0.02039982 -0.00304019
v -0.01681997 0.02692615 -0.00304019
v -0.01734626 0.03348370 -0.00304019
v -0.01751632 0.03731546 -0.00304019
v -0.01775749 0.04901215 -0.00330307
v -0.01778509 0.04892895 -0.00330000
v -0.01735355 0.04931071 -0.00343295
v -0.01754123 0.04925090 -0.00336531
v -0.01738083 0.04930693 -0.00342267
v -0.01773800 0.04905222 -0.00330697
v -0.01766589 0.04915293 -0.00332577
v -0.01760647 0.04920767 -0.00334387
v -0.01762462 0.04917349 -0.00323802
v -0.01749842 0.04926414 -0.00330605
v -0.01732887 0.04931128 -0.00340688
v -0.01776286 0.04892369 -0.00318520
v -0.01770632 0.04906674 -0.00320049
v -0.01730408 0.04930757 -0.00338119
v -0.01744930 0.04926048 -0.00325042
v -0.01756378 0.04916960 -0.00315985
v -0.01764229 0.04905928 -0.00310886
v -0.01769958 0.04890870 -0.00308787
v -0.01739690 0.04924015 -0.00320183
v -0.01749002 0.04914165 -0.00309979
v -0.01755483 0.04903087 -0.00304486
v -0.01760487 0.04888628 -0.00302284
v -0.01745614 0.04898549 -0.00301742
v 0.01502927 0.01389092 -0.00315000
v 0.01426784 0.01068158 -0.00315000
v 0.01416200 0.01071081 -0.00304019
v 0.01764854 0.04881374 -0.00304019
v 0.01775835 0.04881374 -0.00315000
v 0.01760652 0.04114817 -0.00304019
v 0.01771632 0.04114648 -0.00315000
v 0.01762607 0.03731184 -0.00315000
v 0.01692919 0.02691478 -0.00315000
v 0.01745590 0.03347749 -0.00315000
v 0.01751632 0.03731546 -0.00304019
v 0.01734627 0.03348370 -0.00304019
v 0.01681997 0.02692614 -0.00304019
v 0.01599748 0.02039981 -0.00304019
v 0.01549447 0.01715023 -0.00304019
v 0.01610613 0.02038393 -0.00315000
v 0.01560285 0.01713258 -0.00315000
v 0.01492162 0.01391264 -0.00304019
v 0.01732060 0.04931052 -0.00339826
v 0.01735355 0.04931071 -0.00343295
v 0.01738493 0.04930623 -0.00342113
v 0.01728765 0.04930275 -0.00336444
v 0.01734441 0.04920439 -0.00316328
v 0.01741454 0.04924872 -0.00321705
v 0.01735454 0.04919044 -0.00314661
v 0.01751556 0.04915350 -0.00311735
v 0.01741140 0.04909272 -0.00306441
v 0.01745614 0.04898550 -0.00301742
v 0.01758588 0.04904248 -0.00306248
v 0.01763912 0.04889439 -0.00304019
v 0.01748260 0.04926481 -0.00328692
v 0.01760622 0.04917495 -0.00321044
v 0.01768822 0.04906670 -0.00316761
v 0.01774597 0.04891969 -0.00315000
v 0.01754123 0.04925090 -0.00336531
v 0.01760859 0.04920600 -0.00334320
v 0.01766590 0.04915293 -0.00332577
v 0.01773800 0.04905222 -0.00330697
v 0.01778509 0.04892895 -0.00330000
f 50 1 815
f 799 800 572
f 214 143 213
f 169 170 167
f 172 170 169
f 172 159 170
f 31 819 32
f 50 815 814
f 473 439 438
f 585 797 795
f 800 799 801
f 801 802 800
f 808 802 801
f 801 799 805
f 205 206 128
f 534 588 606
f 803 585 795
f 795 797 803
f 837 806 1
f 842 840 1
f 141 143 214
f 151 150 622
f 197 150 151
f 151 195 197
f 197 195 202
f 202 195 201
f 133 128 206
f 816 818 817
f 693 817 707
f 707 817 818
f 813 814 815
f 813 815 1
f 282 59 281
f 782 763 762
f 524 488 486
f 559 799 558
f 476 473 438
f 475 473 476
f 522 520 523
f 522 524 486
f 95 431 94
f 797 585 586
f 572 800 796
f 800 802 796
f 796 586 585
f 796 802 797
f 797 586 796
f 807 802 808
f 1 806 807
f 806 803 807
f 797 802 807
f 807 803 797
f 124 125 130
f 191 206 205
f 191 192 206
f 205 128 123
f 130 125 123
f 125 124 127
f 834 803 806
f 806 837 834
f 835 803 834
f 843 1 32
f 843 842 1
f 840 842 841
f 199 195 151
f 151 141 199
f 199 141 214
f 152 142 143
f 143 141 152
f 152 141 151
f 70 156 260
f 260 71 70
f 166 156 70
f 214 213 163
f 210 167 166
f 166 211 210
f 210 211 136
f 136 149 138
f 138 210 136
f 605 546 606
f 605 545 546
f 604 545 605
f 464 448 447
f 202 448 464
f 464 196 202
f 541 622 621
f 621 622 150
f 603 622 541
f 604 622 603
f 603 545 604
f 96 431 95
f 66 159 65
f 170 159 66
f 168 156 166
f 166 167 168
f 168 167 170
f 267 269 316
f 106 397 105
f 105 397 386
f 218 277 276
f 462 106 105
f 193 192 177
f 177 175 193
f 193 175 194
f 174 172 173
f 173 175 174
f 194 175 173
f 173 172 169
f 169 194 173
f 61 62 282
f 60 59 282
f 316 269 315
f 255 315 314
f 316 315 254
f 254 315 255
f 32 33 38
f 827 41 40
f 40 38 39
f 32 38 40
f 40 41 32
f 809 801 805
f 808 801 809
f 812 813 1
f 808 809 812
f 812 809 813
f 35 45 694
f 2 35 37
f 45 35 2
f 816 817 642
f 58 281 59
f 289 58 57
f 282 281 280
f 280 289 279
f 281 58 280
f 58 289 280
f 697 2 37
f 304 302 663
f 775 755 774
f 758 755 775
f 814 778 52
f 52 1 50
f 491 761 794
f 559 558 794
f 488 524 760
f 489 558 557
f 491 794 489
f 489 794 558
f 525 440 762
f 525 522 523
f 524 522 525
f 771 770 449
f 15 24 25
f 568 569 582
f 582 569 583
f 570 569 557
f 570 583 569
f 557 558 570
f 596 580 597
f 564 565 579
f 579 565 580
f 471 473 472
f 486 485 484
f 484 522 486
f 520 522 484
f 481 520 484
f 438 439 437
f 458 508 510
f 91 90 452
f 455 91 452
f 92 91 455
f 455 508 458
f 458 94 93
f 93 455 458
f 92 455 93
f 93 94 431
f 601 803 835
f 585 803 601
f 126 127 124
f 128 135 129
f 129 123 128
f 130 123 129
f 190 191 205
f 181 191 190
f 125 127 203
f 203 127 653
f 650 649 823
f 835 834 836
f 32 819 845
f 845 843 32
f 639 853 854
f 1 840 838
f 839 841 847
f 840 841 839
f 839 838 840
f 839 837 1
f 1 838 839
f 212 213 145
f 145 213 143
f 143 142 145
f 142 144 145
f 623 622 604
f 604 605 623
f 151 622 623
f 623 152 151
f 259 71 260
f 260 261 259
f 259 261 71
f 262 261 260
f 262 315 269
f 260 314 262
f 262 314 315
f 270 262 269
f 261 262 270
f 162 199 214
f 214 163 162
f 162 163 155
f 164 213 212
f 164 163 213
f 155 163 164
f 210 138 209
f 169 167 209
f 167 210 209
f 209 194 169
f 138 139 131
f 196 464 198
f 150 197 198
f 198 621 150
f 202 196 198
f 198 197 202
f 540 464 447
f 447 541 540
f 541 621 540
f 541 545 544
f 544 603 541
f 545 603 544
f 467 537 465
f 466 467 465
f 431 96 430
f 499 500 461
f 103 386 385
f 170 66 171
f 397 106 107
f 87 107 463
f 463 497 496
f 463 107 106
f 463 462 497
f 106 462 463
f 87 55 329
f 78 277 329
f 329 55 78
f 277 328 329
f 398 386 397
f 217 277 218
f 217 328 277
f 217 216 327
f 327 399 217
f 399 328 217
f 530 500 499
f 499 529 530
f 531 530 466
f 500 530 531
f 496 497 533
f 207 133 206
f 206 192 207
f 192 193 207
f 207 131 133
f 158 172 174
f 159 172 158
f 282 62 63
f 63 60 282
f 181 120 183
f 183 120 182
f 64 158 61
f 65 159 64
f 159 158 64
f 312 66 310
f 310 258 312
f 310 66 65
f 65 64 310
f 310 64 61
f 310 61 282
f 282 258 310
f 255 314 256
f 256 309 255
f 237 238 242
f 237 235 252
f 316 254 253
f 253 237 252
f 254 238 253
f 238 237 253
f 362 335 388
f 379 333 334
f 334 335 379
f 730 677 49
f 730 676 677
f 655 676 656
f 644 832 816
f 833 33 818
f 833 818 816
f 816 832 833
f 819 31 30
f 30 821 819
f 30 31 32
f 827 823 826
f 829 40 39
f 39 38 829
f 33 6 14
f 6 28 14
f 818 33 14
f 14 707 818
f 811 807 808
f 808 812 811
f 1 807 811
f 811 812 1
f 682 697 696
f 696 697 37
f 6 2 10
f 49 677 43
f 43 44 49
f 677 44 43
f 45 44 679
f 694 45 679
f 679 44 677
f 677 676 679
f 12 747 13
f 13 46 12
f 21 46 13
f 49 44 48
f 48 730 49
f 32 1 48
f 48 6 33
f 48 33 32
f 48 2 6
f 45 2 48
f 48 44 45
f 754 19 755
f 755 758 754
f 20 19 754
f 640 817 693
f 641 642 817
f 817 640 641
f 59 60 116
f 57 58 114
f 282 280 293
f 295 309 293
f 293 258 282
f 293 256 258
f 309 256 293
f 320 321 244
f 244 275 320
f 244 323 275
f 240 306 301
f 301 306 300
f 300 285 284
f 284 301 300
f 302 301 284
f 307 298 299
f 300 306 299
f 286 298 287
f 287 291 286
f 286 291 285
f 286 285 300
f 300 299 286
f 286 299 298
f 297 307 242
f 297 298 307
f 2 697 698
f 684 698 683
f 683 698 697
f 683 697 682
f 8 19 20
f 750 5 9
f 9 8 752
f 9 12 19
f 19 8 9
f 775 774 785
f 785 771 775
f 770 771 785
f 755 19 18
f 18 774 755
f 50 814 51
f 51 52 50
f 814 52 51
f 53 52 778
f 778 792 53
f 54 52 53
f 53 792 54
f 805 799 798
f 798 799 559
f 776 792 778
f 778 780 776
f 488 760 490
f 491 489 490
f 490 489 488
f 490 761 491
f 490 760 761
f 779 778 814
f 779 780 778
f 814 813 810
f 813 809 810
f 810 779 814
f 780 779 810
f 810 809 805
f 487 489 557
f 487 485 486
f 486 488 487
f 488 489 487
f 782 762 765
f 762 440 765
f 440 764 765
f 54 792 791
f 790 791 782
f 524 525 526
f 763 759 526
f 526 762 763
f 526 525 762
f 526 760 524
f 526 759 760
f 772 771 449
f 775 771 772
f 772 758 775
f 712 758 772
f 481 478 518
f 518 520 481
f 451 493 502
f 451 504 452
f 502 504 451
f 451 495 493
f 569 568 556
f 557 569 556
f 556 487 557
f 485 487 556
f 554 568 567
f 583 570 584
f 571 570 558
f 571 799 572
f 571 558 799
f 572 796 571
f 571 796 585
f 585 584 571
f 571 584 570
f 582 597 581
f 581 597 580
f 581 568 582
f 581 567 568
f 134 135 128
f 134 133 132
f 128 133 134
f 560 574 536
f 594 579 595
f 595 612 594
f 595 580 596
f 595 579 580
f 474 473 475
f 474 472 473
f 549 472 474
f 475 550 474
f 474 550 549
f 481 482 480
f 480 478 481
f 480 479 478
f 480 482 554
f 551 550 475
f 564 550 551
f 551 565 564
f 477 476 478
f 478 479 477
f 475 476 477
f 477 551 475
f 483 482 481
f 481 484 483
f 483 484 485
f 485 556 483
f 457 94 458
f 458 510 457
f 95 94 457
f 457 96 95
f 512 515 514
f 96 457 512
f 512 457 510
f 89 88 454
f 181 190 180
f 180 190 189
f 180 120 181
f 831 648 824
f 125 203 204
f 204 190 205
f 189 190 204
f 204 203 189
f 205 123 204
f 204 123 125
f 188 203 653
f 653 649 188
f 188 649 650
f 189 203 188
f 650 651 188
f 188 651 189
f 822 653 654
f 822 649 653
f 822 823 649
f 821 826 822
f 822 826 823
f 819 821 822
f 843 845 844
f 842 843 844
f 844 841 842
f 847 841 844
f 215 854 654
f 126 854 215
f 127 126 215
f 654 653 215
f 653 127 215
f 147 145 144
f 136 211 147
f 147 211 212
f 212 145 147
f 625 626 144
f 625 144 142
f 624 623 605
f 624 625 142
f 142 152 624
f 152 623 624
f 624 605 606
f 606 625 624
f 271 270 218
f 261 270 271
f 218 276 271
f 276 73 271
f 218 270 268
f 269 267 268
f 268 270 269
f 195 199 161
f 199 162 161
f 161 201 195
f 165 164 212
f 165 211 166
f 212 211 165
f 164 165 154
f 154 70 71
f 166 70 154
f 154 165 166
f 606 588 589
f 137 138 149
f 137 139 138
f 140 139 631
f 140 131 139
f 140 632 132
f 631 632 140
f 132 133 140
f 133 131 140
f 587 540 621
f 587 198 464
f 621 198 587
f 535 537 536
f 606 546 535
f 535 534 606
f 471 472 470
f 547 469 470
f 538 537 467
f 467 469 538
f 538 469 547
f 536 537 538
f 547 560 538
f 538 560 536
f 468 467 466
f 468 469 467
f 466 530 468
f 468 530 529
f 468 529 471
f 471 470 468
f 468 470 469
f 543 465 537
f 543 535 546
f 537 535 543
f 465 543 443
f 471 529 528
f 528 515 439
f 439 473 528
f 528 473 471
f 498 529 499
f 499 461 498
f 498 528 529
f 515 528 498
f 514 515 498
f 105 386 104
f 386 103 104
f 104 462 105
f 104 103 462
f 102 461 500
f 102 500 462
f 462 103 102
f 101 461 102
f 385 101 102
f 102 103 385
f 383 101 385
f 385 382 383
f 383 382 101
f 69 68 313
f 260 156 69
f 69 313 260
f 69 157 68
f 156 168 69
f 168 157 69
f 67 66 312
f 67 171 66
f 68 157 67
f 67 157 168
f 67 168 170
f 170 171 67
f 332 107 87
f 87 329 332
f 397 107 332
f 332 329 328
f 332 398 397
f 332 328 399
f 399 398 332
f 395 398 399
f 76 73 276
f 155 73 76
f 261 271 75
f 500 531 501
f 497 462 501
f 462 500 501
f 445 443 444
f 465 443 445
f 466 465 445
f 445 531 466
f 532 533 497
f 497 501 532
f 532 501 531
f 444 533 532
f 532 445 444
f 531 445 532
f 527 201 496
f 496 533 527
f 202 201 527
f 527 448 202
f 131 207 208
f 194 209 208
f 208 193 194
f 208 207 193
f 208 209 138
f 138 131 208
f 181 183 184
f 184 191 181
f 177 192 184
f 192 191 184
f 255 309 243
f 243 254 255
f 243 238 254
f 243 309 295
f 257 256 314
f 312 258 257
f 258 256 257
f 313 68 257
f 260 313 257
f 257 314 260
f 257 67 312
f 68 67 257
f 376 378 375
f 251 318 252
f 252 235 251
f 235 233 251
f 232 321 320
f 320 233 232
f 307 299 241
f 241 299 306
f 318 251 263
f 252 318 317
f 316 253 317
f 317 253 252
f 317 267 316
f 317 265 267
f 317 318 265
f 389 323 370
f 221 655 330
f 656 331 330
f 330 655 656
f 676 730 732
f 732 708 656
f 656 676 732
f 412 363 414
f 364 414 363
f 365 414 364
f 682 696 681
f 658 655 221
f 248 246 247
f 303 302 304
f 220 658 221
f 657 658 220
f 643 644 816
f 122 644 643
f 816 642 643
f 831 832 646
f 832 644 646
f 646 644 122
f 34 38 33
f 33 833 34
f 32 41 42
f 42 30 32
f 42 41 827
f 827 826 42
f 821 30 42
f 42 826 821
f 830 829 38
f 38 34 830
f 830 34 833
f 830 833 832
f 830 832 831
f 831 829 830
f 7 28 6
f 7 6 702
f 702 26 7
f 691 673 674
f 703 26 702
f 26 703 704
f 704 703 691
f 692 640 693
f 693 707 692
f 707 14 29
f 29 14 28
f 37 35 36
f 36 696 37
f 35 696 36
f 702 6 701
f 701 688 702
f 687 688 701
f 694 679 678
f 655 658 678
f 676 655 678
f 678 679 676
f 11 5 750
f 11 9 5
f 12 9 11
f 4 12 46
f 19 12 4
f 46 48 4
f 4 48 19
f 744 743 46
f 733 743 744
f 46 21 22
f 21 745 22
f 22 744 46
f 745 744 22
f 46 743 47
f 47 48 46
f 730 48 742
f 742 732 730
f 742 47 743
f 48 47 742
f 19 48 17
f 17 48 1
f 757 754 758
f 757 758 712
f 20 754 753
f 753 8 20
f 752 8 753
f 756 752 753
f 753 757 756
f 754 757 753
f 279 289 229
f 279 227 225
f 225 290 279
f 674 673 225
f 287 290 222
f 223 291 222
f 222 291 287
f 57 641 56
f 115 58 59
f 59 116 115
f 115 114 58
f 116 114 115
f 186 183 182
f 160 63 62
f 160 158 174
f 62 61 160
f 61 158 160
f 182 122 187
f 187 114 116
f 122 643 187
f 187 643 114
f 187 186 182
f 116 186 187
f 283 663 302
f 302 284 283
f 287 298 288
f 298 297 288
f 279 290 288
f 288 290 287
f 699 698 684
f 668 688 669
f 669 688 687
f 668 667 689
f 689 688 668
f 689 667 673
f 673 691 689
f 691 703 689
f 702 688 689
f 689 703 702
f 285 291 224
f 789 25 24
f 774 18 16
f 16 18 19
f 16 17 15
f 19 17 16
f 559 794 793
f 793 798 559
f 805 798 793
f 773 794 761
f 761 760 773
f 760 776 773
f 792 776 781
f 782 791 781
f 781 791 792
f 781 763 782
f 781 759 763
f 760 759 781
f 781 776 760
f 442 503 502
f 502 493 442
f 23 52 54
f 54 791 23
f 791 790 23
f 23 789 24
f 790 789 23
f 23 24 15
f 1 52 23
f 23 17 1
f 15 17 23
f 784 765 764
f 784 764 769
f 782 765 784
f 784 790 782
f 86 772 449
f 508 455 506
f 452 504 506
f 506 455 452
f 505 504 502
f 502 503 505
f 438 437 517
f 449 770 450
f 770 495 450
f 450 86 449
f 88 86 450
f 454 88 450
f 493 495 494
f 494 495 770
f 495 451 453
f 454 450 453
f 453 450 495
f 453 451 452
f 452 90 453
f 90 89 453
f 453 89 454
f 555 568 554
f 555 556 568
f 555 483 556
f 554 482 555
f 482 483 555
f 580 565 566
f 566 581 580
f 567 581 566
f 592 610 609
f 594 612 611
f 578 579 594
f 564 579 578
f 132 632 633
f 633 134 132
f 635 129 135
f 548 472 549
f 547 470 548
f 548 470 472
f 561 560 547
f 547 548 561
f 612 595 613
f 613 632 631
f 631 612 613
f 613 595 596
f 97 512 514
f 97 430 96
f 513 512 510
f 513 437 439
f 439 515 513
f 515 512 513
f 602 850 601
f 836 850 602
f 602 601 835
f 835 836 602
f 846 850 836
f 846 836 834
f 846 839 847
f 847 850 846
f 846 834 837
f 837 839 846
f 639 854 638
f 638 854 126
f 585 601 600
f 600 584 585
f 583 584 600
f 599 600 618
f 583 600 599
f 650 823 825
f 825 651 650
f 825 823 827
f 652 651 825
f 825 824 652
f 182 120 121
f 179 180 189
f 189 651 179
f 179 651 652
f 827 40 828
f 828 825 827
f 824 825 828
f 40 829 828
f 828 829 831
f 831 824 828
f 652 824 647
f 647 824 648
f 648 121 647
f 647 179 652
f 647 121 120
f 120 180 647
f 180 179 647
f 849 854 853
f 628 627 609
f 609 610 628
f 607 589 590
f 606 589 607
f 607 625 606
f 626 625 607
f 144 626 146
f 146 147 144
f 626 627 146
f 267 265 266
f 266 268 267
f 266 265 216
f 216 217 266
f 266 217 218
f 218 268 266
f 78 55 117
f 117 463 496
f 117 55 87
f 87 463 117
f 536 574 573
f 573 535 536
f 534 535 573
f 464 540 539
f 539 587 464
f 540 587 539
f 444 443 446
f 448 527 446
f 446 533 444
f 446 527 533
f 446 541 447
f 447 448 446
f 542 443 543
f 542 545 541
f 541 446 542
f 542 446 443
f 546 545 542
f 542 543 546
f 100 461 101
f 101 382 100
f 100 498 461
f 98 433 436
f 430 97 436
f 436 97 98
f 382 374 436
f 436 433 382
f 396 399 327
f 396 395 399
f 327 391 396
f 333 378 381
f 398 395 393
f 395 381 393
f 77 276 277
f 77 76 276
f 77 277 78
f 71 261 72
f 261 75 72
f 72 154 71
f 164 154 72
f 155 164 72
f 72 75 155
f 74 271 73
f 74 75 271
f 74 73 155
f 155 75 74
f 308 297 242
f 242 238 308
f 238 243 308
f 308 243 295
f 346 344 345
f 373 374 376
f 376 375 373
f 361 335 362
f 379 335 361
f 347 716 345
f 345 348 347
f 239 322 321
f 321 232 239
f 239 232 240
f 235 237 236
f 236 237 242
f 242 307 236
f 307 241 236
f 275 323 324
f 324 263 275
f 324 323 389
f 275 263 319
f 319 263 251
f 320 275 319
f 319 233 320
f 319 251 233
f 327 216 264
f 216 265 264
f 265 318 264
f 318 263 264
f 323 244 274
f 274 370 323
f 244 246 274
f 246 273 274
f 368 370 274
f 274 273 368
f 387 388 389
f 389 370 387
f 362 388 387
f 370 364 387
f 387 363 362
f 387 364 363
f 221 330 249
f 248 247 249
f 249 220 221
f 249 247 322
f 365 364 369
f 369 370 368
f 369 364 370
f 708 337 336
f 656 708 336
f 336 331 656
f 250 330 331
f 331 336 250
f 248 249 250
f 250 249 330
f 657 681 680
f 680 658 657
f 694 678 680
f 680 678 658
f 695 681 696
f 695 35 694
f 695 696 35
f 694 680 695
f 695 680 681
f 682 681 659
f 245 247 246
f 245 244 321
f 245 246 244
f 321 322 245
f 322 247 245
f 305 301 302
f 302 303 305
f 303 239 305
f 240 301 305
f 305 239 240
f 660 681 657
f 657 220 660
f 660 659 681
f 304 659 660
f 118 643 642
f 114 643 118
f 57 114 118
f 118 641 57
f 642 641 118
f 690 691 674
f 690 692 705
f 705 704 690
f 690 704 691
f 27 705 28
f 27 704 705
f 26 704 27
f 28 7 27
f 27 7 26
f 706 692 707
f 705 692 706
f 707 29 706
f 28 705 706
f 706 29 28
f 6 10 700
f 700 701 6
f 687 701 700
f 12 11 749
f 749 11 750
f 725 710 735
f 734 709 733
f 733 744 734
f 734 710 709
f 734 735 710
f 734 744 745
f 745 735 734
f 732 742 731
f 708 732 731
f 731 743 733
f 731 742 743
f 711 713 756
f 756 757 711
f 711 757 712
f 230 289 57
f 230 229 289
f 228 227 279
f 279 229 228
f 640 692 672
f 672 230 640
f 229 230 672
f 672 228 229
f 692 690 672
f 311 667 668
f 223 222 311
f 311 669 223
f 668 669 311
f 226 222 290
f 226 225 673
f 226 311 222
f 673 667 226
f 667 311 226
f 83 641 84
f 183 186 178
f 178 184 183
f 177 184 178
f 272 367 368
f 368 273 272
f 248 250 272
f 272 250 367
f 272 246 248
f 272 273 246
f 663 283 662
f 684 683 662
f 662 683 663
f 292 283 284
f 292 284 285
f 285 224 292
f 292 224 665
f 296 288 297
f 296 308 295
f 297 308 296
f 2 698 3
f 698 699 3
f 3 10 2
f 3 700 10
f 699 700 3
f 223 669 670
f 670 669 687
f 670 291 223
f 670 224 291
f 751 740 750
f 750 9 751
f 751 9 752
f 741 752 756
f 741 751 752
f 740 751 741
f 15 25 788
f 25 789 788
f 493 494 768
f 768 494 767
f 777 776 780
f 777 773 776
f 780 810 777
f 503 442 441
f 440 525 441
f 441 764 440
f 441 442 764
f 441 525 523
f 523 503 441
f 769 764 492
f 764 442 492
f 492 768 769
f 492 442 493
f 493 768 492
f 772 86 85
f 507 506 504
f 504 505 507
f 521 503 523
f 521 505 503
f 523 520 521
f 520 518 521
f 438 517 516
f 516 476 438
f 478 476 516
f 516 518 478
f 509 517 437
f 509 507 517
f 508 506 509
f 506 507 509
f 766 494 770
f 767 494 766
f 770 785 766
f 553 480 554
f 554 567 553
f 567 566 553
f 479 480 553
f 591 592 609
f 610 592 593
f 593 611 610
f 594 611 593
f 593 578 594
f 577 578 593
f 610 611 629
f 629 628 610
f 629 137 149
f 149 628 629
f 634 635 135
f 634 633 615
f 135 134 634
f 134 633 634
f 130 129 636
f 129 635 636
f 636 124 130
f 562 548 549
f 562 561 548
f 615 633 614
f 614 613 596
f 614 633 632
f 632 613 614
f 596 597 614
f 597 615 614
f 96 512 456
f 456 97 96
f 512 97 456
f 459 97 514
f 98 97 459
f 437 513 511
f 511 513 510
f 511 509 437
f 511 510 508
f 508 509 511
f 619 638 618
f 601 850 619
f 619 600 601
f 618 600 619
f 598 597 582
f 582 583 598
f 583 599 598
f 645 122 182
f 182 121 645
f 645 646 122
f 645 121 648
f 645 648 831
f 831 646 645
f 848 844 845
f 845 849 848
f 847 844 848
f 848 849 853
f 820 845 819
f 820 849 845
f 819 822 820
f 820 822 654
f 654 854 820
f 854 849 820
f 608 607 590
f 608 591 609
f 590 591 608
f 609 627 608
f 608 627 626
f 626 607 608
f 148 146 627
f 148 628 149
f 627 628 148
f 148 149 136
f 136 147 148
f 147 146 148
f 201 161 200
f 161 117 200
f 496 201 200
f 200 117 496
f 382 433 99
f 99 433 98
f 98 459 99
f 99 459 514
f 394 334 333
f 333 381 394
f 391 334 394
f 394 396 391
f 395 396 394
f 394 381 395
f 386 398 392
f 398 393 392
f 385 386 392
f 76 77 153
f 153 162 155
f 155 76 153
f 153 161 162
f 153 77 78
f 78 117 153
f 153 117 161
f 417 346 713
f 420 361 418
f 418 419 420
f 362 363 418
f 418 361 362
f 418 363 412
f 424 428 422
f 429 428 424
f 429 373 375
f 375 428 429
f 427 361 420
f 420 422 427
f 427 422 428
f 379 361 427
f 88 89 400
f 400 401 88
f 402 86 88
f 88 401 402
f 344 346 403
f 345 344 403
f 403 348 345
f 349 347 348
f 219 239 303
f 219 303 304
f 322 239 219
f 304 660 219
f 219 660 220
f 219 249 322
f 220 249 219
f 234 236 241
f 240 232 234
f 235 236 234
f 234 306 240
f 234 241 306
f 234 233 235
f 234 232 233
f 263 324 325
f 337 360 338
f 338 336 337
f 367 250 338
f 338 250 336
f 365 369 366
f 366 338 365
f 367 338 366
f 368 367 366
f 366 369 368
f 664 683 682
f 682 659 664
f 663 683 664
f 304 663 664
f 664 659 304
f 685 699 684
f 685 700 699
f 747 12 748
f 12 749 748
f 749 739 748
f 748 737 747
f 412 414 413
f 414 357 413
f 413 357 356
f 733 709 726
f 359 357 414
f 359 414 365
f 360 726 359
f 365 338 359
f 359 338 360
f 725 356 358
f 356 357 358
f 358 710 725
f 709 710 358
f 357 359 358
f 358 726 709
f 358 359 726
f 747 737 746
f 737 738 746
f 746 745 21
f 746 735 745
f 738 735 746
f 13 747 746
f 746 21 13
f 728 360 337
f 728 337 708
f 708 731 728
f 57 56 119
f 228 672 675
f 227 228 675
f 675 690 674
f 675 672 690
f 674 225 675
f 675 225 227
f 290 225 278
f 278 226 290
f 225 226 278
f 82 56 641
f 641 83 82
f 185 186 116
f 185 178 186
f 185 116 60
f 60 63 185
f 63 160 185
f 177 178 176
f 176 160 174
f 176 185 160
f 178 185 176
f 176 175 177
f 174 175 176
f 283 292 666
f 666 292 665
f 666 685 684
f 279 288 294
f 288 296 294
f 294 280 279
f 294 296 295
f 295 293 294
f 294 293 280
f 665 224 671
f 224 670 671
f 671 670 687
f 347 349 724
f 713 346 714
f 756 713 714
f 714 741 756
f 15 788 787
f 787 785 774
f 787 16 15
f 774 16 787
f 783 788 789
f 783 768 767
f 769 768 783
f 783 784 769
f 783 789 790
f 790 784 783
f 804 777 810
f 773 777 804
f 804 810 805
f 794 773 804
f 805 793 804
f 804 793 794
f 339 85 86
f 519 507 505
f 505 521 519
f 519 521 518
f 517 507 519
f 518 516 519
f 519 516 517
f 479 553 552
f 552 477 479
f 551 477 552
f 565 551 552
f 552 566 565
f 552 553 566
f 574 560 575
f 560 561 575
f 630 629 611
f 630 612 631
f 630 611 612
f 631 139 630
f 139 137 630
f 137 629 630
f 617 599 618
f 617 598 599
f 618 638 637
f 637 617 618
f 636 617 637
f 124 636 637
f 637 126 124
f 637 638 126
f 577 562 563
f 564 578 563
f 563 578 577
f 563 550 564
f 549 550 563
f 563 562 549
f 851 850 847
f 638 619 852
f 852 853 639
f 639 638 852
f 852 851 847
f 847 848 852
f 852 848 853
f 498 100 460
f 514 498 460
f 460 99 514
f 460 100 382
f 382 99 460
f 380 393 381
f 380 392 393
f 380 378 376
f 380 381 378
f 372 436 374
f 374 373 372
f 426 429 424
f 420 419 421
f 421 422 420
f 379 427 377
f 377 375 378
f 377 428 375
f 377 427 428
f 377 333 379
f 377 378 333
f 432 89 90
f 432 400 89
f 432 434 401
f 401 400 432
f 90 91 432
f 432 91 92
f 92 93 432
f 432 93 431
f 341 711 342
f 713 711 341
f 341 417 713
f 401 434 415
f 434 426 415
f 346 417 416
f 416 403 346
f 417 341 416
f 416 402 401
f 342 402 416
f 416 341 342
f 401 415 416
f 404 403 416
f 416 415 404
f 350 349 348
f 326 391 327
f 327 264 326
f 326 264 263
f 263 325 326
f 390 324 389
f 390 325 324
f 389 388 390
f 390 388 335
f 335 334 390
f 390 334 391
f 391 326 390
f 390 326 325
f 700 685 686
f 687 700 686
f 686 666 665
f 685 666 686
f 686 671 687
f 665 671 686
f 736 739 722
f 736 748 739
f 737 748 736
f 725 735 718
f 718 735 738
f 727 726 360
f 360 728 727
f 733 726 727
f 727 731 733
f 727 728 731
f 231 230 57
f 57 119 231
f 640 230 231
f 231 119 640
f 84 641 79
f 661 662 283
f 283 666 661
f 684 662 661
f 661 666 684
f 717 740 716
f 716 347 717
f 347 724 717
f 729 724 739
f 750 740 729
f 740 717 729
f 729 717 724
f 729 749 750
f 729 739 749
f 739 724 723
f 723 724 349
f 722 739 723
f 723 351 722
f 349 350 723
f 723 350 351
f 741 714 715
f 345 716 715
f 715 346 345
f 715 714 346
f 716 740 715
f 740 741 715
f 788 783 786
f 785 787 786
f 786 787 788
f 786 766 785
f 767 766 786
f 786 783 767
f 110 339 712
f 85 339 110
f 343 402 342
f 86 402 343
f 342 711 343
f 343 711 712
f 577 593 576
f 576 593 592
f 576 562 577
f 591 575 576
f 592 591 576
f 561 562 576
f 576 575 561
f 598 617 616
f 616 615 597
f 597 598 616
f 616 634 615
f 635 634 616
f 616 636 635
f 616 617 636
f 620 619 850
f 850 851 620
f 620 852 619
f 851 852 620
f 384 380 376
f 376 374 384
f 384 374 382
f 392 380 384
f 384 382 385
f 385 392 384
f 435 372 434
f 435 432 431
f 434 432 435
f 436 372 435
f 431 430 435
f 430 436 435
f 434 372 371
f 371 426 434
f 429 426 371
f 373 429 371
f 371 372 373
f 425 426 424
f 425 415 426
f 404 415 425
f 405 350 348
f 348 403 405
f 405 403 404
f 407 350 405
f 405 406 407
f 404 406 405
f 352 350 407
f 351 350 352
f 352 353 351
f 354 353 352
f 407 409 352
f 352 409 354
f 410 418 412
f 419 418 410
f 356 354 411
f 354 409 411
f 409 410 411
f 411 413 356
f 412 413 411
f 411 410 412
f 56 82 81
f 81 119 56
f 81 82 83
f 640 119 81
f 81 83 84
f 84 79 81
f 712 772 111
f 111 110 712
f 340 339 86
f 86 343 340
f 712 339 340
f 340 343 712
f 408 406 421
f 408 410 409
f 408 409 407
f 407 406 408
f 408 421 419
f 419 410 408
f 421 406 423
f 424 422 423
f 422 421 423
f 423 425 424
f 423 406 404
f 404 425 423
f 737 736 720
f 640 81 80
f 80 81 79
f 80 641 640
f 80 79 641
f 113 111 772
f 719 738 737
f 737 720 719
f 719 718 738
f 355 353 354
f 355 720 353
f 355 719 720
f 718 719 355
f 355 354 356
f 355 356 725
f 725 718 355
f 721 736 722
f 721 720 736
f 353 720 721
f 722 351 721
f 351 353 721
f 110 111 112
f 111 113 112
f 112 109 110
f 112 113 772
f 772 109 112
f 85 110 108
f 110 109 108
f 772 85 108
f 108 109 772
f 573 589 588
f 588 534 573
f 574 590 573
f 590 589 573
f 575 590 574
f 575 591 590

