# https://github.com/mikedh/trimesh
v 0.00250000 0.00149768 0.00008331
v 0.00250000 0.00149843 -0.00006864
v -0.00250000 0.00149843 -0.00006864
v -0.00250000 0.00148380 -0.00021988
v 0.00250000 0.00148380 -0.00021988
v 0.00250000 0.00140916 -0.00051407
v -0.00250000 0.00140916 -0.00051407
v 0.00250000 0.00127683 -0.00078721
v -0.00250000 0.00127683 -0.00078721
v 0.00250000 0.00109223 -0.00102812
v -0.00250000 0.00109223 -0.00102812
v 0.00250000 0.00086292 -0.00122694
v -0.00250000 0.00086292 -0.00122694
v 0.00250000 0.00059827 -0.00137552
v -0.00250000 0.00059827 -0.00137552
v 0.00250000 0.00030914 -0.00146780
v -0.00250000 0.00030914 -0.00146780
v 0.00250000 0.00000734 -0.00149998
v -0.00250000 0.00000734 -0.00149998
v 0.00250000 -0.00029475 -0.00147076
v -0.00250000 -0.00029475 -0.00147076
v 0.00250000 -0.00058478 -0.00138132
v -0.00250000 -0.00058478 -0.00138132
v 0.00250000 -0.00085087 -0.00123532
v -0.00250000 -0.00085087 -0.00123532
v 0.00250000 -0.00108212 -0.00103876
v -0.00250000 -0.00108212 -0.00103876
v 0.00250000 -0.00126907 -0.00079967
v -0.00250000 -0.00126907 -0.00079967
v 0.00250000 -0.00140406 -0.00052784
v -0.00250000 -0.00140406 -0.00052784
v 0.00250000 -0.00148157 -0.00023440
v -0.00250000 -0.00148157 -0.00023440
v 0.00250000 -0.00149843 0.00006864
v -0.00250000 -0.00149843 0.00006864
v 0.00250000 -0.00145394 0.00036887
v -0.00250000 -0.00145394 0.00036887
v 0.00250000 -0.00134992 0.00065399
v -0.00250000 -0.00134992 0.00065399
v 0.00250000 -0.00119064 0.00091234
v -0.00250000 -0.00119064 0.00091234
v 0.00250000 -0.00098262 0.00113334
v -0.00250000 -0.00098262 0.00113334
v 0.00250000 -0.00073436 0.00130794
v -0.00250000 -0.00073436 0.00130794
v 0.00250000 -0.00045604 0.00142899
v -0.00250000 -0.00045604 0.00142899
v 0.00250000 -0.00015905 0.00149154
v -0.00250000 -0.00015905 0.00149154
v 0.00250000 0.00014445 0.00149303
v -0.00250000 0.00014445 0.00149303
v 0.00250000 0.00044203 0.00143339
v -0.00250000 0.00044203 0.00143339
v 0.00250000 0.00072153 0.00131507
v -0.00250000 0.00072153 0.00131507
v 0.00250000 0.00097148 0.00114291
v -0.00250000 0.00097148 0.00114291
v 0.00250000 0.00118166 0.00092395
v -0.00250000 0.00118166 0.00092395
v 0.00250000 0.00134346 0.00066717
v -0.00250000 0.00134346 0.00066717
v 0.00250000 0.00145026 0.00038308
v -0.00250000 0.00145026 0.00038308
v -0.00250000 0.00149768 0.00008331
f 4 2 5
f 3 2 4
f 4 5 6
f 6 7 4
f 9 8 10
f 10 11 9
f 6 8 9
f 9 7 6
f 17 16 18
f 18 19 17
f 14 16 17
f 17 15 14
f 10 12 13
f 13 11 10
f 13 12 14
f 14 15 13
f 33 31 32
f 32 31 30
f 35 32 34
f 33 32 35
f 1 2 64
f 64 2 3
f 26 28 29
f 27 26 29
f 29 28 30
f 30 31 29
f 20 19 18
f 20 21 19
f 23 21 20
f 20 22 23
f 27 25 24
f 24 26 27
f 24 25 23
f 23 22 24
f 61 59 60
f 59 58 60
f 56 59 57
f 56 58 59
f 48 50 51
f 49 48 51
f 51 50 52
f 52 53 51
f 42 44 45
f 45 43 42
f 38 40 41
f 39 38 41
f 41 40 42
f 42 43 41
f 37 36 38
f 37 38 39
f 37 35 34
f 34 36 37
f 62 64 63
f 1 64 62
f 62 63 61
f 61 60 62
f 54 2 1
f 42 40 54
f 54 36 34
f 54 28 26
f 34 32 54
f 18 16 54
f 10 8 54
f 54 12 10
f 26 24 54
f 54 50 48
f 6 5 54
f 54 16 14
f 54 8 6
f 14 12 54
f 30 28 54
f 54 20 18
f 1 62 54
f 5 2 54
f 54 32 30
f 48 46 54
f 52 50 54
f 54 44 42
f 54 40 38
f 38 36 54
f 22 20 54
f 54 24 22
f 54 60 58
f 58 56 54
f 54 46 44
f 54 62 60
f 54 55 53
f 54 53 52
f 57 55 54
f 54 56 57
f 19 21 47
f 47 9 11
f 11 13 47
f 57 59 47
f 27 29 47
f 49 51 47
f 39 41 47
f 47 25 27
f 3 4 47
f 47 17 19
f 47 55 57
f 61 63 47
f 47 59 61
f 47 64 3
f 47 37 39
f 47 4 7
f 7 9 47
f 15 17 47
f 47 13 15
f 47 31 33
f 33 35 47
f 47 21 23
f 23 25 47
f 63 64 47
f 53 55 47
f 47 29 31
f 47 51 53
f 43 45 47
f 47 41 43
f 35 37 47
f 47 48 49
f 47 46 48
f 44 46 47
f 47 45 44

