# https://github.com/mikedh/trimesh
v -0.00796597 0.00373943 0.00750000
v -0.00686668 0.00550352 0.00750000
v -0.00538428 0.00696057 0.00750000
v -0.00360149 0.00802928 0.00750000
v -0.00161777 0.00865002 0.00750000
v 0.00045621 0.00878817 0.00750000
v 0.00250474 0.00843601 0.00750000
v 0.00441352 0.00761320 0.00750000
v 0.00607607 0.00636564 0.00750000
v 0.00739963 0.00476294 0.00750000
v -0.00862083 0.00176671 0.00750000
v -0.00879473 -0.00030458 0.00750000
v 0.00855853 0.00089016 0.00750000
v 0.00856196 0.00170077 0.00750000
v 0.00831035 0.00289450 0.00750000
v 0.00876132 0.00171682 0.00500000
v 0.00046658 0.00898790 0.00500000
v 0.00256166 0.00862774 0.00500000
v 0.00451383 0.00778623 0.00500000
v 0.00621416 0.00651032 0.00500000
v 0.00756780 0.00487119 0.00500000
v 0.00849922 0.00296029 0.00500000
v 0.00850449 0.00048212 0.00750000
v -0.00402081 0.00805190 0.00730000
v -0.00456436 0.00775671 0.00711034
v -0.00487988 0.00755146 0.00730901
v -0.00549827 0.00710792 0.00731371
v -0.00518634 0.00735539 0.00696119
v -0.00550599 0.00711928 0.00690735
v -0.00567638 0.00696518 0.00731473
v -0.00580274 0.00687954 0.00686987
v -0.00619178 0.00650852 0.00731674
v -0.00612529 0.00659400 0.00684252
v -0.00673985 0.00596443 0.00683177
v -0.00687481 0.00578243 0.00731671
v -0.00702301 0.00562826 0.00684861
v -0.00701004 0.00561844 0.00731626
v -0.00729191 0.00527523 0.00688144
v -0.00747145 0.00499386 0.00731328
v -0.00754824 0.00490144 0.00693305
v -0.00795641 0.00420661 0.00707947
v -0.00798093 0.00414580 0.00730651
v -0.00814409 0.00382304 0.00730323
v -0.00814844 0.00382138 0.00719441
v -0.00827732 0.00353355 0.00730000
v -0.00828336 -0.01495956 0.00758261
v 0.00581743 -0.02870044 -0.00918680
v 0.00816779 -0.03641097 -0.00159329
v 0.00857515 -0.03621519 -0.00004455
v 0.00903141 -0.03552992 0.00176090
v 0.00596333 -0.03066430 -0.00894098
v 0.00622982 -0.03249577 -0.00822537
v 0.00660020 -0.03407630 -0.00708425
v 0.00705049 -0.03530360 -0.00559148
v 0.00755156 -0.03609824 -0.00384367
v 0.00807099 -0.03640880 -0.00195393
v 0.00815247 -0.03641182 -0.00165055
v 0.00968715 -0.03289079 0.00460689
v 0.00984419 -0.03110771 0.00546326
v 0.00987121 -0.02916352 0.00585924
v 0.00985221 -0.02853614 0.00588367
v 0.00941025 -0.03439736 0.00334556
v 0.00557729 -0.02871022 -0.00932728
v 0.00572231 -0.03072462 -0.00907615
v 0.00599563 -0.03260305 -0.00834219
v 0.00637551 -0.03422410 -0.00717181
v 0.00415572 -0.03431450 -0.00657653
v 0.00683735 -0.03548288 -0.00564077
v 0.00461756 -0.03557327 -0.00504549
v 0.00735127 -0.03629790 -0.00384814
v 0.00513148 -0.03638829 -0.00325286
v 0.00788401 -0.03661642 -0.00190994
v 0.00566422 -0.03670682 -0.00131466
v 0.00796758 -0.03661951 -0.00159879
v 0.00798330 -0.03661864 -0.00154006
v 0.00618131 -0.03650824 0.00064368
v 0.00971091 -0.02854189 0.00612862
v 0.00751060 -0.02927576 0.00669884
v 0.00973039 -0.02918536 0.00610356
v 0.00748289 -0.03126980 0.00629271
v 0.00970268 -0.03117940 0.00569743
v 0.00732182 -0.03309859 0.00541439
v 0.00954161 -0.03300820 0.00481910
v 0.00703782 -0.03464380 0.00412071
v 0.00925761 -0.03455340 0.00352543
v 0.00664927 -0.03580540 0.00249542
v 0.00886906 -0.03571501 0.00190013
v 0.00840109 -0.03641784 0.00004840
v -0.00957156 -0.01829237 -0.00768000
v -0.00830152 -0.02573482 -0.00768000
v -0.00922316 -0.02325741 -0.00768000
v -0.00871026 -0.02501773 -0.00768000
v -0.00905053 -0.02414238 -0.00768000
v -0.00852425 -0.01342019 0.00731642
v -0.00871138 -0.00848992 0.00730001
v -0.00852409 -0.01342421 0.00731643
v -0.00846370 -0.01415487 0.00736879
v -0.00837617 -0.01469470 0.00747384
v -0.00842423 -0.01442751 0.00741452
v -0.01049827 -0.02104253 -0.00705563
v -0.01049835 -0.02110113 -0.00705449
v -0.00368334 0.00821176 0.00730000
v -0.00165454 0.00884661 0.00730000
v 0.00046658 0.00898790 0.00730000
v 0.00256166 0.00862774 0.00730000
v 0.00451383 0.00778623 0.00730000
v 0.00621416 0.00651032 0.00730000
v 0.00756780 0.00487119 0.00730000
v 0.00849922 0.00296029 0.00730000
v -0.00881676 0.00180686 0.00730000
v -0.00899461 -0.00031150 0.00730000
v -0.00895707 -0.00139544 0.00730000
v 0.00876132 0.00171682 0.00730000
v 0.00875775 0.00087243 0.00730000
v -0.00972590 -0.01852095 -0.00763444
v -0.01025235 -0.02302138 -0.00740921
v -0.01046406 -0.02302545 -0.00704219
v -0.01027983 -0.02200258 -0.00742098
v -0.01048334 -0.02238628 -0.00704919
v -0.00963460 -0.02949832 -0.00626783
v -0.00985596 -0.02940057 -0.00591935
v -0.00977039 -0.02846031 -0.00661655
v -0.00998952 -0.02837961 -0.00626234
v -0.00989116 -0.02740875 -0.00690181
v -0.01010826 -0.02734650 -0.00654280
v -0.00996227 -0.02673597 -0.00704946
v -0.01017818 -0.02668592 -0.00668789
v -0.01014817 -0.02474822 -0.00733333
v -0.01036110 -0.02473459 -0.00696641
v -0.01045614 -0.02323423 -0.00703970
v -0.00874638 -0.03422648 -0.00367367
v -0.00898232 -0.03405111 -0.00336777
v -0.00934919 -0.03240028 -0.00448513
v -0.00911937 -0.03254810 -0.00480967
v -0.00975581 -0.03008662 -0.00565005
v -0.00953277 -0.03019582 -0.00599404
v -0.00833944 -0.03557314 -0.00236072
v -0.00859065 -0.03534727 -0.00210406
v -0.00787337 -0.03655311 -0.00077158
v -0.00814206 -0.03629049 -0.00057451
v -0.00737513 -0.03710968 0.00100181
v -0.00766251 -0.03682619 0.00113237
v -0.00697616 -0.03722783 0.00247164
v -0.00727849 -0.03693990 0.00254708
v -0.00687356 -0.03721066 0.00285685
v -0.00717973 -0.03692338 0.00291784
v -0.00639765 -0.03685020 0.00468619
v -0.00672168 -0.03657643 0.00467859
v -0.00597497 -0.03604915 0.00638401
v -0.00631485 -0.03580543 0.00631274
v -0.00562995 -0.03485388 0.00785207
v -0.00598277 -0.03465497 0.00772575
v -0.00538257 -0.03333351 0.00900543
v -0.00574466 -0.03319162 0.00883586
v -0.00524713 -0.03157604 0.00977736
v -0.00561430 -0.03150006 0.00957883
v -0.00523147 -0.02968314 0.01012319
v -0.00559923 -0.02967814 0.00991170
v -0.00524855 -0.02915108 0.01014031
v -0.00561566 -0.02916603 0.00992818
v -0.00700915 -0.03415574 -0.00413954
v -0.00660221 -0.03550240 -0.00282659
v -0.00613614 -0.03648237 -0.00123745
v -0.00563791 -0.03703894 0.00053594
v -0.00513633 -0.03713991 0.00239097
v -0.00466043 -0.03677946 0.00422032
v -0.00423774 -0.03597841 0.00591814
v -0.00389273 -0.03478313 0.00738620
v -0.00364534 -0.03326277 0.00853956
v -0.00350990 -0.03150530 0.00931148
v -0.00349425 -0.02961239 0.00965731
v -0.00979884 -0.01869550 -0.00761166
v -0.01016050 -0.01989096 -0.00749252
v -0.01028279 -0.02105174 -0.00743804
v -0.00812273 -0.02761593 -0.00729896
v -0.00779554 -0.03012508 -0.00645991
v -0.00738214 -0.03247736 -0.00527555
v -0.00888658 0.00046189 -0.00788000
v -0.00828207 -0.01452740 -0.00788000
v -0.00910061 0.00102600 -0.00768000
v -0.00890062 0.00102375 -0.00788000
v -0.00883212 0.00300600 -0.00768000
v -0.00863876 0.00295491 -0.00788000
v -0.00808762 0.00486023 -0.00768000
v -0.00791262 0.00476341 -0.00788000
v -0.00691230 0.00647611 -0.00768000
v -0.00676628 0.00633944 -0.00788000
v -0.00537752 0.00775553 -0.00768000
v -0.00526936 0.00758730 -0.00788000
v -0.00357648 0.00862080 -0.00768000
v -0.00351274 0.00843123 -0.00788000
v -0.00161852 0.00901940 -0.00768000
v -0.00160308 0.00881999 -0.00788000
v 0.00037746 0.00892710 -0.00768000
v 0.00034367 0.00872998 -0.00788000
v 0.00229027 0.00834953 -0.00768000
v 0.00220931 0.00816665 -0.00788000
v 0.00400378 0.00732174 -0.00768000
v 0.00388056 0.00716421 -0.00788000
v 0.00541394 0.00590615 -0.00768000
v 0.00525594 0.00578353 -0.00788000
v 0.00643513 0.00418870 -0.00768000
v 0.00625194 0.00410845 -0.00788000
v 0.00700535 0.00227368 -0.00768000
v 0.00680809 0.00224066 -0.00788000
v 0.00709322 0.00155081 -0.00768000
v 0.00689378 0.00153581 -0.00788000
v 0.00701386 -0.00182152 -0.00788000
v 0.00720885 -0.00234358 -0.00768000
v -0.00910061 0.00102600 -0.00648000
v -0.00883212 0.00300600 -0.00648000
v -0.00808762 0.00486023 -0.00648000
v -0.00691230 0.00647611 -0.00648000
v -0.00537752 0.00775553 -0.00648000
v -0.00357648 0.00862080 -0.00648000
v -0.00161852 0.00901940 -0.00648000
f 60 206 16
f 207 47 63
f 159 9 8
f 159 6 5
f 103 5 104
f 104 5 6
f 91 63 93
f 91 179 63
f 110 210 111
f 60 16 61
f 61 16 113
f 7 6 159
f 159 8 7
f 174 91 116
f 93 128 116
f 116 91 93
f 131 132 133
f 64 175 90
f 90 63 64
f 216 215 103
f 103 104 216
f 192 193 190
f 159 5 4
f 213 212 38
f 181 183 63
f 100 174 101
f 101 111 100
f 100 111 210
f 110 111 12
f 159 12 160
f 160 12 111
f 157 156 155
f 157 13 159
f 79 171 157
f 79 13 23
f 23 171 79
f 13 157 23
f 23 157 171
f 53 54 68
f 60 79 81
f 81 59 60
f 81 58 59
f 113 114 77
f 77 61 113
f 77 13 79
f 77 114 13
f 77 79 60
f 60 61 77
f 159 13 14
f 14 15 159
f 14 114 113
f 13 114 14
f 113 109 14
f 14 109 15
f 206 207 204
f 204 16 206
f 195 193 192
f 192 194 195
f 63 193 195
f 21 202 200
f 205 204 207
f 202 204 205
f 205 207 63
f 106 7 8
f 198 19 20
f 20 200 198
f 21 200 20
f 198 199 197
f 197 199 63
f 63 195 197
f 119 111 101
f 128 129 130
f 130 116 128
f 130 129 96
f 176 175 64
f 131 133 134
f 92 128 93
f 92 90 128
f 93 63 92
f 63 90 92
f 122 124 175
f 122 176 120
f 175 176 122
f 125 124 122
f 126 90 175
f 175 124 126
f 128 90 126
f 126 129 128
f 214 24 215
f 11 12 159
f 11 45 110
f 110 12 11
f 26 4 24
f 24 4 102
f 103 215 102
f 215 24 102
f 102 5 103
f 102 4 5
f 45 212 211
f 110 45 211
f 211 210 110
f 42 212 43
f 34 32 213
f 178 181 63
f 63 179 178
f 172 91 174
f 180 181 174
f 174 100 180
f 180 100 210
f 182 183 180
f 183 181 180
f 156 157 158
f 159 160 158
f 158 157 159
f 78 155 79
f 79 157 78
f 78 157 155
f 141 139 71
f 155 156 153
f 87 49 50
f 66 53 68
f 54 53 209
f 53 52 209
f 209 49 48
f 50 49 209
f 62 50 209
f 209 58 62
f 59 58 209
f 209 206 60
f 60 59 209
f 62 58 85
f 85 50 62
f 85 87 50
f 79 155 170
f 170 81 79
f 155 81 170
f 22 202 21
f 16 204 22
f 22 204 202
f 15 109 108
f 203 205 63
f 203 200 202
f 202 205 203
f 17 18 194
f 17 194 192
f 105 104 6
f 6 7 105
f 7 106 105
f 107 8 9
f 107 106 8
f 196 18 19
f 196 19 198
f 198 197 196
f 194 18 196
f 196 195 194
f 196 197 195
f 174 116 118
f 116 119 118
f 101 174 118
f 118 119 101
f 117 119 116
f 116 130 117
f 111 119 117
f 117 130 95
f 96 95 94
f 94 130 96
f 95 130 94
f 64 63 51
f 63 47 51
f 47 209 51
f 51 209 52
f 131 134 161
f 161 134 177
f 161 67 131
f 161 66 67
f 136 134 133
f 133 135 136
f 136 135 120
f 120 176 136
f 136 176 177
f 177 134 136
f 125 122 123
f 123 122 120
f 96 129 123
f 129 125 123
f 127 124 125
f 127 126 124
f 127 125 129
f 129 126 127
f 191 190 193
f 191 189 190
f 191 193 63
f 63 189 191
f 63 183 185
f 190 189 188
f 24 214 25
f 25 26 24
f 214 26 25
f 44 212 45
f 45 43 44
f 44 43 212
f 45 11 1
f 1 43 45
f 42 43 1
f 1 11 159
f 213 38 36
f 38 37 36
f 41 212 42
f 42 40 41
f 41 40 212
f 39 37 38
f 39 38 212
f 212 40 39
f 39 40 42
f 42 1 39
f 174 181 173
f 173 172 174
f 181 172 173
f 181 178 89
f 89 178 179
f 91 172 89
f 179 91 89
f 162 66 68
f 67 66 162
f 131 67 137
f 67 162 137
f 142 139 141
f 163 139 68
f 163 71 139
f 145 143 75
f 48 49 75
f 70 163 68
f 71 163 70
f 80 81 155
f 155 153 80
f 81 80 169
f 169 80 153
f 49 87 88
f 88 75 49
f 73 143 141
f 154 153 156
f 151 153 154
f 65 52 53
f 53 66 65
f 66 161 65
f 64 51 65
f 65 51 52
f 65 176 64
f 65 161 177
f 177 176 65
f 208 207 206
f 206 209 208
f 47 207 208
f 208 209 47
f 84 85 151
f 15 108 10
f 10 9 159
f 159 15 10
f 108 107 10
f 10 107 9
f 200 203 201
f 201 199 198
f 198 200 201
f 63 199 201
f 201 203 63
f 111 117 112
f 112 117 95
f 96 123 121
f 120 135 121
f 121 123 120
f 187 189 63
f 63 185 187
f 187 188 189
f 184 183 182
f 184 185 183
f 184 187 185
f 28 26 214
f 28 27 26
f 3 30 32
f 159 4 3
f 27 30 3
f 4 26 3
f 26 27 3
f 37 39 2
f 2 39 1
f 2 3 32
f 2 1 159
f 159 3 2
f 115 172 181
f 181 89 115
f 115 89 172
f 138 137 139
f 138 132 131
f 131 137 138
f 69 162 68
f 69 137 162
f 68 139 69
f 139 137 69
f 145 146 144
f 144 143 145
f 146 99 144
f 144 99 142
f 141 143 144
f 144 142 141
f 164 70 72
f 164 73 141
f 72 73 164
f 141 71 164
f 71 70 164
f 72 70 56
f 83 85 58
f 58 81 83
f 81 169 83
f 145 75 165
f 165 88 145
f 75 88 165
f 74 75 143
f 143 73 74
f 74 73 72
f 72 56 74
f 148 99 146
f 148 147 150
f 148 146 145
f 145 147 148
f 152 150 151
f 151 154 152
f 46 158 160
f 46 160 111
f 145 88 76
f 76 147 145
f 166 88 87
f 166 76 88
f 147 76 166
f 87 85 167
f 85 84 167
f 151 150 149
f 150 147 149
f 149 84 151
f 149 167 84
f 187 184 186
f 188 187 186
f 213 32 33
f 31 214 213
f 31 30 214
f 213 33 31
f 32 30 31
f 31 33 32
f 29 28 214
f 27 28 29
f 214 30 29
f 29 30 27
f 35 2 32
f 37 2 35
f 32 34 35
f 35 36 37
f 35 34 213
f 213 36 35
f 139 142 140
f 140 138 139
f 142 99 140
f 55 56 70
f 68 54 55
f 55 70 68
f 54 209 55
f 209 56 55
f 151 85 168
f 168 83 151
f 85 83 168
f 82 153 151
f 151 83 82
f 82 169 153
f 82 83 169
f 57 74 56
f 57 209 48
f 57 56 209
f 48 75 57
f 75 74 57
f 98 152 154
f 98 154 156
f 150 152 98
f 98 148 150
f 99 148 98
f 156 158 98
f 158 46 98
f 98 46 111
f 111 112 98
f 98 112 95
f 98 95 96
f 87 167 86
f 167 149 86
f 86 149 147
f 86 166 87
f 147 166 86
f 97 140 99
f 138 140 97
f 132 138 97
f 97 133 132
f 97 135 133
f 97 98 96
f 99 98 97
f 96 121 97
f 97 121 135
f 215 216 190
f 190 216 192
f 210 211 180
f 180 211 182
f 22 109 113
f 113 16 22
f 109 22 108
f 108 22 21
f 192 216 17
f 17 216 104
f 105 17 104
f 18 17 105
f 19 18 105
f 105 106 19
f 19 106 107
f 107 20 19
f 107 108 21
f 21 20 107
f 215 190 188
f 188 214 215
f 182 211 184
f 184 211 212
f 186 184 212
f 186 212 213
f 214 188 186
f 213 214 186

