# https://github.com/mikedh/trimesh
v -0.01160000 0.04397365 0.09478509
v -0.01160000 0.04451255 0.09422610
v -0.01160000 0.04469975 0.09347255
v -0.01160000 0.04322745 0.09499975
v -0.00910000 -0.03999585 0.05478848
v -0.01010000 0.04048800 0.03671062
v -0.01010000 0.04019395 0.03599199
v 0.00510429 0.04200000 0.11139467
v 0.00828964 0.04200000 0.11132618
v 0.01126495 0.04200000 0.11018656
v 0.01368100 0.04200000 0.10810958
v -0.00100322 0.04200000 0.11021438
v -0.00090669 0.04200000 0.11027777
v -0.00079336 0.04200000 0.11030000
v 0.01544250 0.04180000 0.10540650
v 0.01383544 0.04180000 0.10823667
v 0.01136742 0.04180000 0.11035832
v 0.00832813 0.04180000 0.11152244
v 0.00507427 0.04180000 0.11159240
v -0.00079336 0.04180000 0.11050000
v -0.00098223 0.04180000 0.11046296
v -0.00114312 0.04180000 0.11035731
v 0.01544250 0.00180000 0.11140651
v 0.01544250 -0.00830000 0.11140651
v 0.01383544 0.00180000 0.11423667
v 0.01383544 -0.00830000 0.11423667
v 0.01136742 0.00180000 0.11635832
v 0.01136742 -0.00830000 0.11635832
v 0.00832813 0.00180000 0.11752244
v 0.00832813 -0.00830000 0.11752244
v 0.00507427 0.00180000 0.11759240
v 0.00507427 -0.00830000 0.11759240
v -0.00079336 -0.00830000 0.11650000
v -0.00079336 0.00180000 0.11650000
v -0.00098223 0.00180000 0.11646295
v -0.00098223 -0.00830000 0.11646295
v -0.00114312 0.00180000 0.11635731
v -0.00114312 -0.00830000 0.11635731
v -0.00125218 0.00180000 0.11619872
v -0.00125218 -0.00830000 0.11619872
v 0.01544250 0.02180000 0.10840651
v 0.02281693 0.02695821 0.08516417
v 0.02279762 0.02648337 0.08608878
v 0.02016697 0.04492272 0.07818468
v 0.02008774 0.04463471 0.08682198
v 0.02030994 0.04400000 0.08626527
v 0.02157317 0.03990023 0.08033115
v 0.02153067 0.03994263 0.08281306
v 0.02148018 0.03995843 0.08564781
v 0.02161376 0.03983209 0.07789901
v 0.02161890 0.03982145 0.07758851
v 0.02022078 0.04492293 0.07261153
v 0.02180780 0.03912488 0.06647417
v 0.02029481 0.04467621 0.06530543
v 0.02176857 0.03931395 0.06866204
v 0.02025146 0.04485670 0.06955741
v 0.02175065 0.03939319 0.06968627
v 0.02169153 0.03962136 0.07318283
v 0.02184680 0.03891263 0.06433429
v 0.02188285 0.03868999 0.06234686
v 0.02032126 0.04450837 0.06270435
v 0.02188473 0.03867754 0.06224214
v 0.02037887 0.04394149 0.05688222
v 0.02192076 0.03841997 0.06019745
v 0.02195405 0.03814030 0.05819998
v 0.02198376 0.03783872 0.05624916
v 0.02199342 0.03772490 0.05555898
v 0.02042511 0.04318438 0.05193286
v 0.02202918 0.03716885 0.05248258
v 0.02204942 0.03650041 0.04929310
v 0.02046403 0.04222534 0.04754774
v 0.02205043 0.03640809 0.04888740
v 0.02204993 0.03599299 0.04715081
v 0.02052277 0.04020066 0.04118576
v 0.02202163 0.03500777 0.04350057
v 0.02053397 0.03975737 0.04007782
v 0.02200245 0.03460901 0.04217425
v 0.02197367 0.03410255 0.04059171
v 0.02204134 0.03555459 0.04545340
v 0.02050037 0.04104040 0.04351609
v 0.02193970 0.03357378 0.03904623
v 0.02054160 0.03944830 0.03934625
v 0.02058496 0.03760082 0.03550849
v 0.02059706 0.03706167 0.03452211
v 0.02267736 0.03222366 0.08504111
v 0.02279177 0.03096195 0.08249779
v 0.02287958 0.02965107 0.08002464
v 0.02286168 0.02837842 0.08244041
v 0.02282082 0.02705902 0.08497006
v 0.02281889 0.02700865 0.08506703
v 0.02052262 -0.03926903 0.06907983
v 0.02059233 -0.03915494 0.06252477
v 0.02180673 -0.03536969 0.06321192
v 0.02290511 -0.02860780 0.04154173
v 0.02291030 -0.02969697 0.04696236
v 0.02194294 -0.03367660 0.04601866
v 0.02220658 -0.03055251 0.08875433
v 0.02212322 -0.03038538 0.09081883
v 0.02114932 -0.03450000 0.09131990
v 0.02090294 -0.03522771 0.09215192
v 0.02029380 -0.03807359 0.08795224
v 0.02070362 -0.03582527 0.09266881
v 0.02021337 -0.03726583 0.09366129
v 0.02245200 -0.03101370 0.08171639
v 0.02237253 -0.03087176 0.08419028
v 0.02136739 -0.03490323 0.08534887
v 0.02228327 -0.03070286 0.08673079
v 0.02070522 -0.03820819 0.04992728
v 0.02072225 -0.03793076 0.04767968
v 0.02195650 -0.03273568 0.04115097
v 0.02077036 -0.03678558 0.04062142
v 0.02191226 -0.03445759 0.05137326
v 0.02066526 -0.03869190 0.05479092
v 0.02069824 -0.03830840 0.05081688
v 0.02044863 -0.03912110 0.07559818
v 0.02157030 -0.03536096 0.07729840
v 0.02258428 -0.03121866 0.07696626
v 0.02252235 -0.03112909 0.07930856
v 0.02171111 -0.03549501 0.06992944
v 0.02281694 -0.03127436 0.06425415
v 0.02279142 -0.03131679 0.06621771
v 0.02276138 -0.03133956 0.06824099
v 0.02272632 -0.03134241 0.07032682
v 0.02268557 -0.03132408 0.07247593
v 0.02263846 -0.03128327 0.07468890
v 0.02290833 -0.02995611 0.04856394
v 0.02290577 -0.03019124 0.05018248
v 0.02290222 -0.03040295 0.05182224
v 0.02289730 -0.03059179 0.05348751
v 0.02289061 -0.03075834 0.05518256
v 0.02288177 -0.03090315 0.05691167
v 0.02287037 -0.03102675 0.05867910
v 0.02285603 -0.03112958 0.06048913
v 0.02283835 -0.03121200 0.06234605
v 0.02282648 -0.03125041 0.06344029
v 0.02331846 -0.02242109 0.08678658
v 0.02327950 -0.02142724 0.08851510
v 0.02322057 -0.02043863 0.09027397
v 0.02303514 -0.02410876 0.09036459
v 0.02318873 -0.02327333 0.08855867
v 0.02321892 -0.01861384 0.09027477
v 0.02295510 -0.01347386 0.09085621
v 0.02267655 0.02260657 0.08804151
v 0.02264629 0.02303007 0.08805653
v 0.02262437 0.03294437 0.08506744
v 0.02256181 0.03401303 0.08300916
v 0.02247030 0.03504898 0.08105475
v 0.02212054 0.03692979 0.08532019
v 0.02230454 0.03601127 0.08316894
v 0.02276584 -0.02794668 0.08674657
v 0.02282814 -0.02685599 0.08858082
v 0.02286477 -0.02576469 0.09044837
v 0.02182327 0.03846588 0.08547139
v 0.02168366 0.03920787 0.08411454
v 0.02224655 -0.02975586 0.09075656
v 0.02251655 -0.02886627 0.08873066
v 0.02254064 -0.02932699 0.08673862
v 0.01976825 0.04533567 0.08752520
v 0.01726982 0.04802874 0.06778226
v 0.01820631 0.04761577 0.07132481
v 0.01740901 0.04760926 0.06094290
v 0.01838305 0.04708420 0.06099417
v 0.01749974 0.04719698 0.05695788
v 0.01752995 0.04703805 0.05572661
v 0.01790136 0.04392723 0.04226943
v 0.01781508 0.04487482 0.04524276
v 0.01948279 0.04363177 0.04559234
v 0.01779590 0.04506528 0.04591387
v 0.01939848 0.04489250 0.05073531
v 0.01828482 0.03698673 0.02870644
v 0.01824355 0.03807954 0.03034470
v 0.01973900 0.03701261 0.03103207
v 0.01823689 0.03824376 0.03060079
v 0.01965629 0.03968666 0.03565525
v 0.01810488 0.04099011 0.03539004
v 0.01956941 0.04190693 0.04053699
v 0.01802840 0.04223605 0.03799859
v 0.01796670 0.04310875 0.04007211
v 0.01832085 0.03586355 0.02713228
v 0.01981259 0.03391191 0.02665807
v 0.02063021 0.03553867 0.03196968
v 0.01931629 0.04576409 0.05590386
v 0.01923803 0.04633559 0.06106247
v 0.01909062 0.04686885 0.07134266
v 0.01895664 0.04681185 0.08159227
v 0.01886556 0.04646320 0.08903985
v 0.01909884 0.04623700 0.08868466
v 0.01805522 0.04754770 0.08161523
v 0.01716460 0.04743531 0.09113929
v 0.01820729 0.04695627 0.08994101
v 0.01721133 0.04812042 0.07090642
v 0.01704605 0.04805896 0.08116354
v 0.01690225 0.04751117 0.09140667
v 0.01769780 0.04592808 0.04939565
v 0.01057799 -0.03359028 0.02100000
v 0.00911854 -0.03361497 0.02100000
v 0.01482149 -0.03301310 0.02100000
v 0.01278142 -0.03340558 0.02100000
v 0.01775648 -0.03178811 0.02100000
v 0.01716823 -0.03212756 0.02100000
v 0.01566945 -0.03275670 0.02100000
v 0.01444693 0.04776454 0.05387611
v 0.00350000 0.04806176 0.04927170
v 0.00350000 0.04896431 0.05423563
v 0.00499735 0.04880265 0.05370864
v 0.00350000 0.05008289 0.06615648
v 0.00350000 0.05020101 0.07098921
v 0.00531420 0.05011556 0.07096855
v 0.00493580 0.04990403 0.06404202
v 0.00350000 0.04990568 0.06300618
v 0.00350000 0.04587863 0.04154469
v 0.00350000 0.04719508 0.04574288
v 0.00350000 0.04456651 0.03814862
v 0.00350000 0.04272589 0.03416046
v 0.01454771 0.04702841 0.04968682
v 0.01465308 0.04604962 0.04554215
v 0.00873116 0.04941098 0.06100527
v 0.01063755 0.04925024 0.06168991
v 0.01077637 0.04826289 0.05308366
v 0.01265754 0.04807649 0.05359270
v 0.01284572 0.04632760 0.04524610
v 0.01419592 0.04898459 0.07087533
v 0.01427372 0.04865839 0.06233040
v 0.01413131 0.04899883 0.07087536
v 0.00503216 0.04795828 0.04926794
v 0.00691866 0.04821484 0.05101476
v 0.00884840 0.04831269 0.05225551
v 0.00682558 0.04947601 0.05997732
v 0.00496558 0.04944120 0.05853076
v 0.00350000 0.04966192 0.06001533
v 0.00674680 0.05001780 0.07094944
v 0.00678475 0.04983973 0.06501583
v 0.00863348 0.04984690 0.07092363
v 0.00697206 0.04726697 0.04681712
v 0.00898759 0.04636321 0.04394445
v 0.01094199 0.04643826 0.04474614
v 0.00906041 0.04501268 0.03992799
v 0.01102843 0.04514037 0.04068859
v 0.00913325 0.04339858 0.03603179
v 0.01111467 0.04356293 0.03673902
v 0.00920159 0.04152939 0.03228843
v 0.01119512 0.04170940 0.03292963
v 0.00702822 0.04608405 0.04274320
v 0.00708566 0.04465389 0.03878852
v 0.00714334 0.04298062 0.03497373
v 0.01505276 0.03925800 0.02995356
v 0.01476008 0.04479409 0.04146542
v 0.01486664 0.04324116 0.03748878
v 0.01496583 0.04138952 0.03364380
v 0.01066566 0.04960298 0.07089850
v 0.01259642 0.04930142 0.07088115
v 0.01052313 0.04962234 0.07090008
v 0.01402475 0.04876672 0.08355161
v 0.00350000 0.05008730 0.07841614
v 0.01517574 0.04788503 0.09277835
v 0.01304562 0.04819833 0.09403407
v 0.01052797 0.04932262 0.08359234
v 0.00350000 0.04955341 0.08802964
v 0.00350000 0.04884125 0.09616923
v 0.00354596 0.04883989 0.09616925
v 0.00597758 0.04874849 0.09603027
v 0.00837905 0.04861692 0.09563649
v 0.01075259 0.04843733 0.09497880
v 0.01059219 0.04955875 0.07724991
v 0.00350000 0.05004618 0.07951637
v 0.00890773 -0.04104481 0.03900000
v 0.01738293 -0.04016068 0.04057395
v 0.01735225 -0.04043808 0.04220933
v 0.01434318 -0.04112621 0.04260532
v 0.01676749 -0.04248916 0.06930786
v 0.01670686 -0.04248003 0.07179250
v 0.01379296 -0.04289126 0.07174211
v 0.01689243 -0.04239540 0.06405094
v 0.01412276 -0.04240681 0.05500491
v 0.01707070 -0.04198715 0.05618026
v 0.01076600 -0.04134398 0.04151103
v 0.01080583 -0.04095565 0.03900000
v 0.01368628 -0.04071356 0.03900000
v 0.01444619 -0.04060597 0.03900000
v 0.01605527 -0.04028282 0.03900000
v 0.01745665 -0.03984831 0.03900000
v 0.00697532 -0.04175602 0.04319748
v 0.00350000 -0.04226886 0.04678191
v 0.00350000 -0.04153880 0.04068162
v 0.00350000 -0.04127945 0.03900000
v 0.00499490 -0.04355310 0.06456858
v 0.00350000 -0.04363240 0.06516672
v 0.00350000 -0.04325024 0.05796948
v 0.00496152 -0.04357732 0.07136212
v 0.00350000 -0.04363102 0.07131214
v 0.01058648 -0.04266605 0.05399405
v 0.01045812 -0.04316821 0.06252582
v 0.00873712 -0.04269493 0.05302404
v 0.00862835 -0.04326348 0.06174129
v 0.00689116 -0.04265198 0.05165276
v 0.00680391 -0.04330421 0.06062923
v 0.00509180 -0.04253373 0.04981154
v 0.00502792 -0.04328423 0.05913370
v 0.00857266 -0.04339854 0.06638431
v 0.00675907 -0.04349484 0.06560605
v 0.00350000 -0.04284298 0.05289809
v 0.00671366 -0.04348957 0.07143518
v 0.00851616 -0.04337526 0.07151773
v 0.01032573 -0.04323623 0.07160175
v 0.01070761 -0.04187768 0.04563481
v 0.00884086 -0.04186200 0.04461858
v 0.01396115 -0.04283865 0.06333608
v 0.01039338 -0.04323054 0.07160483
v 0.01723380 -0.04126063 0.04833141
v 0.01427219 -0.04164771 0.04672020
v 0.01652040 -0.04222568 0.07923383
v 0.01471258 -0.04013507 0.09856009
v 0.01144013 -0.04015049 0.10004668
v 0.00998188 -0.04121596 0.09403142
v 0.00556349 -0.04023510 0.10134571
v 0.00350000 -0.04028669 0.10141645
v 0.00350000 -0.04163778 0.09276702
v 0.00770553 -0.04018814 0.10108185
v 0.01601881 -0.04011887 0.09777391
v 0.01612635 -0.04070247 0.09401292
v 0.01010645 -0.04218510 0.08658754
v 0.01632942 -0.04163027 0.08657298
v 0.01022950 -0.04287710 0.07910851
v 0.00350000 -0.04345836 0.07530206
v 0.00350000 -0.04268285 0.08448716
v 0.00350000 -0.04293029 0.08208164
v 0.02339933 -0.02477386 0.03900000
v 0.02288339 -0.02796613 0.03900000
v 0.02195107 -0.03222454 0.03900000
v 0.02078866 -0.03640755 0.03900000
v 0.01774203 -0.03973318 0.03900000
v 0.02029566 -0.03755378 0.03900000
v 0.02021080 -0.03769373 0.03900000
v 0.01890532 -0.03908214 0.03900000
v 0.01942241 -0.03865230 0.03900000
v 0.01965103 -0.02943293 0.02100000
v 0.01863608 -0.03103580 0.02100000
v 0.01894728 -0.03065587 0.02100000
v 0.00148574 -0.03881778 0.10161156
v 0.02380618 -0.02004773 0.07261668
v 0.02321863 0.02805538 0.06120402
v 0.02299646 0.03135353 0.06602059
v 0.02312311 0.02971890 0.06356174
v 0.02316399 0.03023627 0.05759973
v 0.02320849 0.02916081 0.05935140
v 0.02328304 0.02853439 0.05536458
v 0.02326819 0.02884722 0.05004231
v 0.02333611 0.02784595 0.05159181
v 0.02393106 -0.02273234 0.06073266
v 0.02395607 -0.02138323 0.06256867
v 0.02384186 -0.02288495 0.06839633
v 0.02391195 -0.02145682 0.06639984
v 0.02384626 -0.02147076 0.07047388
v 0.02375381 -0.02142635 0.07480749
v 0.02365402 -0.02278465 0.07705973
v 0.02295513 0.03060688 0.07269450
v 0.02282991 0.03215107 0.07538448
v 0.02395363 -0.02228730 0.05381167
v 0.02362821 -0.02132134 0.07940428
v 0.02355741 -0.01985902 0.08181664
v 0.02360524 -0.01853647 0.07943021
v 0.02287048 0.03092374 0.07764126
v 0.02264210 0.03448908 0.07124993
v 0.02275470 0.03333756 0.07325450
v 0.02283702 0.03294767 0.06858306
v 0.02280964 0.03356597 0.06238336
v 0.02292206 0.03247230 0.06414755
v 0.02300650 0.03191733 0.05993809
v 0.02295427 0.03232396 0.05438390
v 0.02308055 0.03128830 0.05594546
v 0.02313426 0.03059112 0.05216057
v 0.02300203 0.03080591 0.04718228
v 0.02315767 0.02983215 0.04857463
v 0.02374608 -0.02535341 0.05716326
v 0.02387196 -0.02382772 0.05547984
v 0.02386051 -0.02405734 0.05893430
v 0.02369160 -0.02566838 0.06441885
v 0.02383431 -0.02420783 0.06255451
v 0.02378994 -0.02428614 0.06638056
v 0.02372382 -0.02429824 0.07045067
v 0.02355793 -0.02569387 0.07256769
v 0.02363052 -0.02424430 0.07478183
v 0.02350347 -0.02412053 0.07937758
v 0.02330334 -0.02542981 0.08176368
v 0.02266929 0.03363570 0.07817277
v 0.02375003 -0.02469963 0.05049268
v 0.02387209 -0.02351132 0.05215107
v 0.02333607 -0.02392445 0.08424127
v 0.02346309 -0.02115457 0.08426758
v 0.02344752 -0.01840134 0.08429687
v 0.02214784 0.03737311 0.07687452
v 0.02232725 0.03622507 0.07889907
v 0.02241162 0.03596707 0.07401679
v 0.02230904 0.03672080 0.06759041
v 0.02249265 0.03561386 0.06936489
v 0.02257573 0.03517063 0.06493541
v 0.02246852 0.03570908 0.05915044
v 0.02265802 0.03464235 0.06072081
v 0.02273076 0.03403383 0.05671396
v 0.02257561 0.03437104 0.05150549
v 0.02278505 0.03334990 0.05290717
v 0.02281204 0.03259444 0.04929111
v 0.02256520 0.03272893 0.04458595
v 0.02280285 0.03177142 0.04585613
v 0.02275224 0.03088609 0.04259451
v 0.02339668 -0.02784449 0.05366604
v 0.02359393 -0.02628199 0.05207558
v 0.02359051 -0.02661666 0.05540994
v 0.02336466 -0.02835299 0.06061689
v 0.02357670 -0.02686235 0.05887212
v 0.02354900 -0.02702566 0.06250104
v 0.02327267 -0.02853814 0.06831419
v 0.02350395 -0.02711235 0.06633575
v 0.02343790 -0.02712705 0.07041343
v 0.02334555 -0.02706812 0.07475081
v 0.02308861 -0.02841649 0.07700240
v 0.02322049 -0.02692961 0.07935171
v 0.02305631 -0.02670721 0.08421970
v 0.02339874 -0.02745510 0.05037609
v 0.02359282 -0.02607910 0.05044417
v 0.02339852 -0.02766171 0.05200954
v 0.02386432 -0.02310013 0.04890794
v 0.02339607 -0.02696721 0.04715946
v 0.02359040 -0.02585130 0.04883009
v 0.02339778 -0.02722386 0.04876097
v 0.02185324 0.03870021 0.07981144
v 0.02193494 0.03850237 0.07497239
v 0.02201343 0.03820705 0.07034236
v 0.02209335 0.03781800 0.06591685
v 0.02217233 0.03733871 0.06169171
v 0.02224297 0.03677277 0.05766291
v 0.02229779 0.03612313 0.05382513
v 0.02232934 0.03539026 0.05016892
v 0.02233020 0.03457422 0.04668406
v 0.02229598 0.03367644 0.04336203
v 0.02223168 0.03270151 0.04019971
v 0.02316925 -0.02882627 0.05028876
v 0.02316995 -0.02859258 0.04867214
v 0.02316747 -0.02903581 0.05192499
v 0.02315901 -0.02938527 0.05527446
v 0.02314129 -0.02964638 0.05875665
v 0.02311097 -0.02982408 0.06240778
v 0.02306479 -0.02992220 0.06626406
v 0.02299927 -0.02994336 0.07036014
v 0.02290952 -0.02988341 0.07471202
v 0.02278967 -0.02973371 0.07932400
v 0.02263386 -0.02948749 0.08420017
v 0.02374175 -0.02422706 0.04727748
v 0.02380497 -0.02354167 0.04729430
v 0.02374639 -0.02447628 0.04887921
v 0.02358713 -0.02559775 0.04722852
v 0.02189481 0.03861373 0.07736550
v 0.02205308 0.03802402 0.06810430
v 0.02220917 0.03706633 0.05965301
v 0.02231694 0.03576710 0.05197497
v 0.02231729 0.03413530 0.04500295
v 0.02316999 -0.02833407 0.04707062
v 0.02316420 -0.02922193 0.05358540
v 0.02312791 -0.02974540 0.06055883
v 0.02303469 -0.02994239 0.06828045
v 0.02285373 -0.02982029 0.07698524
v 0.02288909 -0.02809642 0.03948713
v 0.01980816 -0.03841675 0.03985988
v 0.02053074 -0.03740728 0.04061802
v 0.01876415 -0.03924732 0.03929702
v 0.01849927 -0.03967252 0.04058952
v 0.01933122 -0.03905504 0.04060116
v 0.02025688 -0.03792412 0.04061416
v 0.01837316 -0.04073957 0.04772624
v 0.01824345 -0.04147137 0.05489676
v 0.01932746 -0.03872213 0.09496903
v 0.01845729 -0.03943265 0.09584104
v 0.01872263 -0.04003258 0.09076800
v 0.01616070 -0.04011468 0.09767713
v 0.01944024 -0.03859990 0.09482418
v 0.02017946 -0.03904962 0.04770859
v 0.01796501 -0.04210907 0.06928919
v 0.01810692 -0.04192679 0.06208739
v 0.01781770 -0.04199242 0.07649426
v 0.01766481 -0.04154377 0.08368860
v 0.01750528 -0.04077583 0.09085770
v 0.01730995 -0.03993183 0.09682979
v 0.01884654 -0.04081371 0.08361265
v 0.01896164 -0.04127267 0.07643203
v 0.01907078 -0.04139737 0.06924126
v 0.01917631 -0.04121851 0.06205447
v 0.01927961 -0.04075756 0.05487913
v 0.01938155 -0.04000713 0.04772448
v 0.02010387 -0.03980711 0.05484302
v 0.02002664 -0.04025873 0.06200035
v 0.01994650 -0.04041727 0.06916926
v 0.01986280 -0.04026697 0.07634034
v 0.01977278 -0.03978119 0.08349919
v 0.01967309 -0.03897328 0.09063077
v 0.01997875 -0.03781574 0.09405214
v -0.00950000 -0.01566026 0.10200000
v -0.00950000 -0.01816026 0.10133012
v -0.00950000 -0.03050000 0.09420577
v -0.00950000 -0.01050000 0.10200000
v -0.02500000 0.00000000 0.00020000
v -0.02407936 -0.00593503 0.00000000
v -0.02427355 -0.00598289 0.00020000
v -0.02195931 -0.01152513 0.00000000
v -0.02213640 -0.01161808 0.00020000
v -0.01856307 -0.01644544 0.00000000
v -0.01871277 -0.01657807 0.00020000
v -0.01408801 -0.02041000 0.00000000
v -0.01420162 -0.02057460 0.00020000
v -0.00879420 -0.02318840 0.00000000
v -0.00886512 -0.02337541 0.00020000
v -0.00298931 -0.02461918 0.00000000
v -0.00301342 -0.02481772 0.00020000
v 0.00298931 -0.02461918 0.00000000
v 0.00301342 -0.02481772 0.00020000
v 0.00879420 -0.02318840 0.00000000
v 0.00886512 -0.02337541 0.00020000
v 0.01408801 -0.02041000 0.00000000
v 0.01420162 -0.02057460 0.00020000
v 0.01856306 -0.01644544 0.00000000
v 0.01871277 -0.01657807 0.00020000
v 0.02195931 -0.01152513 0.00000000
v 0.02213640 -0.01161808 0.00020000
v 0.02407935 -0.00593503 0.00000000
v 0.02427355 -0.00598289 0.00020000
v 0.02480000 0.00000000 0.00000000
v 0.02500000 0.00000000 0.00020000
v 0.02407935 0.00593503 0.00000000
v 0.02427355 0.00598289 0.00020000
v 0.02195931 0.01152514 0.00000000
v 0.02213640 0.01161808 0.00020000
v 0.01856306 0.01644544 0.00000000
v 0.01871277 0.01657806 0.00020000
v 0.01408801 0.02041000 0.00000000
v 0.01420162 0.02057460 0.00020000
v 0.00879420 0.02318840 0.00000000
v 0.00886512 0.02337541 0.00020000
v 0.00298931 0.02461918 0.00000000
v 0.00301342 0.02481772 0.00020000
v -0.00298931 0.02461918 0.00000000
v -0.00301342 0.02481772 0.00020000
v -0.00879420 0.02318840 0.00000000
v -0.00886512 0.02337541 0.00020000
v -0.01408801 0.02041000 0.00000000
v -0.01420162 0.02057460 0.00020000
v -0.01856307 0.01644544 0.00000000
v -0.01871277 0.01657806 0.00020000
v -0.02195931 0.01152514 0.00000000
v -0.02213640 0.01161808 0.00020000
v -0.02407936 0.00593503 0.00000000
v -0.02427355 0.00598289 0.00020000
v -0.02480000 0.00000000 0.00000000
v -0.02481935 0.00300000 0.00500000
v -0.02483306 0.00288433 0.00582502
v -0.02427355 0.00598289 0.00582502
v -0.02486463 0.00259808 0.00350000
v -0.02483149 0.00289778 0.00422357
v -0.02490989 0.00212076 0.00287812
v -0.02500000 0.00000000 0.00200000
v -0.02498791 0.00077729 0.00210245
v -0.02495496 0.00150000 0.00240192
v -0.02481935 -0.00300000 0.00500000
v -0.02483149 -0.00289778 0.00422356
v -0.02486463 -0.00259808 0.00350000
v -0.02490989 -0.00212069 0.00287805
v -0.02495496 -0.00150000 0.00240192
v -0.02498791 -0.00077740 0.00210247
v 0.02490989 -0.00212076 0.00287812
v 0.02500000 0.00000000 0.00200000
v 0.02498792 -0.00077729 0.00210245
v 0.02495496 -0.00150000 0.00240192
v 0.02490989 0.00212069 0.00287805
v 0.02495496 0.00150000 0.00240192
v 0.02498791 0.00077740 0.00210247
v -0.02337541 0.00886512 0.00582502
v -0.02483306 -0.00288433 0.00582502
v -0.02427355 -0.00598289 0.00582502
v -0.02337541 -0.00886512 0.00582502
v -0.02481645 -0.00276146 0.00617232
v -0.02424404 -0.00597562 0.00617232
v -0.02471140 -0.00212133 0.00712131
v -0.02467266 -0.00150000 0.00759808
v -0.02465316 -0.00077711 0.00789760
v -0.02464735 0.00000000 0.00800000
v -0.02465316 0.00077724 0.00789757
v -0.02467266 0.00150000 0.00759808
v -0.02481645 0.00276146 0.00617232
v -0.01110000 -0.03802388 0.08630554
v -0.01110000 -0.03865646 0.08585530
v -0.01110000 -0.03897918 0.08514908
f 5 506 508
f 496 4 582
f 526 525 528
f 527 528 525
f 499 4 496
f 7 542 544
f 6 213 7
f 504 506 5
f 546 7 544
f 546 548 6
f 6 7 546
f 496 587 497
f 316 339 588
f 43 42 85
f 86 362 85
f 87 362 86
f 87 86 88
f 145 144 85
f 526 528 571
f 6 204 203
f 22 4 37
f 336 522 330
f 588 576 589
f 589 504 5
f 589 316 588
f 6 548 3
f 548 546 545
f 545 546 544
f 496 582 581
f 581 587 496
f 588 339 498
f 498 587 588
f 498 497 587
f 316 589 317
f 524 525 526
f 330 522 524
f 480 311 479
f 85 144 143
f 143 43 85
f 89 88 86
f 89 86 85
f 531 534 532
f 531 533 534
f 532 530 531
f 87 88 573
f 176 82 174
f 183 162 184
f 534 533 535
f 535 536 534
f 538 536 535
f 16 41 15
f 144 145 15
f 15 145 148
f 15 143 144
f 41 143 15
f 496 497 40
f 490 113 92
f 92 113 93
f 330 524 329
f 329 524 328
f 522 336 338
f 287 5 288
f 557 550 500
f 574 550 554
f 554 3 574
f 548 550 574
f 574 3 548
f 1 4 22
f 259 8 9
f 576 502 577
f 577 502 504
f 504 589 577
f 577 589 576
f 544 542 541
f 542 540 541
f 541 540 539
f 588 587 578
f 578 581 582
f 316 317 315
f 505 508 506
f 506 504 505
f 200 516 518
f 525 524 523
f 518 516 517
f 337 518 520
f 520 338 337
f 520 517 519
f 518 517 520
f 520 519 522
f 522 338 520
f 290 5 287
f 290 589 5
f 272 299 307
f 271 479 311
f 311 272 271
f 485 492 484
f 485 478 486
f 478 470 486
f 494 101 495
f 326 589 324
f 589 290 324
f 323 272 311
f 323 321 326
f 326 324 323
f 326 321 325
f 325 321 317
f 325 589 326
f 325 317 589
f 317 321 314
f 318 315 314
f 314 315 317
f 90 42 361
f 361 89 90
f 85 42 90
f 90 89 85
f 526 573 568
f 567 524 526
f 526 570 567
f 567 570 449
f 449 448 567
f 360 43 390
f 361 42 360
f 42 43 360
f 181 84 528
f 528 530 181
f 174 82 83
f 83 84 174
f 528 84 83
f 403 528 435
f 529 531 530
f 528 527 529
f 529 530 528
f 526 571 572
f 572 573 526
f 63 67 68
f 167 80 176
f 176 80 74
f 182 183 63
f 63 68 182
f 182 68 169
f 162 183 182
f 63 183 61
f 184 56 54
f 54 183 184
f 54 61 183
f 148 145 146
f 242 240 249
f 241 239 242
f 242 239 240
f 242 249 538
f 538 241 242
f 214 241 538
f 214 7 213
f 538 540 214
f 542 7 214
f 214 540 542
f 538 535 537
f 180 530 532
f 534 536 171
f 171 170 534
f 206 3 207
f 206 210 3
f 262 9 10
f 4 499 39
f 39 37 4
f 339 316 36
f 490 92 491
f 491 492 485
f 491 486 490
f 485 486 491
f 489 113 490
f 489 488 476
f 489 114 113
f 476 114 489
f 121 119 93
f 115 119 116
f 116 101 115
f 93 113 112
f 113 114 112
f 112 109 96
f 96 109 111
f 554 553 2
f 2 3 554
f 2 1 22
f 2 259 3
f 265 3 258
f 3 259 258
f 262 257 258
f 257 265 258
f 261 9 262
f 262 258 261
f 543 545 544
f 544 541 543
f 588 578 575
f 587 581 580
f 580 578 587
f 581 578 580
f 586 2 553
f 1 2 586
f 4 1 586
f 195 285 196
f 510 285 5
f 5 508 510
f 512 285 510
f 509 511 510
f 510 511 512
f 5 285 284
f 508 505 507
f 507 510 508
f 509 510 507
f 504 502 503
f 503 505 504
f 199 518 337
f 199 200 518
f 516 200 201
f 201 200 331
f 521 524 522
f 521 523 524
f 522 519 521
f 515 516 513
f 515 517 516
f 479 271 477
f 477 478 485
f 273 478 477
f 485 484 477
f 477 484 479
f 482 481 472
f 322 323 311
f 321 323 322
f 322 311 480
f 480 481 322
f 101 494 493
f 492 115 493
f 493 115 101
f 302 299 303
f 303 323 302
f 302 323 324
f 272 323 308
f 299 272 308
f 318 314 313
f 417 416 415
f 447 105 104
f 447 417 150
f 416 417 447
f 569 570 526
f 526 568 569
f 451 567 448
f 451 424 423
f 449 570 422
f 570 387 422
f 449 422 386
f 386 422 387
f 93 112 132
f 81 78 528
f 528 83 81
f 82 78 81
f 81 83 82
f 528 78 436
f 436 435 528
f 75 74 80
f 405 528 403
f 45 49 46
f 46 44 45
f 158 44 184
f 45 44 158
f 158 49 45
f 158 15 49
f 80 167 71
f 169 68 71
f 71 167 169
f 69 68 67
f 69 71 68
f 63 61 64
f 153 15 148
f 49 15 153
f 427 51 452
f 452 50 426
f 51 50 452
f 148 146 149
f 149 146 147
f 149 392 148
f 147 392 149
f 6 203 212
f 240 239 237
f 245 239 241
f 241 214 245
f 213 239 245
f 245 214 213
f 179 180 532
f 532 534 179
f 534 170 179
f 538 249 246
f 246 536 538
f 170 171 172
f 172 179 170
f 180 179 172
f 174 84 172
f 84 181 172
f 172 181 530
f 530 180 172
f 210 228 230
f 230 204 6
f 6 3 230
f 3 210 230
f 208 206 207
f 264 265 257
f 233 264 252
f 231 264 233
f 163 202 223
f 249 240 248
f 248 175 249
f 194 182 169
f 257 256 253
f 256 255 253
f 253 264 257
f 253 255 193
f 11 10 16
f 193 255 11
f 11 255 256
f 256 10 11
f 262 10 263
f 263 10 256
f 263 257 262
f 263 256 257
f 185 158 184
f 15 186 190
f 186 185 190
f 190 185 188
f 23 41 16
f 16 25 23
f 23 143 41
f 23 142 143
f 339 36 38
f 38 498 339
f 497 498 38
f 38 40 497
f 33 316 32
f 33 36 316
f 337 338 333
f 466 488 469
f 487 486 470
f 487 470 469
f 469 488 487
f 488 489 487
f 490 486 487
f 487 489 490
f 106 101 116
f 104 105 106
f 116 118 106
f 106 118 104
f 120 121 93
f 412 416 445
f 119 115 91
f 91 92 93
f 93 119 91
f 91 491 92
f 492 491 91
f 91 115 492
f 462 329 328
f 462 94 329
f 329 94 110
f 330 329 110
f 110 111 330
f 96 111 110
f 127 112 96
f 457 94 423
f 109 112 108
f 108 112 114
f 476 109 108
f 108 114 476
f 464 109 476
f 464 111 109
f 330 111 464
f 555 557 553
f 553 556 555
f 550 557 555
f 555 556 550
f 552 553 554
f 552 556 553
f 554 550 552
f 550 556 552
f 8 259 14
f 259 13 14
f 13 20 14
f 259 2 12
f 12 13 259
f 12 2 22
f 260 259 9
f 9 261 260
f 260 258 259
f 260 261 258
f 579 576 588
f 588 575 579
f 579 575 576
f 561 502 576
f 576 575 561
f 558 575 553
f 584 586 583
f 583 582 4
f 4 584 583
f 583 586 578
f 583 578 582
f 585 584 4
f 4 586 585
f 585 586 584
f 551 502 500
f 500 550 551
f 268 466 469
f 281 201 331
f 291 296 293
f 5 284 283
f 299 302 300
f 294 296 291
f 273 477 270
f 270 477 271
f 270 307 273
f 270 272 307
f 270 271 272
f 26 482 472
f 472 471 26
f 320 322 481
f 320 482 474
f 481 482 320
f 320 314 321
f 321 322 320
f 473 493 494
f 473 471 472
f 494 471 473
f 473 481 480
f 472 481 473
f 289 324 290
f 289 302 324
f 289 300 302
f 289 290 287
f 287 300 289
f 303 299 304
f 299 308 304
f 304 323 303
f 304 308 323
f 388 139 384
f 157 156 155
f 157 447 150
f 150 156 157
f 137 389 138
f 137 136 389
f 140 139 388
f 388 136 140
f 136 137 140
f 138 139 140
f 140 137 138
f 524 567 327
f 567 451 327
f 327 451 423
f 328 524 327
f 327 462 328
f 423 94 327
f 94 462 327
f 459 132 441
f 450 448 449
f 449 386 450
f 450 386 424
f 450 451 448
f 424 451 450
f 420 386 407
f 424 386 420
f 407 419 420
f 406 407 408
f 408 410 406
f 458 440 129
f 406 440 458
f 133 132 459
f 133 134 93
f 93 132 133
f 129 440 130
f 130 112 129
f 87 573 341
f 67 431 432
f 432 69 67
f 455 69 432
f 400 455 432
f 433 455 400
f 433 434 72
f 433 69 455
f 72 434 73
f 73 71 72
f 80 71 73
f 435 75 456
f 403 435 456
f 456 434 403
f 77 75 435
f 77 436 78
f 435 436 77
f 77 78 82
f 74 75 77
f 454 431 65
f 65 64 454
f 63 64 65
f 49 153 154
f 154 153 426
f 52 51 56
f 52 50 51
f 52 56 184
f 184 44 52
f 61 54 53
f 54 55 53
f 58 51 427
f 56 51 58
f 427 452 391
f 391 452 426
f 148 392 391
f 391 153 148
f 426 153 391
f 400 432 399
f 399 401 400
f 244 239 213
f 213 237 244
f 244 237 239
f 211 237 213
f 211 213 6
f 6 212 211
f 234 212 203
f 235 212 234
f 205 203 204
f 173 171 536
f 536 246 173
f 173 246 249
f 249 175 173
f 173 175 174
f 174 172 173
f 173 172 171
f 204 230 229
f 229 230 228
f 229 205 204
f 227 205 229
f 206 208 232
f 232 208 231
f 231 233 232
f 232 217 228
f 218 217 232
f 232 252 218
f 232 233 252
f 265 264 254
f 254 264 231
f 231 208 254
f 254 208 207
f 207 3 254
f 254 3 265
f 264 253 251
f 251 223 218
f 175 248 177
f 177 248 178
f 177 178 176
f 174 175 177
f 177 176 174
f 218 223 220
f 220 223 202
f 235 234 236
f 247 216 166
f 178 248 247
f 164 202 163
f 164 194 202
f 182 194 164
f 163 162 164
f 162 182 164
f 202 194 215
f 215 194 216
f 215 220 202
f 166 216 168
f 216 194 168
f 168 194 169
f 169 167 168
f 167 166 168
f 9 8 19
f 19 18 9
f 8 14 19
f 19 14 20
f 187 185 186
f 158 185 187
f 187 186 15
f 15 158 187
f 189 190 188
f 15 190 189
f 193 11 189
f 16 15 189
f 189 11 16
f 159 223 222
f 222 191 159
f 160 191 188
f 160 185 184
f 188 185 160
f 160 159 191
f 184 162 160
f 162 159 160
f 222 253 192
f 192 191 222
f 188 191 192
f 192 253 193
f 193 189 192
f 192 189 188
f 21 20 13
f 21 12 22
f 13 12 21
f 22 37 21
f 37 35 21
f 141 23 138
f 142 23 141
f 143 142 141
f 43 143 141
f 390 43 141
f 141 360 390
f 138 389 141
f 389 360 141
f 16 10 17
f 17 10 9
f 9 18 17
f 468 464 476
f 332 338 336
f 332 333 338
f 332 336 330
f 330 464 332
f 332 468 333
f 464 468 332
f 116 125 117
f 117 118 116
f 117 125 445
f 416 447 446
f 446 447 104
f 104 118 446
f 107 106 105
f 105 447 107
f 447 157 107
f 101 106 102
f 93 134 135
f 135 120 93
f 119 123 124
f 116 119 124
f 124 125 116
f 445 125 124
f 119 121 122
f 122 123 119
f 411 412 409
f 409 410 411
f 459 441 409
f 406 410 409
f 409 440 406
f 409 441 440
f 121 120 443
f 443 409 412
f 443 122 121
f 421 407 406
f 421 419 407
f 437 419 421
f 438 419 437
f 559 558 553
f 500 558 559
f 501 503 502
f 502 551 501
f 547 550 548
f 548 545 547
f 513 516 514
f 514 198 195
f 195 196 514
f 514 285 512
f 514 196 285
f 469 470 309
f 309 268 469
f 195 198 277
f 201 281 280
f 295 293 288
f 288 293 298
f 298 293 296
f 287 288 298
f 298 296 287
f 307 299 292
f 292 294 291
f 299 300 292
f 300 294 292
f 286 300 287
f 286 294 300
f 287 296 286
f 296 294 286
f 474 482 28
f 482 26 28
f 24 139 138
f 138 23 24
f 319 320 474
f 474 28 319
f 312 313 314
f 314 320 312
f 320 319 312
f 312 28 313
f 312 319 28
f 493 473 483
f 483 484 492
f 492 493 483
f 483 473 480
f 480 479 483
f 479 484 483
f 152 384 139
f 139 24 152
f 150 417 418
f 417 384 418
f 384 152 418
f 388 384 383
f 383 136 388
f 439 127 437
f 437 421 439
f 406 458 439
f 439 421 406
f 131 441 132
f 131 132 112
f 112 130 131
f 440 441 131
f 131 130 440
f 70 433 72
f 69 433 70
f 72 71 70
f 71 69 70
f 79 456 75
f 79 75 80
f 80 73 79
f 79 73 434
f 434 456 79
f 76 77 82
f 74 77 76
f 82 176 76
f 176 74 76
f 66 431 67
f 66 65 431
f 66 67 63
f 63 65 66
f 426 50 47
f 47 154 426
f 47 52 44
f 50 52 47
f 57 55 54
f 57 54 56
f 56 58 57
f 427 391 428
f 428 58 427
f 428 57 58
f 55 57 428
f 393 392 147
f 147 363 393
f 393 391 392
f 400 401 402
f 402 433 400
f 434 433 402
f 454 64 430
f 366 363 365
f 85 362 357
f 357 145 85
f 345 362 87
f 87 341 345
f 345 341 573
f 243 212 235
f 243 211 212
f 235 237 243
f 237 211 243
f 203 205 226
f 226 205 227
f 227 236 226
f 226 236 234
f 210 206 209
f 206 232 209
f 209 228 210
f 209 232 228
f 252 264 250
f 264 251 250
f 218 252 250
f 250 251 218
f 224 253 222
f 224 251 253
f 222 223 224
f 223 251 224
f 165 247 166
f 178 247 165
f 165 166 167
f 165 167 176
f 176 178 165
f 238 237 235
f 235 236 238
f 240 237 238
f 238 248 240
f 238 247 248
f 221 215 216
f 216 247 221
f 221 236 227
f 221 238 236
f 247 238 221
f 163 223 161
f 223 159 161
f 161 162 163
f 161 159 162
f 488 466 467
f 445 416 461
f 416 446 461
f 461 117 445
f 118 117 461
f 461 446 118
f 155 98 97
f 97 157 155
f 97 107 157
f 495 101 103
f 101 102 103
f 155 152 103
f 103 98 155
f 103 102 98
f 103 24 495
f 103 152 24
f 99 97 98
f 106 107 99
f 107 97 99
f 120 135 442
f 442 443 120
f 442 135 134
f 459 409 442
f 409 443 442
f 134 133 442
f 442 133 459
f 123 122 460
f 122 443 460
f 460 443 412
f 419 438 425
f 423 424 425
f 425 457 423
f 425 438 457
f 424 420 425
f 425 420 419
f 457 438 95
f 94 457 95
f 95 110 94
f 96 110 95
f 575 565 564
f 500 502 564
f 564 565 500
f 575 558 566
f 566 565 575
f 566 558 500
f 500 565 566
f 553 557 560
f 560 559 553
f 560 557 500
f 500 559 560
f 549 551 550
f 550 547 549
f 198 514 197
f 201 280 197
f 516 201 197
f 197 514 516
f 279 198 197
f 197 280 279
f 273 307 275
f 275 309 470
f 275 478 273
f 275 470 478
f 309 275 310
f 266 276 284
f 266 277 276
f 266 284 285
f 266 285 195
f 195 277 266
f 268 280 267
f 267 280 281
f 267 281 331
f 331 466 267
f 466 268 267
f 301 295 288
f 297 295 301
f 301 283 297
f 301 288 5
f 5 283 301
f 293 295 305
f 291 293 305
f 305 310 291
f 30 315 318
f 318 313 30
f 313 28 30
f 32 316 30
f 316 315 30
f 475 24 26
f 475 26 471
f 495 24 475
f 475 494 495
f 475 471 494
f 150 418 151
f 151 418 152
f 151 156 150
f 155 156 151
f 151 152 155
f 411 410 374
f 410 408 374
f 407 386 374
f 374 408 407
f 570 569 349
f 569 350 349
f 340 353 568
f 340 568 573
f 340 573 88
f 361 360 340
f 88 89 340
f 340 89 361
f 389 136 355
f 136 383 355
f 127 439 128
f 129 112 128
f 112 127 128
f 128 458 129
f 128 439 458
f 49 154 48
f 154 47 48
f 48 47 44
f 48 46 49
f 44 46 48
f 62 64 61
f 61 60 62
f 62 430 64
f 60 430 62
f 61 53 59
f 59 60 61
f 59 53 429
f 429 430 59
f 59 430 60
f 429 53 453
f 453 53 55
f 55 428 453
f 396 363 366
f 528 405 404
f 404 405 403
f 403 434 404
f 434 402 404
f 347 348 572
f 347 572 571
f 571 373 347
f 369 402 401
f 401 399 369
f 369 399 366
f 366 370 369
f 368 370 366
f 147 146 385
f 385 363 147
f 385 146 145
f 145 357 385
f 356 357 362
f 362 345 356
f 342 357 356
f 572 348 346
f 573 572 346
f 346 345 573
f 225 234 203
f 203 226 225
f 225 226 234
f 219 221 227
f 215 221 219
f 220 215 219
f 228 217 219
f 219 217 218
f 218 220 219
f 219 229 228
f 227 229 219
f 333 468 463
f 463 468 476
f 476 488 463
f 488 467 463
f 100 102 106
f 106 99 100
f 98 102 100
f 100 99 98
f 444 124 123
f 123 460 444
f 445 124 444
f 444 412 445
f 444 460 412
f 126 95 438
f 437 127 126
f 126 438 437
f 126 127 96
f 96 95 126
f 575 564 563
f 563 564 502
f 279 280 269
f 269 305 276
f 310 305 269
f 309 310 269
f 268 309 269
f 269 280 268
f 291 310 274
f 274 310 275
f 274 275 307
f 307 292 274
f 274 292 291
f 306 295 297
f 306 305 295
f 297 283 306
f 276 305 306
f 411 374 377
f 377 374 378
f 378 374 376
f 376 349 378
f 381 383 384
f 381 377 380
f 381 417 415
f 381 384 417
f 352 353 351
f 351 349 352
f 352 349 350
f 568 353 352
f 352 569 568
f 352 350 569
f 351 353 354
f 354 355 351
f 353 340 354
f 354 340 360
f 382 355 383
f 383 381 382
f 382 381 380
f 382 380 351
f 351 355 382
f 395 393 363
f 363 396 395
f 366 399 398
f 398 396 366
f 372 404 402
f 402 369 372
f 372 373 571
f 372 571 528
f 528 404 372
f 371 369 370
f 371 347 373
f 373 372 371
f 371 372 369
f 366 365 367
f 367 368 366
f 367 365 342
f 342 368 367
f 364 365 363
f 363 385 364
f 364 385 357
f 342 365 364
f 364 357 342
f 343 345 342
f 342 356 343
f 343 356 345
f 345 346 344
f 342 345 344
f 344 368 342
f 370 368 344
f 344 371 370
f 347 371 344
f 348 347 344
f 344 346 348
f 331 200 334
f 200 199 334
f 562 561 575
f 575 563 562
f 502 561 562
f 562 563 502
f 279 269 278
f 278 269 276
f 276 277 278
f 278 198 279
f 278 277 198
f 282 283 284
f 282 306 283
f 284 276 282
f 276 306 282
f 379 377 378
f 380 377 379
f 351 380 379
f 379 349 351
f 378 349 379
f 570 349 358
f 349 376 358
f 377 381 414
f 414 381 415
f 415 416 414
f 416 412 414
f 359 360 389
f 359 354 360
f 389 355 359
f 355 354 359
f 391 393 394
f 393 395 394
f 394 428 391
f 394 453 428
f 429 453 394
f 394 395 396
f 394 430 429
f 397 398 399
f 397 431 454
f 454 430 397
f 397 432 431
f 397 399 432
f 430 394 397
f 396 398 397
f 397 394 396
f 335 463 467
f 467 334 335
f 333 463 335
f 337 333 335
f 335 199 337
f 335 334 199
f 465 467 466
f 465 334 467
f 465 466 331
f 331 334 465
f 375 358 376
f 375 376 374
f 375 387 570
f 570 358 375
f 375 386 387
f 375 374 386
f 411 377 413
f 377 414 413
f 413 412 411
f 413 414 412
f 537 540 538
f 539 540 537
f 496 40 39
f 39 499 496
f 586 575 578
f 553 575 586
f 38 39 40
f 37 39 38
f 37 38 35
f 35 38 36
f 17 27 25
f 17 25 16
f 18 19 29
f 29 19 31
f 27 17 29
f 29 17 18
f 514 511 513
f 512 511 514
f 25 27 28
f 28 26 25
f 25 26 24
f 24 23 25
f 31 19 34
f 34 19 20
f 20 21 34
f 34 21 35
f 32 31 34
f 34 33 32
f 34 35 36
f 36 33 34
f 513 511 549
f 545 543 549
f 549 527 525
f 549 521 519
f 549 529 527
f 509 507 549
f 549 541 539
f 525 523 549
f 533 531 549
f 549 535 533
f 539 537 549
f 549 511 509
f 549 515 513
f 519 517 549
f 531 529 549
f 549 537 535
f 549 543 541
f 549 507 505
f 505 503 549
f 523 521 549
f 517 515 549
f 503 501 549
f 549 501 551
f 549 547 545
f 30 29 31
f 30 31 32
f 27 29 30
f 30 28 27

