# https://github.com/mikedh/trimesh
v -0.00000447 -0.00001895 0.00000002
v -0.00000662 -0.00002274 0.00000003
v -0.00006781 -0.00003389 0.00000029
v -0.00006962 -0.00003246 0.00000030
v -0.00008121 -0.00001697 0.00000035
v -0.00008220 -0.00001449 0.00000035
v -0.00008453 -0.00000436 0.00000036
v -0.00008475 -0.00000000 0.00000036
v -0.00007116 0.00003110 0.00000030
v -0.00006962 0.00003246 0.00000030
v -0.00005211 0.00004124 0.00000022
v -0.00004974 0.00004173 0.00000021
v -0.00003053 0.00004069 0.00000013
v -0.00002788 0.00003982 0.00000012
v -0.00000140 0.00001079 0.00000001
v -0.00000050 0.00000652 0.00000000
v -0.00000006 0.00000218 0.00000000
v -0.00000000 0.00000000 -0.00000000
v -0.00000256 0.00001449 0.00000001
v -0.00000447 0.00001895 0.00000002
v -0.00000568 0.00002119 0.00000002
v -0.00001203 0.00002958 0.00000005
v -0.00000991 0.00002724 0.00000004
v -0.00001523 0.00003254 0.00000007
v -0.00001872 0.00003516 0.00000008
v -0.00002246 0.00003741 0.00000010
v -0.00003911 0.00004225 0.00000017
v -0.00003502 0.00004173 0.00000015
v -0.00004347 0.00004236 0.00000019
v -0.00006034 0.00003838 0.00000026
v -0.00005687 0.00003982 0.00000024
v -0.00006419 0.00003633 0.00000027
v -0.00006781 0.00003389 0.00000029
v -0.00007691 0.00002455 0.00000033
v -0.00007484 0.00002724 0.00000032
v -0.00007926 0.00002087 0.00000034
v -0.00008121 0.00001697 0.00000035
v -0.00008275 0.00001289 0.00000035
v -0.00008453 0.00000436 0.00000036
v -0.00008411 0.00000736 0.00000036
v -0.00008386 -0.00000867 0.00000036
v -0.00007691 -0.00002455 0.00000033
v -0.00007908 -0.00002119 0.00000034
v -0.00007484 -0.00002724 0.00000032
v -0.00007116 -0.00003110 0.00000030
v -0.00006034 -0.00003838 0.00000026
v -0.00006419 -0.00003633 0.00000027
v -0.00005687 -0.00003982 0.00000024
v -0.00005211 -0.00004124 0.00000022
v -0.00004974 -0.00004173 0.00000021
v -0.00003911 -0.00004225 0.00000017
v -0.00004347 -0.00004236 0.00000019
v -0.00003502 -0.00004173 0.00000015
v -0.00003053 -0.00004069 0.00000013
v -0.00002788 -0.00003982 0.00000012
v -0.00001872 -0.00003516 0.00000008
v -0.00002246 -0.00003741 0.00000010
v -0.00001203 -0.00002958 0.00000005
v -0.00001523 -0.00003254 0.00000007
v -0.00000991 -0.00002724 0.00000004
v -0.00000140 -0.00001079 0.00000001
v -0.00000272 -0.00001495 0.00000001
v -0.00000064 -0.00000736 0.00000000
v -0.00000006 -0.00000218 0.00000000
v -0.05636657 -0.00688772 0.09396487
v -0.05625098 -0.00778085 0.09396438
v -0.05512277 -0.01367501 0.09395955
v -0.05466424 -0.01541676 0.09395759
v -0.05306993 -0.02026288 0.09395077
v -0.05205252 -0.02276548 0.09394642
v -0.05023798 -0.02655527 0.09393866
v -0.04846450 -0.02969013 0.09393108
v -0.04666822 -0.03246043 0.09392340
v -0.04396699 -0.03606170 0.09391185
v -0.04241271 -0.03789224 0.09390520
v -0.03864378 -0.04176152 0.09388908
v -0.03753349 -0.04277149 0.09388433
v -0.03259404 -0.04668339 0.09386321
v -0.02619663 -0.05059684 0.09383585
v -0.02593045 -0.05073565 0.09383472
v -0.01990429 -0.05342881 0.09380895
v -0.01877716 -0.05384279 0.09380413
v -0.01331648 -0.05548168 0.09378078
v -0.01126740 -0.05594694 0.09377202
v -0.00652926 -0.05672549 0.09375176
v -0.00354108 -0.05700891 0.09373898
v 0.00035840 -0.05714212 0.09372230
v 0.00425788 -0.05700891 0.09370562
v 0.00724606 -0.05672549 0.09369285
v 0.01198420 -0.05594694 0.09367259
v 0.01403328 -0.05548168 0.09366383
v 0.01949396 -0.05384279 0.09364048
v 0.03281853 -0.04702704 0.09358349
v 0.03331083 -0.04668339 0.09358139
v 0.03825029 -0.04277149 0.09356027
v 0.03936058 -0.04176152 0.09355552
v 0.04312950 -0.03789224 0.09353940
v 0.04468378 -0.03606170 0.09353276
v 0.04738501 -0.03246043 0.09352121
v 0.04918129 -0.02969013 0.09351353
v 0.05095477 -0.02655527 0.09350594
v 0.05276932 -0.02276548 0.09349819
v 0.05378672 -0.02026288 0.09349383
v 0.05538103 -0.01541676 0.09348702
v 0.05583957 -0.01367501 0.09348505
v 0.05696778 -0.00778085 0.09348023
v 0.05708337 -0.00688772 0.09347974
v 0.05750000 -0.00000000 0.09347795
v 0.05708337 0.00688772 0.09347974
v 0.05696778 0.00778085 0.09348023
v 0.05583957 0.01367501 0.09348505
v 0.05538103 0.01541676 0.09348702
v 0.05378672 0.02026288 0.09349383
v 0.05276932 0.02276548 0.09349819
v 0.05095477 0.02655527 0.09350594
v 0.04918129 0.02969013 0.09351353
v 0.04738501 0.03246043 0.09352121
v 0.04468378 0.03606170 0.09353276
v 0.04312950 0.03789224 0.09353940
v 0.03936058 0.04176152 0.09355552
v 0.03825029 0.04277149 0.09356027
v 0.03331083 0.04668339 0.09358139
v 0.02691342 0.05059684 0.09360874
v 0.02664725 0.05073565 0.09360988
v 0.02062109 0.05342881 0.09363566
v 0.01949396 0.05384279 0.09364048
v 0.01403328 0.05548168 0.09366383
v 0.01198420 0.05594694 0.09367259
v 0.00724606 0.05672549 0.09369285
v 0.00425788 0.05700891 0.09370562
v 0.00035840 0.05714212 0.09372230
v -0.00354108 0.05700891 0.09373898
v -0.00652926 0.05672549 0.09375176
v -0.01126740 0.05594694 0.09377202
v -0.01331648 0.05548168 0.09378078
v -0.01877716 0.05384279 0.09380413
v -0.03210173 0.04702704 0.09386111
v -0.03259404 0.04668339 0.09386321
v -0.03753349 0.04277149 0.09388433
v -0.03864378 0.04176152 0.09388908
v -0.04241271 0.03789224 0.09390520
v -0.04396699 0.03606170 0.09391185
v -0.04666822 0.03246043 0.09392340
v -0.04846450 0.02969013 0.09393108
v -0.05023798 0.02655527 0.09393866
v -0.05205252 0.02276548 0.09394642
v -0.05306993 0.02026288 0.09395077
v -0.05466424 0.01541676 0.09395759
v -0.05625098 0.00778085 0.09396438
v -0.05636657 0.00688772 0.09396487
v -0.05678320 -0.00000000 0.09396665
v -0.05512277 0.01367501 0.09395955
v -0.02593045 0.05073565 0.09383472
v -0.02619663 0.05059684 0.09383585
v -0.01990429 0.05342881 0.09380895
v 0.03281853 0.04702704 0.09358349
v 0.02664725 -0.05073565 0.09360988
v 0.02691342 -0.05059684 0.09360874
v 0.02062109 -0.05342881 0.09363566
v -0.03210173 -0.04702704 0.09386111
v -0.09880515 0.01538892 0.01076014
v -0.09946634 0.01028201 0.01076297
v -0.09986375 0.00514783 0.01076467
v -0.07161208 0.06979378 0.01064386
v -0.07510999 0.06601461 0.01065882
v -0.07840872 0.06206038 0.01067292
v -0.08149952 0.05794158 0.01068614
v -0.08437418 0.05366913 0.01069843
v -0.08702511 0.04925436 0.01070977
v -0.08944524 0.04470897 0.01072012
v -0.09162819 0.04004502 0.01072945
v -0.09356814 0.03527489 0.01073775
v -0.09525996 0.03041120 0.01074498
v -0.09669918 0.02546688 0.01075114
v -0.09788195 0.02045502 0.01075620
v -0.00771558 0.09970084 0.01037063
v -0.01283777 0.09917136 0.01039253
v -0.01792592 0.09837890 0.01041429
v -0.02296653 0.09732555 0.01043584
v -0.02794622 0.09601411 0.01045714
v -0.03285181 0.09444806 0.01047811
v -0.03767027 0.09263155 0.01049872
v -0.04238883 0.09056940 0.01051890
v -0.04699499 0.08826707 0.01053859
v -0.05147651 0.08573068 0.01055776
v -0.05582152 0.08296695 0.01057634
v -0.06001850 0.07998319 0.01059428
v -0.06405631 0.07678735 0.01061155
v -0.06792426 0.07338787 0.01062809
v 0.06002216 0.07998319 0.01008096
v 0.05582518 0.08296695 0.01009891
v 0.05148017 0.08573068 0.01011749
v 0.04699864 0.08826707 0.01013666
v 0.04239249 0.09056940 0.01015635
v 0.03767393 0.09263155 0.01017653
v 0.03285547 0.09444806 0.01019713
v 0.02794988 0.09601411 0.01021811
v 0.02297018 0.09732555 0.01023941
v 0.01792958 0.09837890 0.01026096
v 0.01284143 0.09917136 0.01028272
v 0.00771923 0.09970084 0.01030462
v 0.00257657 0.09996593 0.01032661
v -0.00257292 0.09996593 0.01034863
v 0.09788561 0.02045502 0.00991905
v 0.09670284 0.02546688 0.00992411
v 0.09526362 0.03041120 0.00993026
v 0.09357180 0.03527489 0.00993750
v 0.09163184 0.04004502 0.00994579
v 0.08944890 0.04470897 0.00995513
v 0.08702876 0.04925436 0.00996548
v 0.08437784 0.05366913 0.00997681
v 0.08150318 0.05794158 0.00998911
v 0.07841238 0.06206038 0.01000232
v 0.07511365 0.06601461 0.01001643
v 0.07161574 0.06979378 0.01003139
v 0.06792792 0.07338787 0.01004716
v 0.06405997 0.07678735 0.01006370
v 0.08702876 -0.04925436 0.00996548
v 0.08944890 -0.04470897 0.00995513
v 0.09163184 -0.04004502 0.00994579
v 0.09357180 -0.03527489 0.00993750
v 0.09526362 -0.03041120 0.00993026
v 0.09670284 -0.02546688 0.00992411
v 0.09788561 -0.02045502 0.00991905
v 0.09880881 -0.01538892 0.00991510
v 0.09947000 -0.01028201 0.00991228
v 0.09986741 -0.00514783 0.00991058
v 0.10000000 -0.00000000 0.00991001
v 0.09986741 0.00514783 0.00991058
v 0.09947000 0.01028201 0.00991228
v 0.09880881 0.01538892 0.00991510
v 0.04239249 -0.09056940 0.01015635
v 0.04699864 -0.08826707 0.01013666
v 0.05148017 -0.08573068 0.01011749
v 0.05582518 -0.08296695 0.01009891
v 0.06002216 -0.07998319 0.01008096
v 0.06405997 -0.07678735 0.01006370
v 0.06792792 -0.07338787 0.01004716
v 0.07161574 -0.06979378 0.01003139
v 0.07511365 -0.06601461 0.01001643
v 0.07841238 -0.06206038 0.01000232
v 0.08150318 -0.05794158 0.00998911
v 0.08437784 -0.05366913 0.00997681
v -0.02794622 -0.09601411 0.01045714
v -0.02296653 -0.09732555 0.01043584
v -0.01792592 -0.09837890 0.01041429
v -0.01283777 -0.09917136 0.01039253
v -0.00771558 -0.09970084 0.01037063
v -0.00257292 -0.09996593 0.01034863
v 0.00257657 -0.09996593 0.01032661
v 0.00771923 -0.09970084 0.01030462
v 0.01284143 -0.09917136 0.01028272
v 0.01792958 -0.09837890 0.01026096
v 0.02297018 -0.09732555 0.01023941
v 0.02794988 -0.09601411 0.01021811
v 0.03285547 -0.09444806 0.01019713
v 0.03767393 -0.09263155 0.01017653
v -0.08437418 -0.05366913 0.01069843
v -0.08149952 -0.05794158 0.01068614
v -0.07840872 -0.06206038 0.01067292
v -0.07510999 -0.06601461 0.01065882
v -0.07161208 -0.06979378 0.01064386
v -0.06792426 -0.07338787 0.01062809
v -0.06405631 -0.07678735 0.01061155
v -0.06001850 -0.07998319 0.01059428
v -0.05582152 -0.08296695 0.01057634
v -0.05147651 -0.08573068 0.01055776
v -0.04699499 -0.08826707 0.01053859
v -0.04238883 -0.09056940 0.01051890
v -0.03767027 -0.09263155 0.01049872
v -0.03285181 -0.09444806 0.01047811
v -0.09999634 -0.00000000 0.01076524
v -0.09986375 -0.00514783 0.01076467
v -0.09946634 -0.01028201 0.01076297
v -0.09880515 -0.01538892 0.01076014
v -0.09788195 -0.02045502 0.01075620
v -0.09669918 -0.02546688 0.01075114
v -0.09525996 -0.03041120 0.01074498
v -0.09356814 -0.03527489 0.01073775
v -0.09162819 -0.04004502 0.01072945
v -0.08944524 -0.04470897 0.01072012
v -0.08702511 -0.04925436 0.01070977
v 0.09986736 -0.00515001 0.00000057
v 0.10000000 -0.00000000 -0.00000000
v 0.09986736 0.00515001 0.00000057
v 0.09946977 0.01028636 0.00000227
v 0.09880830 0.01539544 0.00000510
v 0.09788471 0.02046369 0.00000905
v 0.09670144 0.02547767 0.00001411
v 0.09526162 0.03042409 0.00002026
v 0.09356908 0.03528984 0.00002750
v 0.09162830 0.04006200 0.00003580
v 0.08944443 0.04472792 0.00004514
v 0.08702327 0.04927523 0.00005549
v 0.08437122 0.05369187 0.00006683
v 0.08149534 0.05796614 0.00007913
v 0.07840323 0.06208668 0.00009235
v 0.07510310 0.06604259 0.00010646
v 0.07160371 0.06982335 0.00012143
v 0.06791433 0.07341897 0.00013721
v 0.06404474 0.07681988 0.00015375
v 0.06000522 0.08001709 0.00017103
v 0.05580646 0.08300211 0.00018898
v 0.05145961 0.08576701 0.00020757
v 0.04697618 0.08830447 0.00022674
v 0.04236808 0.09060778 0.00024645
v 0.03764752 0.09267081 0.00026663
v 0.03282701 0.09448808 0.00028725
v 0.02791935 0.09605480 0.00030823
v 0.02293754 0.09736679 0.00032954
v 0.01789480 0.09842058 0.00035110
v 0.01280449 0.09921338 0.00037287
v 0.00768013 0.09974309 0.00039478
v 0.00253529 0.10000829 0.00041678
v -0.00261638 0.10000829 0.00043881
v -0.00776122 0.09974309 0.00046081
v -0.01288559 0.09921338 0.00048272
v -0.01797589 0.09842058 0.00050449
v -0.02301864 0.09736679 0.00052605
v -0.02800044 0.09605480 0.00054736
v -0.03290811 0.09448808 0.00056834
v -0.03772861 0.09267081 0.00058896
v -0.04244918 0.09060778 0.00060914
v -0.04705728 0.08830447 0.00062885
v -0.05154070 0.08576701 0.00064802
v -0.05588756 0.08300211 0.00066661
v -0.06008631 0.08001709 0.00068456
v -0.06412584 0.07681988 0.00070184
v -0.06799542 0.07341897 0.00071838
v -0.07168481 0.06982335 0.00073416
v -0.07518420 0.06604259 0.00074912
v -0.07848433 0.06208668 0.00076324
v -0.08157643 0.05796614 0.00077646
v -0.08445232 0.05369187 0.00078876
v -0.08710436 0.04927523 0.00080010
v -0.08952553 0.04472792 0.00081045
v -0.09170939 0.04006200 0.00081979
v -0.09365017 0.03528984 0.00082809
v -0.09534271 0.03042409 0.00083533
v -0.09678253 0.02547767 0.00084148
v -0.09796581 0.02046369 0.00084654
v -0.09888940 0.01539544 0.00085049
v -0.09955087 0.01028636 0.00085332
v -0.09994845 0.00515001 0.00085502
v -0.10008109 -0.00000000 0.00085559
v -0.09994845 -0.00515001 0.00085502
v -0.09955087 -0.01028636 0.00085332
v -0.09888940 -0.01539544 0.00085049
v -0.09796581 -0.02046369 0.00084654
v -0.09678253 -0.02547767 0.00084148
v -0.09534271 -0.03042409 0.00083533
v -0.09365017 -0.03528984 0.00082809
v -0.09170939 -0.04006200 0.00081979
v -0.08952553 -0.04472792 0.00081045
v -0.08710436 -0.04927523 0.00080010
v -0.08445232 -0.05369187 0.00078876
v -0.08157643 -0.05796614 0.00077646
v -0.07848433 -0.06208668 0.00076324
v -0.07518420 -0.06604259 0.00074912
v -0.07168481 -0.06982335 0.00073416
v -0.06799542 -0.07341897 0.00071838
v -0.06412584 -0.07681988 0.00070184
v -0.06008631 -0.08001709 0.00068456
v -0.05588756 -0.08300211 0.00066661
v -0.05154070 -0.08576701 0.00064802
v -0.04705728 -0.08830447 0.00062885
v -0.04244918 -0.09060778 0.00060914
v -0.03772861 -0.09267081 0.00058896
v -0.03290811 -0.09448808 0.00056834
v -0.02800044 -0.09605480 0.00054736
v -0.02301864 -0.09736679 0.00052605
v -0.01797589 -0.09842058 0.00050449
v -0.01288559 -0.09921338 0.00048272
v -0.00776122 -0.09974309 0.00046081
v -0.00261638 -0.10000829 0.00043881
v 0.00253529 -0.10000829 0.00041678
v 0.00768013 -0.09974309 0.00039478
v 0.01280449 -0.09921338 0.00037287
v 0.01789480 -0.09842058 0.00035110
v 0.02293754 -0.09736679 0.00032954
v 0.02791935 -0.09605480 0.00030823
v 0.03282701 -0.09448808 0.00028725
v 0.03764752 -0.09267081 0.00026663
v 0.04236808 -0.09060778 0.00024645
v 0.04697618 -0.08830447 0.00022674
v 0.05145961 -0.08576701 0.00020757
v 0.05580646 -0.08300211 0.00018898
v 0.06000522 -0.08001709 0.00017103
v 0.06404474 -0.07681988 0.00015375
v 0.06791433 -0.07341897 0.00013721
v 0.07160371 -0.06982335 0.00012143
v 0.07510310 -0.06604259 0.00010646
v 0.07840323 -0.06208668 0.00009235
v 0.08149534 -0.05796614 0.00007913
v 0.08437122 -0.05369187 0.00006683
v 0.08702327 -0.04927523 0.00005549
v 0.08944443 -0.04472792 0.00004514
v 0.09162830 -0.04006200 0.00003580
v 0.09356908 -0.03528984 0.00002750
v 0.09526162 -0.03042409 0.00002026
v 0.09670144 -0.02547767 0.00001411
v 0.09788471 -0.02046369 0.00000905
v 0.09880830 -0.01539544 0.00000510
v 0.09946977 -0.01028636 0.00000227
f 228 108 227
f 189 330 164
f 228 227 283
f 202 131 130
f 151 163 272
f 110 230 231
f 159 232 157
f 3 362 4
f 130 131 132
f 199 200 129
f 130 132 129
f 196 126 125
f 125 195 196
f 196 197 126
f 284 285 228
f 228 283 284
f 332 333 167
f 167 166 332
f 329 330 189
f 189 328 329
f 325 326 185
f 151 272 273
f 141 164 165
f 229 108 228
f 228 285 229
f 285 230 229
f 285 17 286
f 286 230 285
f 231 230 286
f 112 110 111
f 107 227 108
f 112 111 205
f 116 117 114
f 114 117 121
f 251 88 250
f 275 66 274
f 276 66 275
f 151 66 149
f 149 161 162
f 149 152 175
f 175 161 149
f 173 147 172
f 172 338 173
f 171 338 172
f 337 338 171
f 170 171 146
f 172 147 146
f 146 171 172
f 283 404 64
f 157 232 233
f 157 233 158
f 390 238 237
f 239 96 238
f 239 238 390
f 241 242 98
f 224 223 402
f 402 225 224
f 224 105 223
f 403 225 402
f 404 225 403
f 226 225 404
f 226 283 227
f 226 404 283
f 227 107 226
f 402 223 401
f 223 400 401
f 401 61 402
f 400 61 401
f 218 396 397
f 310 197 309
f 216 217 121
f 212 295 296
f 201 202 130
f 130 129 201
f 201 129 200
f 313 201 200
f 314 202 313
f 202 201 313
f 199 310 311
f 311 200 199
f 181 322 182
f 128 129 132
f 199 129 128
f 194 193 306
f 194 195 125
f 192 156 191
f 304 193 192
f 191 303 192
f 303 304 192
f 331 164 330
f 331 165 164
f 331 332 166
f 166 165 331
f 335 169 334
f 167 333 334
f 337 171 336
f 336 171 170
f 170 169 336
f 336 169 335
f 339 173 338
f 175 341 342
f 342 161 175
f 342 343 162
f 162 161 342
f 6 44 43
f 4 44 6
f 345 272 344
f 344 272 163
f 163 162 344
f 162 343 344
f 186 326 327
f 186 185 326
f 274 66 65
f 65 273 274
f 65 66 151
f 151 273 65
f 109 110 112
f 112 114 109
f 109 107 108
f 109 114 132
f 108 229 109
f 230 110 109
f 109 229 230
f 94 159 157
f 157 158 94
f 101 100 218
f 208 114 207
f 291 208 207
f 204 205 111
f 204 110 231
f 204 111 110
f 231 288 204
f 288 205 204
f 116 210 211
f 212 117 211
f 211 117 116
f 211 295 212
f 211 210 295
f 209 114 208
f 246 245 371
f 244 245 83
f 371 245 244
f 267 268 79
f 365 268 267
f 266 364 267
f 267 364 365
f 367 46 368
f 367 368 269
f 269 268 367
f 266 267 160
f 160 267 79
f 77 160 75
f 75 160 86
f 140 164 141
f 141 139 140
f 189 164 140
f 140 139 189
f 315 202 314
f 152 149 148
f 147 173 148
f 145 146 147
f 147 148 145
f 145 148 149
f 145 149 141
f 170 146 145
f 145 169 170
f 144 169 145
f 150 163 151
f 151 149 150
f 150 162 163
f 150 149 162
f 168 169 144
f 168 143 167
f 144 143 168
f 167 334 168
f 168 334 169
f 262 359 360
f 360 359 44
f 365 364 47
f 47 364 3
f 47 3 4
f 4 49 47
f 49 46 47
f 48 46 49
f 368 46 48
f 241 393 394
f 394 242 241
f 380 53 54
f 392 393 241
f 234 158 233
f 234 387 235
f 218 100 243
f 241 98 240
f 240 392 241
f 239 392 240
f 105 224 106
f 106 224 225
f 225 226 106
f 106 226 107
f 402 61 63
f 63 403 402
f 63 64 404
f 404 403 63
f 62 61 400
f 398 220 397
f 307 196 195
f 307 194 306
f 195 194 307
f 197 196 308
f 308 309 197
f 196 307 308
f 300 24 301
f 300 301 217
f 217 216 300
f 300 216 215
f 191 156 122
f 122 190 191
f 121 217 122
f 217 190 122
f 125 126 122
f 126 132 122
f 122 114 121
f 132 114 122
f 217 301 302
f 302 190 217
f 301 24 302
f 302 303 191
f 191 190 302
f 121 119 120
f 120 119 215
f 120 216 121
f 215 216 120
f 121 117 118
f 118 119 121
f 118 117 212
f 312 313 200
f 200 311 312
f 141 132 137
f 137 139 141
f 137 153 154
f 154 185 137
f 185 186 137
f 177 176 316
f 316 317 177
f 203 132 131
f 203 176 132
f 131 202 203
f 202 315 203
f 316 176 203
f 203 315 316
f 127 132 126
f 127 128 132
f 126 197 127
f 124 194 125
f 193 194 124
f 125 122 124
f 19 15 20
f 291 290 19
f 19 290 15
f 287 288 231
f 231 286 287
f 25 304 303
f 303 302 25
f 25 302 24
f 251 250 377
f 34 334 333
f 333 332 34
f 188 328 189
f 327 328 188
f 189 139 188
f 96 239 97
f 239 240 97
f 97 240 98
f 236 94 235
f 237 94 236
f 219 101 218
f 218 397 219
f 397 220 219
f 112 205 206
f 205 290 206
f 291 207 206
f 206 290 291
f 113 114 112
f 113 207 114
f 112 206 113
f 113 206 207
f 289 205 288
f 289 290 205
f 288 15 289
f 15 290 289
f 116 114 115
f 114 209 115
f 115 210 116
f 115 209 210
f 293 209 208
f 210 209 293
f 249 86 248
f 249 250 87
f 87 86 249
f 87 250 88
f 88 86 87
f 107 86 102
f 102 86 94
f 100 101 102
f 102 219 220
f 101 219 102
f 220 221 102
f 221 103 102
f 232 383 384
f 384 233 232
f 385 233 384
f 381 255 380
f 380 54 381
f 237 236 388
f 235 387 388
f 388 236 235
f 380 255 254
f 254 253 380
f 89 88 251
f 89 86 88
f 232 159 257
f 159 256 257
f 257 383 232
f 257 256 383
f 85 246 247
f 247 248 85
f 85 248 86
f 85 81 83
f 86 160 85
f 369 271 368
f 369 244 271
f 368 48 369
f 82 244 83
f 83 81 82
f 271 244 82
f 82 81 271
f 270 81 269
f 271 81 270
f 269 368 270
f 368 271 270
f 366 268 365
f 366 367 268
f 365 47 366
f 46 367 366
f 366 47 46
f 263 264 77
f 262 360 263
f 362 264 263
f 363 264 362
f 362 3 363
f 3 364 363
f 363 364 266
f 266 160 78
f 77 264 78
f 78 160 77
f 80 160 79
f 269 81 80
f 81 85 80
f 80 85 160
f 80 268 269
f 79 268 80
f 262 75 261
f 261 359 262
f 260 359 261
f 76 75 262
f 77 75 76
f 262 263 76
f 76 263 77
f 325 185 184
f 184 185 154
f 154 153 184
f 182 322 183
f 322 323 183
f 323 184 183
f 183 184 153
f 319 178 318
f 178 177 318
f 318 177 317
f 174 148 173
f 173 339 174
f 175 152 174
f 152 148 174
f 174 341 175
f 142 145 141
f 144 145 142
f 142 143 144
f 141 165 142
f 142 165 166
f 142 166 167
f 167 143 142
f 45 44 4
f 45 360 44
f 358 359 260
f 44 359 358
f 282 281 354
f 354 281 280
f 43 44 42
f 44 358 42
f 42 358 357
f 4 54 51
f 51 49 4
f 51 54 53
f 93 94 158
f 158 234 93
f 235 94 93
f 93 234 235
f 387 234 386
f 386 233 385
f 386 234 233
f 1 397 396
f 1 398 397
f 62 398 1
f 61 62 1
f 1 63 61
f 222 400 223
f 222 103 221
f 399 221 220
f 220 398 399
f 400 222 399
f 399 222 221
f 399 62 400
f 399 398 62
f 215 298 299
f 299 300 215
f 213 118 212
f 213 297 298
f 212 296 213
f 296 297 213
f 298 297 23
f 20 24 23
f 23 297 296
f 179 178 319
f 319 180 179
f 136 180 181
f 322 181 321
f 181 180 321
f 31 322 321
f 133 137 132
f 153 137 133
f 133 177 178
f 132 176 133
f 176 177 133
f 199 128 198
f 128 127 198
f 198 127 197
f 198 310 199
f 198 197 310
f 123 192 193
f 193 124 123
f 156 192 123
f 123 122 156
f 123 124 122
f 16 286 17
f 16 287 286
f 16 15 288
f 288 287 16
f 306 193 305
f 305 193 304
f 14 307 306
f 14 308 307
f 371 49 372
f 372 246 371
f 247 246 372
f 372 373 247
f 378 51 53
f 377 51 378
f 375 250 249
f 332 331 35
f 35 34 332
f 35 331 330
f 335 334 36
f 334 34 36
f 36 336 335
f 187 186 327
f 327 188 187
f 292 208 291
f 292 293 208
f 20 293 292
f 291 19 292
f 292 19 20
f 295 210 294
f 210 293 294
f 294 293 20
f 107 102 104
f 104 102 103
f 105 106 104
f 104 106 107
f 103 222 104
f 223 105 104
f 104 222 223
f 95 102 94
f 95 97 98
f 96 97 95
f 95 94 237
f 238 96 95
f 95 237 238
f 382 381 54
f 383 256 382
f 382 256 255
f 255 381 382
f 390 237 389
f 237 388 389
f 92 256 159
f 255 256 92
f 159 94 92
f 94 86 92
f 253 254 90
f 90 89 253
f 86 89 90
f 84 85 83
f 246 85 84
f 83 245 84
f 245 246 84
f 371 244 370
f 244 369 370
f 370 49 371
f 370 48 49
f 370 369 48
f 362 263 361
f 361 263 360
f 360 45 361
f 4 362 361
f 361 45 4
f 266 78 265
f 265 78 264
f 265 363 266
f 264 363 265
f 259 358 260
f 357 358 259
f 260 261 74
f 74 261 75
f 74 259 260
f 73 259 74
f 71 281 282
f 71 75 66
f 71 74 75
f 325 184 324
f 324 184 323
f 357 259 356
f 43 42 356
f 356 42 357
f 280 279 352
f 352 279 278
f 5 6 43
f 43 354 5
f 5 352 6
f 49 51 50
f 50 51 52
f 50 372 49
f 373 372 50
f 395 396 218
f 218 243 395
f 242 394 395
f 395 243 242
f 60 394 393
f 393 392 60
f 119 118 214
f 118 213 214
f 215 119 214
f 214 298 215
f 214 213 298
f 22 299 298
f 298 23 22
f 22 23 24
f 24 300 22
f 300 299 22
f 21 296 295
f 21 23 296
f 20 23 21
f 295 294 21
f 21 294 20
f 155 181 182
f 155 136 181
f 182 183 155
f 155 183 153
f 153 133 155
f 135 179 180
f 180 136 135
f 136 155 135
f 135 155 133
f 320 180 319
f 320 321 180
f 31 321 320
f 304 25 26
f 26 305 304
f 26 25 24
f 306 305 26
f 26 14 306
f 309 308 13
f 308 14 13
f 310 309 13
f 13 26 24
f 14 26 13
f 13 24 20
f 379 53 380
f 379 378 53
f 380 253 379
f 252 89 251
f 253 89 252
f 251 377 252
f 377 378 252
f 252 379 253
f 378 379 252
f 52 375 374
f 374 50 52
f 373 50 374
f 247 373 374
f 374 248 247
f 249 248 374
f 374 375 249
f 52 51 376
f 376 375 52
f 376 51 377
f 376 377 250
f 250 375 376
f 330 329 9
f 9 35 330
f 337 336 37
f 336 36 37
f 37 338 337
f 37 35 6
f 34 35 37
f 37 36 34
f 138 137 186
f 186 187 138
f 139 137 138
f 138 188 139
f 138 187 188
f 100 102 99
f 102 95 99
f 99 95 98
f 99 98 242
f 99 243 100
f 242 243 99
f 91 254 255
f 91 90 254
f 255 92 91
f 91 92 86
f 86 90 91
f 258 259 73
f 282 356 258
f 258 356 259
f 280 281 70
f 281 71 70
f 70 279 280
f 282 354 355
f 355 356 282
f 355 354 43
f 43 356 355
f 353 354 280
f 280 352 353
f 353 5 354
f 352 5 353
f 278 277 351
f 351 352 278
f 6 352 351
f 2 395 394
f 394 60 2
f 2 1 396
f 396 395 2
f 391 239 390
f 391 392 239
f 390 389 59
f 59 389 388
f 59 2 60
f 54 1 59
f 1 2 59
f 178 179 134
f 179 135 134
f 134 133 178
f 134 135 133
f 28 311 310
f 310 13 28
f 28 312 311
f 10 329 328
f 10 9 329
f 35 9 10
f 4 6 10
f 6 35 10
f 38 339 338
f 338 37 38
f 72 258 73
f 73 74 72
f 74 71 72
f 72 71 282
f 282 258 72
f 278 279 69
f 279 70 69
f 69 70 71
f 349 277 276
f 58 60 392
f 392 391 58
f 58 59 60
f 58 391 390
f 390 59 58
f 56 388 387
f 56 59 388
f 387 386 56
f 313 312 27
f 312 28 27
f 314 313 27
f 27 28 13
f 13 10 27
f 33 328 327
f 33 10 328
f 327 326 33
f 339 38 340
f 341 174 340
f 340 174 339
f 40 342 341
f 341 340 40
f 40 340 38
f 40 38 37
f 68 277 278
f 278 69 68
f 68 71 66
f 68 69 71
f 350 351 277
f 277 349 350
f 350 349 41
f 350 41 6
f 6 351 350
f 276 275 348
f 348 349 276
f 348 275 274
f 7 41 348
f 41 349 348
f 57 386 385
f 57 56 386
f 385 384 57
f 54 59 57
f 59 56 57
f 29 315 314
f 314 27 29
f 316 315 29
f 32 326 325
f 32 33 326
f 325 324 32
f 10 33 32
f 343 342 39
f 342 40 39
f 39 344 343
f 276 277 67
f 277 68 67
f 67 66 276
f 67 68 66
f 274 273 346
f 346 272 345
f 346 273 272
f 55 384 383
f 55 57 384
f 54 57 55
f 383 382 55
f 55 382 54
f 12 317 316
f 316 29 12
f 12 318 317
f 12 29 27
f 30 324 323
f 30 32 324
f 30 322 31
f 30 323 322
f 345 344 8
f 344 39 8
f 8 346 345
f 7 346 8
f 8 39 40
f 8 41 7
f 6 41 8
f 8 37 6
f 8 40 37
f 347 348 274
f 274 346 347
f 7 348 347
f 347 346 7
f 319 318 11
f 318 12 11
f 11 320 319
f 31 320 11
f 11 30 31
f 32 30 11
f 10 32 11
f 11 27 10
f 11 12 27
f 107 109 86
f 86 109 132
f 75 149 66
f 141 149 75
f 75 86 132
f 75 132 141
f 18 17 285
f 285 284 18
f 18 284 283
f 283 64 18
f 17 20 16
f 20 15 16
f 17 18 13
f 13 20 17
f 13 1 54
f 13 18 64
f 64 63 13
f 63 1 13
f 10 13 54
f 10 54 4

