# https://github.com/mikedh/trimesh
v 37.00000000 0.00000000 -7.99999952
v -37.00000000 0.00000000 -7.99999952
v -32.35082626 -17.95617294 -7.99999952
v -34.00143814 -14.59116650 -7.99999952
v -35.30315018 -11.07643604 -7.99999952
v -36.24260712 -7.44804525 -7.99999952
v -36.81016541 -3.74322796 -7.99999952
v 36.81016541 -3.74322796 -7.99999952
v 36.24261093 -7.44804525 -7.99999952
v 35.30315399 -11.07643604 -7.99999952
v 34.00143814 -14.59116650 -7.99999952
v 32.35082626 -17.95617294 -7.99999952
v -1.87401927 -36.95251083 -7.99999952
v -5.60282803 -36.57332993 -7.99999952
v -9.27414322 -35.81885529 -7.99999952
v -12.85029411 -34.69683075 -7.99999952
v -16.29458427 -33.21876907 -7.99999952
v 30.36824799 -21.13692474 -7.99999952
v 28.07404900 -24.10078239 -7.99999952
v -30.36824608 -21.13692474 -7.99999952
v -28.07405090 -24.10078239 -7.99999952
v -25.49177742 -26.81733322 -7.99999952
v -22.64792252 -29.25870132 -7.99999952
v -19.57166862 -31.39983559 -7.99999952
v 25.49177551 -26.81733322 -7.99999952
v 22.64792252 -29.25870132 -7.99999952
v 19.57166862 -31.39983559 -7.99999952
v 16.29458237 -33.21876907 -7.99999952
v 12.85029411 -34.69683075 -7.99999952
v 9.27414417 -35.81885529 -7.99999952
v 5.60282755 -36.57332993 -7.99999952
v 1.87401927 -36.95251083 -7.99999952
v -37.50000000 0.00000000 9.50000000
v -37.50000000 0.00000000 -7.50000000
v -37.30760193 -3.79381204 -7.50000000
v -37.30760193 -3.79381204 9.50000000
v -36.73237610 -7.54869461 -7.50000000
v -36.73237610 -7.54869461 9.50000000
v -35.78022385 -11.22611713 -7.50000000
v -35.78022385 -11.22611713 9.50000000
v -34.46091843 -14.78834534 -7.50000000
v -34.46091843 -14.78834534 9.50000000
v -32.78799820 -18.19882393 -7.50000000
v -32.78799820 -18.19882393 9.50000000
v -30.77862930 -21.42255974 -7.50000000
v -30.77862930 -21.42255974 9.50000000
v -28.45342827 -24.42646980 -7.50000000
v -28.45342827 -24.42646980 9.50000000
v -25.83625984 -27.17972946 -7.50000000
v -25.83625984 -27.17972946 9.50000000
v -22.95397568 -29.65409088 -7.50000000
v -22.95397568 -29.65409088 9.50000000
v -19.83615112 -31.82415771 -7.50000000
v -19.83615112 -31.82415771 9.50000000
v -16.51478004 -33.66767120 -7.50000000
v -16.51478004 -33.66767120 9.50000000
v -13.02394676 -35.16570663 -7.50000000
v -13.02394676 -35.16570663 9.50000000
v -9.39946938 -36.30289078 -7.50000000
v -9.39946938 -36.30289078 9.50000000
v -5.67854166 -37.06756210 -7.50000000
v -5.67854166 -37.06756210 9.50000000
v -1.89934373 -37.45186996 -7.50000000
v -1.89934373 -37.45186996 9.50000000
v 1.89934385 -37.45186996 -7.50000000
v 1.89934385 -37.45186996 9.50000000
v 5.67854166 -37.06756210 -7.50000000
v 5.67854166 -37.06756210 9.50000000
v 9.39947033 -36.30289078 -7.50000000
v 9.39947033 -36.30289078 9.50000000
v 13.02394676 -35.16570663 -7.50000000
v 13.02394676 -35.16570663 9.50000000
v 16.51478195 -33.66767120 -7.50000000
v 16.51478195 -33.66767120 9.50000000
v 19.83615112 -31.82415771 -7.50000000
v 19.83615112 -31.82415771 9.50000000
v 22.95397568 -29.65409088 -7.50000000
v 22.95397568 -29.65409088 9.50000000
v 25.83625984 -27.17972946 -7.50000000
v 25.83625984 -27.17972946 9.50000000
v 28.45343018 -24.42646980 -7.50000000
v 28.45343018 -24.42646980 9.50000000
v 30.77862930 -21.42255974 -7.50000000
v 30.77862930 -21.42255974 9.50000000
v 32.78799820 -18.19882393 -7.50000000
v 32.78799820 -18.19882393 9.50000000
v 34.46091843 -14.78834534 -7.50000000
v 34.46091843 -14.78834534 9.50000000
v 35.78022385 -11.22611713 -7.50000000
v 35.78022385 -11.22611713 9.50000000
v 36.73237228 -7.54869461 -7.50000000
v 36.73237228 -7.54869461 9.50000000
v 37.30759811 -3.79381204 -7.50000000
v 37.30759811 -3.79381204 9.50000000
v 37.50000000 0.00000000 -7.50000000
v 37.50000000 0.00000000 9.50000000
v -16.29458427 -33.21876907 10.00000000
v -12.85029411 -34.69683075 10.00000000
v 19.57166862 -31.39983559 10.00000000
v 16.29458237 -33.21876907 10.00000000
v 12.85029411 -34.69683075 10.00000000
v -5.60282803 -36.57332993 10.00000000
v -1.87401927 -36.95251083 10.00000000
v 5.60282755 -36.57332993 10.00000000
v 1.87401927 -36.95251083 10.00000000
v -9.27414322 -35.81885529 10.00000000
v 9.27414417 -35.81885529 10.00000000
v -19.57166862 -31.39983559 10.00000000
v 37.50000000 57.43163300 -3.78141689
v 37.50000000 57.50000000 -3.00000000
v 37.50000000 53.00000000 -7.50000000
v 37.50000000 57.50000000 13.56226254
v 37.50000000 33.63939285 13.56226254
v 37.50000000 54.53908920 -7.22861671
v 37.50000000 55.25000000 -6.89711428
v 37.50000000 57.22861481 -4.53909063
v 37.50000000 53.78141403 -7.43163490
v 37.50000000 55.89254379 -6.44719982
v 37.50000000 56.44720078 -5.89254427
v 37.50000000 56.89711380 -5.25000000
v -37.50000000 53.00000000 -7.50000000
v -37.50000000 57.50000000 13.56226254
v -37.50000000 57.50000000 -3.00000000
v -37.50000000 33.63939285 13.56226254
v -37.50000000 57.22861481 -4.53909063
v -37.50000000 56.89711380 -5.25000000
v -37.50000000 56.44720078 -5.89254427
v -37.50000000 55.89254379 -6.44719982
v -37.50000000 55.25000000 -6.89711428
v -37.50000000 54.53908920 -7.22861671
v -37.50000000 57.43163300 -3.78141689
v -37.50000000 53.78141403 -7.43163490
v -37.00000000 53.00000000 -7.99999952
v 37.00000000 53.00000000 -7.99999952
v 0.69117928 25.56066132 60.91237259
v -2.06985021 25.56066132 60.81147003
v 3.43747735 25.56066132 60.61019516
v -4.78676462 25.56066132 60.30962753
v 15.47908306 57.77621841 -4.47909451
v 15.00000000 57.76969528 -4.50000000
v 14.52079582 57.77622223 -4.47908449
v 16.42368507 57.82464600 -4.31254339
v 15.95506573 57.79517365 -4.41644287
v -15.95506477 57.79517365 -4.41644287
v -16.42465782 57.82471848 -4.31228304
v -15.00000000 57.76969528 -4.50000000
v -15.47920418 57.77622223 -4.47908449
v 37.38388443 57.50000000 15.71425343
v 37.38556671 35.65111923 15.69866657
v 37.44362259 35.11246109 15.06287098
v -37.38388824 57.50000000 15.71425343
v -37.36532211 35.79663086 15.87935638
v -37.44315720 35.11794662 15.06908894
v 37.00000000 57.92403793 -3.86824083
v -37.00000000 57.69846344 -4.71010065
v 37.00000000 57.69846344 -4.71010065
v -37.00000000 57.92403793 -3.86824083
v 37.00000000 57.33012772 -5.50000000
v -37.00000000 57.33012772 -5.50000000
v 37.00000000 56.83022308 -6.21393824
v -37.00000000 56.83022308 -6.21393824
v 37.00000000 56.21393585 -6.83022213
v -37.00000000 56.21393585 -6.83022213
v 37.00000000 55.50000000 -7.33012724
v -37.00000000 55.50000000 -7.33012724
v 37.00000000 54.71009827 -7.69846296
v -37.00000000 54.71009827 -7.69846296
v 37.00000000 53.86824036 -7.92403889
v -37.00000000 53.86824036 -7.92403889
v -27.49999619 87.39765930 103.31497192
v 26.50000191 88.35466003 103.02489471
v -26.49999619 88.35466003 103.02490234
v 26.50000191 88.36910248 103.07769775
v -26.49999619 88.36910248 103.07770538
v 26.50000191 88.38063049 103.13121796
v -26.49999619 88.38063049 103.13122559
v 26.50000191 88.38921356 103.18528748
v -26.49999619 88.38921356 103.18529510
v 26.50000191 88.39482880 103.23975372
v -26.49999619 88.39482880 103.23976135
v 26.50000191 88.39744568 103.29444122
v -26.49999619 88.39744568 103.29444885
v 26.50000191 88.39707947 103.34918213
v -26.49999619 88.39707947 103.34918976
v 26.50000191 88.39369965 103.40383148
v -26.49999619 88.39369965 103.40383911
v 26.50000191 88.38734436 103.45820618
v -26.49999619 88.38734436 103.45821381
v 26.50000191 88.37802887 103.51215363
v -26.49999619 88.37802887 103.51216125
v 26.50000191 88.36576080 103.56551361
v -26.49999619 88.36576080 103.56552124
v 26.50000191 88.35060120 103.61811829
v -26.49999619 88.35060120 103.61812592
v 26.50000191 88.33258820 103.66982269
v -26.49999619 88.33258820 103.66983032
v 26.50000191 88.31175995 103.72045898
v -26.49999619 88.31175995 103.72045898
v 26.50000191 88.28820038 103.76987457
v -26.49999619 88.28820038 103.76988220
v 26.50000191 88.26197052 103.81793213
v -26.49999619 88.26197052 103.81793976
v 26.50000191 88.23314667 103.86447144
v -26.49999619 88.23314667 103.86447906
v 26.50000191 88.20182037 103.90937805
v -26.49999619 88.20182037 103.90938568
v 26.50000191 88.16808319 103.95249939
v -26.49999619 88.16808319 103.95250702
v 26.50000191 88.13203430 103.99370575
v -26.49999619 88.13203430 103.99371338
v 26.50000191 88.09379578 104.03288269
v -26.49999619 88.09379578 104.03289032
v 26.50000191 88.05346680 104.06990051
v -26.49999619 88.05346680 104.06990814
v 26.50000191 88.01116180 104.10466003
v -26.49999619 88.01116180 104.10466766
v 26.50000191 87.96702576 104.13705444
v -26.49999619 87.96702576 104.13706207
v 26.50000191 87.92118073 104.16698456
v -26.49999619 87.92118073 104.16699219
v 26.50000191 87.87376404 104.19435883
v -26.49999619 87.87376404 104.19436646
v 26.50000191 87.82492828 104.21909332
v -26.49999619 87.82492828 104.21910095
v 26.50000191 87.77480316 104.24112701
v -26.49999619 87.77480316 104.24113464
v 26.50000191 87.72354889 104.26037598
v -26.49999619 87.72354889 104.26038361
v 26.50000191 87.67132568 104.27678680
v -26.49999619 87.67132568 104.27679443
v 26.50000191 87.61827850 104.29032898
v -26.49999619 87.61827850 104.29033661
v 26.50000191 87.56456757 104.30093384
v -26.49999619 87.56456757 104.30094147
v 26.50000191 87.51035309 104.30859375
v -26.49999619 87.51035309 104.30860138
v 26.50000191 87.45581055 104.31327820
v -26.49999619 87.45581055 104.31328583
v 26.50000191 87.40108490 104.31495667
v -26.49999619 87.40108490 104.31496429
v 26.50000191 87.34635162 104.31364441
v -26.49999619 87.34635162 104.31365204
v 26.50000191 87.29177094 104.30934906
v -26.49999619 87.29177094 104.30935669
v 26.50000191 87.23750305 104.30206299
v -26.49999619 87.23750305 104.30207062
v 26.50000191 87.18373108 104.29181671
v -26.49999619 87.18373108 104.29182434
v 26.50000191 87.13059235 104.27864838
v -26.49999619 87.13059235 104.27865601
v 26.50000191 87.07824707 104.26258087
v -26.49999619 87.07824707 104.26258850
v 26.50000191 87.02686310 104.24368286
v -26.49999619 87.02686310 104.24369049
v 26.50000191 86.97659302 104.22200012
v -26.49999619 86.97659302 104.22200775
v 26.50000191 86.92758179 104.19759369
v -26.49999619 86.92758179 104.19760132
v 26.50000191 86.87998199 104.17054749
v -26.49999619 86.87998199 104.17055511
v 26.50000191 86.83393860 104.14093018
v -26.49999619 86.83393860 104.14093781
v 26.50000191 86.78957367 104.10884094
v -26.49999619 86.78957367 104.10884857
v 26.50000191 86.74703979 104.07437134
v -26.49999619 86.74703979 104.07437897
v 27.50000381 87.39765930 103.31496429
f 33 170 152
f 170 151 152
f 122 151 170
f 150 148 149
f 176 131 170
f 96 150 149
f 113 150 96
f 36 170 33
f 36 38 170
f 40 42 170
f 170 38 40
f 170 42 44
f 44 46 170
f 170 131 123
f 123 122 170
f 132 169 121
f 121 169 133
f 267 92 94
f 94 96 267
f 267 90 92
f 267 96 149
f 149 148 267
f 104 137 135
f 138 136 264
f 157 155 131
f 131 176 157
f 265 82 84
f 86 267 84
f 84 267 265
f 80 265 78
f 80 82 265
f 78 265 76
f 265 99 76
f 138 264 106
f 106 136 138
f 153 124 33
f 33 152 153
f 153 152 151
f 122 124 153
f 151 122 153
f 6 37 7
f 137 104 107
f 107 104 68
f 262 136 135
f 262 264 136
f 170 264 262
f 112 267 148
f 112 110 267
f 148 150 112
f 112 150 113
f 267 110 109
f 154 175 109
f 109 175 267
f 156 154 109
f 142 171 156
f 156 143 142
f 142 143 171
f 145 155 172
f 170 234 232
f 174 157 176
f 172 155 174
f 155 157 174
f 117 111 168
f 111 134 168
f 168 114 117
f 61 14 63
f 15 61 59
f 14 61 15
f 136 106 102
f 105 104 135
f 98 106 264
f 67 65 31
f 68 104 66
f 104 105 66
f 63 14 13
f 130 169 132
f 167 169 130
f 130 165 167
f 130 129 165
f 163 165 128
f 165 129 128
f 128 161 163
f 127 161 128
f 131 155 125
f 155 126 125
f 127 126 159
f 159 161 127
f 159 126 155
f 34 2 35
f 2 7 35
f 35 7 37
f 217 219 267
f 267 219 221
f 181 267 179
f 74 76 99
f 144 145 172
f 172 171 144
f 171 143 144
f 155 145 144
f 230 228 170
f 170 232 230
f 178 176 170
f 170 180 178
f 173 175 154
f 173 154 156
f 156 171 173
f 64 102 62
f 62 106 60
f 62 102 106
f 51 49 22
f 49 47 22
f 136 102 103
f 103 102 64
f 135 136 103
f 103 105 135
f 57 15 59
f 97 54 56
f 108 54 97
f 60 106 58
f 106 98 58
f 58 97 56
f 98 97 58
f 31 65 32
f 30 67 31
f 69 67 30
f 71 69 30
f 30 29 71
f 73 29 28
f 71 29 73
f 93 9 8
f 8 1 95
f 95 93 8
f 91 9 93
f 88 267 86
f 90 267 88
f 215 267 213
f 215 217 267
f 225 267 223
f 267 221 223
f 267 175 177
f 177 179 267
f 100 99 265
f 100 74 99
f 70 107 68
f 114 168 166
f 166 164 114
f 114 164 115
f 21 47 45
f 21 22 47
f 15 57 16
f 51 24 53
f 108 97 266
f 266 54 108
f 266 98 264
f 266 97 98
f 52 54 266
f 266 50 52
f 48 50 266
f 46 48 266
f 170 46 266
f 266 264 170
f 27 26 77
f 27 73 28
f 25 81 79
f 19 81 25
f 25 79 77
f 77 26 25
f 10 9 89
f 9 91 89
f 253 255 267
f 267 245 247
f 247 249 267
f 135 137 263
f 265 267 263
f 137 107 263
f 267 235 237
f 237 239 267
f 233 235 267
f 267 231 233
f 227 267 225
f 267 189 191
f 191 193 267
f 187 189 267
f 267 185 187
f 183 267 181
f 183 185 267
f 203 205 267
f 267 201 203
f 107 70 72
f 170 262 260
f 156 120 158
f 158 120 119
f 119 160 158
f 156 109 116
f 116 120 156
f 139 141 143
f 140 141 139
f 156 140 139
f 139 143 156
f 147 146 155
f 155 144 147
f 118 164 162
f 118 115 164
f 162 160 118
f 118 160 119
f 51 22 23
f 23 24 51
f 17 57 55
f 17 16 57
f 55 53 17
f 17 53 24
f 75 27 77
f 73 27 75
f 83 12 85
f 10 89 87
f 85 12 87
f 267 249 251
f 251 253 267
f 261 262 135
f 135 263 261
f 267 259 261
f 261 263 267
f 243 245 267
f 170 248 246
f 246 244 170
f 229 231 267
f 267 227 229
f 267 205 207
f 207 209 267
f 213 267 211
f 267 209 211
f 170 196 194
f 195 196 197
f 195 197 267
f 267 193 195
f 101 72 74
f 74 100 101
f 101 100 265
f 265 263 101
f 101 263 107
f 107 72 101
f 258 256 170
f 170 260 258
f 170 256 254
f 254 252 170
f 250 248 170
f 170 252 250
f 43 3 45
f 41 3 43
f 20 21 45
f 45 3 20
f 41 39 4
f 4 3 41
f 12 83 18
f 18 83 81
f 18 81 19
f 10 87 11
f 11 87 12
f 267 239 241
f 241 243 267
f 236 234 170
f 170 238 236
f 240 238 170
f 170 202 200
f 212 210 170
f 170 214 212
f 216 214 170
f 170 218 216
f 267 255 257
f 257 259 267
f 5 4 39
f 5 39 37
f 5 37 6
f 170 244 242
f 242 240 170
f 170 210 208
f 208 206 170
f 204 202 170
f 170 206 204
f 197 200 199
f 267 197 199
f 199 201 267
f 197 196 198
f 198 200 197
f 198 196 170
f 170 200 198
f 170 228 226
f 220 218 170
f 170 222 220
f 170 194 192
f 192 190 170
f 170 190 188
f 224 222 170
f 170 226 224
f 170 188 186
f 186 184 170
f 182 180 170
f 170 184 182
f 96 93 95
f 96 94 93
f 133 2 121
f 121 2 34
f 134 111 95
f 95 1 134
f 50 49 51
f 50 51 52
f 168 134 133
f 133 169 168
f 65 67 66
f 66 67 68
f 63 65 66
f 66 64 63
f 46 45 47
f 47 48 46
f 49 50 47
f 47 50 48
f 33 124 125
f 125 123 131
f 125 34 33
f 132 121 125
f 122 123 125
f 125 124 122
f 127 128 125
f 125 121 34
f 125 130 132
f 125 126 127
f 129 130 125
f 125 128 129
f 38 36 35
f 37 38 35
f 33 34 35
f 35 36 33
f 172 174 173
f 173 171 172
f 176 175 173
f 173 174 176
f 163 162 164
f 164 165 163
f 62 60 59
f 59 61 62
f 63 64 62
f 62 61 63
f 64 66 103
f 103 66 105
f 39 38 37
f 39 40 38
f 42 40 39
f 39 41 42
f 59 60 58
f 58 57 59
f 56 55 58
f 55 57 58
f 32 65 63
f 63 13 32
f 78 77 79
f 79 80 78
f 93 94 91
f 94 92 91
f 177 175 176
f 176 178 177
f 180 179 177
f 177 178 180
f 68 67 70
f 70 67 69
f 160 162 163
f 163 161 160
f 146 140 156
f 156 155 146
f 166 168 169
f 166 169 167
f 165 164 166
f 167 165 166
f 52 51 53
f 53 54 52
f 53 55 56
f 56 54 53
f 80 79 81
f 82 80 81
f 89 91 92
f 92 90 89
f 233 231 232
f 233 232 234
f 72 73 74
f 71 73 72
f 72 70 69
f 72 69 71
f 158 155 156
f 158 159 155
f 158 160 161
f 161 159 158
f 143 141 147
f 147 144 143
f 140 146 147
f 147 141 140
f 118 96 95
f 95 111 118
f 118 112 113
f 118 111 117
f 113 96 118
f 117 114 118
f 110 112 118
f 118 109 110
f 114 115 118
f 119 120 118
f 118 116 109
f 120 116 118
f 75 77 78
f 78 76 75
f 74 73 75
f 76 74 75
f 83 85 86
f 86 84 83
f 82 81 83
f 83 84 82
f 86 85 87
f 87 88 86
f 87 89 90
f 90 88 87
f 259 260 261
f 261 260 262
f 248 247 246
f 246 247 245
f 245 243 246
f 246 243 244
f 232 231 229
f 229 230 232
f 228 230 229
f 229 227 228
f 195 194 196
f 193 194 195
f 255 253 254
f 254 256 255
f 253 251 254
f 254 251 252
f 250 247 248
f 249 247 250
f 252 251 250
f 250 251 249
f 43 45 46
f 46 44 43
f 42 41 43
f 43 44 42
f 236 233 234
f 235 233 236
f 236 237 235
f 236 238 237
f 237 238 240
f 239 237 240
f 212 211 209
f 212 209 210
f 212 214 213
f 213 211 212
f 213 214 216
f 216 215 213
f 217 215 216
f 216 218 217
f 255 256 257
f 256 258 257
f 257 260 259
f 257 258 260
f 31 32 5
f 133 134 5
f 5 134 1
f 5 23 22
f 6 7 5
f 5 2 133
f 5 27 28
f 5 30 31
f 1 8 5
f 5 7 2
f 14 15 5
f 5 13 14
f 28 29 5
f 5 9 10
f 10 11 5
f 5 32 13
f 29 30 5
f 15 16 5
f 5 8 9
f 5 18 19
f 19 25 5
f 22 21 5
f 21 20 5
f 26 27 5
f 5 25 26
f 24 23 5
f 5 17 24
f 16 17 5
f 5 20 3
f 3 4 5
f 12 18 5
f 5 11 12
f 244 243 242
f 243 241 242
f 239 240 242
f 242 241 239
f 210 209 208
f 209 207 208
f 208 207 205
f 205 206 208
f 201 202 204
f 204 203 201
f 204 206 205
f 205 203 204
f 199 202 201
f 199 200 202
f 228 227 226
f 226 227 225
f 217 218 220
f 219 217 220
f 220 221 219
f 220 222 221
f 192 194 193
f 193 191 192
f 192 191 189
f 189 190 192
f 188 190 189
f 189 187 188
f 221 222 224
f 224 223 221
f 224 226 225
f 225 223 224
f 186 188 187
f 186 187 185
f 185 183 186
f 183 184 186
f 182 179 180
f 181 179 182
f 182 184 183
f 182 183 181

